CommonSans-CondensedThin.ufo
<glyph name="exclam" format="2">
  <advance width="190"/>
  <unicode hex="0021"/>
  <outline>
    <contour>
      <point x="86" y="0" type="line"/>
      <point x="86" y="80" type="line"/>
      <point x="106" y="80" type="line"/>
      <point x="106" y="0" type="line"/>
    </contour>
    <contour>
      <point x="89" y="155" type="line"/>
      <point x="84" y="440" type="line"/>
      <point x="84" y="686" type="line"/>
      <point x="106" y="686" type="line"/>
      <point x="106" y="440" type="line"/>
      <point x="101" y="155" type="line"/>
    </contour>
  </outline>
</glyph>
<glyph name="asterisk" format="2">
  <advance width="561"/>
  <unicode hex="002A"/>
  <outline>
    <contour>
      <point x="80" y="792" type="line"/>
      <point x="261" y="669" type="line"/>
      <point x="264" y="674" type="line"/>
      <point x="92" y="808" type="line"/>
    </contour>
    <contour>
      <point x="92" y="536" type="line"/>
      <point x="265" y="670" type="line"/>
      <point x="261" y="675" type="line"/>
      <point x="81" y="552" type="line"/>
    </contour>
    <contour>
      <point x="340" y="468" type="line"/>
      <point x="266" y="673" type="line"/>
      <point x="261" y="671" type="line"/>
      <point x="321" y="461" type="line"/>
    </contour>
    <contour>
      <point x="481" y="682" type="line"/>
      <point x="263" y="675" type="line"/>
      <point x="263" y="669" type="line"/>
      <point x="481" y="662" type="line"/>
    </contour>
    <contour>
      <point x="321" y="882" type="line"/>
      <point x="260" y="673" type="line"/>
      <point x="266" y="671" type="line"/>
      <point x="340" y="876" type="line"/>
    </contour>
  </outline>
  <guideline angle="0" x="0" y="252"/>
</glyph>
<glyph name="plus" format="2">
  <advance width="530"/>
  <unicode hex="002B"/>
  <outline>
    <contour>
      <point x="90" y="231" type="line"/>
      <point x="440" y="231" type="line"/>
      <point x="440" y="249" type="line"/>
      <point x="90" y="249" type="line"/>
    </contour>
    <contour>
      <point x="255" y="65" type="line"/>
      <point x="275" y="65" type="line"/>
      <point x="275" y="415" type="line"/>
      <point x="255" y="415" type="line"/>
    </contour>
  </outline>
</glyph>
<glyph name="comma" format="2">
  <advance width="160"/>
  <unicode hex="002C"/>
  <outline>
    <contour>
      <point x="60" y="-110" type="line"/>
      <point x="70" y="-110" type="line"/>
      <point x="100" y="24" type="line"/>
      <point x="100" y="100" type="line"/>
      <point x="78" y="100" type="line"/>
      <point x="78" y="20" type="line"/>
      <point x="87" y="20" type="line"/>
    </contour>
  </outline>
</glyph>
<glyph name="slash" format="2">
  <advance width="419"/>
  <unicode hex="002F"/>
  <outline>
    <contour>
      <point x="67" y="0" type="line"/>
      <point x="87" y="0" type="line"/>
      <point x="354" y="700" type="line"/>
      <point x="334" y="700" type="line"/>
    </contour>
  </outline>
</glyph>
<glyph name="zero" format="2">
  <advance width="512"/>
  <unicode hex="0030"/>
  <outline>
    <contour>
      <point x="52" y="339" type="curve" smooth="yes"/>
      <point x="52" y="99"/>
      <point x="101" y="-10"/>
      <point x="256" y="-10" type="curve" smooth="yes"/>
      <point x="411" y="-10"/>
      <point x="460" y="98"/>
      <point x="460" y="339" type="curve" smooth="yes"/>
      <point x="460" y="580"/>
      <point x="411" y="688"/>
      <point x="256" y="688" type="curve" smooth="yes"/>
      <point x="101" y="688"/>
      <point x="52" y="579"/>
    </contour>
    <contour>
      <point x="74" y="339" type="curve" smooth="yes"/>
      <point x="74" y="565"/>
      <point x="118" y="668"/>
      <point x="256" y="668" type="curve" smooth="yes"/>
      <point x="392" y="668"/>
      <point x="438" y="561"/>
      <point x="438" y="339" type="curve" smooth="yes"/>
      <point x="438" y="115"/>
      <point x="393" y="10"/>
      <point x="256" y="10" type="curve" smooth="yes"/>
      <point x="119" y="10"/>
      <point x="74" y="116"/>
    </contour>
  </outline>
  <guideline angle="90" x="256" y="0"/>
  <guideline angle="0" x="0" y="339"/>
  <guideline angle="90" x="52" y="0"/>
  <guideline angle="90" x="460" y="0"/>
</glyph>
<glyph name="one" format="2">
  <advance width="239"/>
  <unicode hex="0031"/>
  <outline>
    <contour>
      <point x="10" y="594" type="line"/>
      <point x="62" y="594"/>
      <point x="101" y="615"/>
      <point x="139" y="657" type="curve"/>
      <point x="127" y="653" type="line"/>
      <point x="127" y="0" type="line"/>
      <point x="149" y="0" type="line"/>
      <point x="149" y="680" type="line"/>
      <point x="130" y="680" type="line"/>
      <point x="95" y="637"/>
      <point x="55" y="614"/>
      <point x="10" y="614" type="curve"/>
    </contour>
  </outline>
</glyph>
<glyph name="two" format="2">
  <advance width="430"/>
  <unicode hex="0032"/>
  <outline>
    <contour>
      <point x="51" y="0" type="line"/>
      <point x="410" y="0" type="line"/>
      <point x="410" y="20" type="line"/>
      <point x="72" y="20" type="line"/>
      <point x="75" y="13" type="line"/>
      <point x="209" y="162"/>
      <point x="405" y="300"/>
      <point x="405" y="499" type="curve" smooth="yes"/>
      <point x="405" y="614"/>
      <point x="332" y="688"/>
      <point x="220" y="688" type="curve" smooth="yes"/>
      <point x="102" y="688"/>
      <point x="30" y="601"/>
      <point x="30" y="457" type="curve"/>
      <point x="50" y="457" type="line"/>
      <point x="50" y="583"/>
      <point x="119" y="668"/>
      <point x="221" y="668" type="curve" smooth="yes"/>
      <point x="320" y="668"/>
      <point x="385" y="594"/>
      <point x="385" y="499" type="curve" smooth="yes"/>
      <point x="385" y="322"/>
      <point x="196" y="179"/>
      <point x="51" y="21" type="curve"/>
    </contour>
  </outline>
  <guideline angle="90" x="30" y="0"/>
</glyph>
<glyph name="three" format="2">
  <advance width="460"/>
  <unicode hex="0033"/>
  <outline>
    <contour>
      <point x="30" y="148" type="line"/>
      <point x="45" y="51"/>
      <point x="117" y="-10"/>
      <point x="214" y="-10" type="curve" smooth="yes"/>
      <point x="339" y="-10"/>
      <point x="410" y="64"/>
      <point x="410" y="172" type="curve" smooth="yes"/>
      <point x="410" y="277"/>
      <point x="351" y="353"/>
      <point x="255" y="365" type="curve"/>
      <point x="280" y="355" type="line"/>
      <point x="357" y="380"/>
      <point x="399" y="434"/>
      <point x="399" y="514" type="curve" smooth="yes"/>
      <point x="399" y="619"/>
      <point x="328" y="688"/>
      <point x="221" y="688" type="curve" smooth="yes"/>
      <point x="116" y="688"/>
      <point x="51" y="631"/>
      <point x="42" y="531" type="curve"/>
      <point x="64" y="531" type="line"/>
      <point x="72" y="618"/>
      <point x="130" y="668"/>
      <point x="221" y="668" type="curve" smooth="yes"/>
      <point x="315" y="668"/>
      <point x="377" y="606"/>
      <point x="377" y="512" type="curve" smooth="yes"/>
      <point x="377" y="426"/>
      <point x="305" y="366"/>
      <point x="219" y="366" type="curve" smooth="yes"/>
      <point x="166" y="366" type="line"/>
      <point x="166" y="344" type="line"/>
      <point x="238" y="344" type="line" smooth="yes"/>
      <point x="322" y="344"/>
      <point x="388" y="272"/>
      <point x="388" y="174" type="curve" smooth="yes"/>
      <point x="388" y="74"/>
      <point x="325" y="10"/>
      <point x="214" y="10" type="curve" smooth="yes"/>
      <point x="128" y="10"/>
      <point x="65" y="63"/>
      <point x="52" y="148" type="curve"/>
    </contour>
  </outline>
</glyph>
<glyph name="four" format="2">
  <advance width="431"/>
  <unicode hex="0034"/>
  <outline>
    <contour>
      <point x="30" y="154" type="line"/>
      <point x="401" y="154" type="line"/>
      <point x="401" y="174" type="line"/>
      <point x="42" y="174" type="line"/>
      <point x="46" y="158" type="line"/>
      <point x="340" y="669" type="line"/>
      <point x="321" y="669" type="line"/>
      <point x="321" y="0" type="line"/>
      <point x="343" y="0" type="line"/>
      <point x="343" y="680" type="line"/>
      <point x="321" y="680" type="line"/>
      <point x="30" y="175" type="line"/>
    </contour>
  </outline>
</glyph>
<glyph name="five" format="2">
  <advance width="450"/>
  <unicode hex="0035"/>
  <outline>
    <contour>
      <point x="30" y="118" type="line"/>
      <point x="52" y="41"/>
      <point x="122" y="-10"/>
      <point x="214" y="-10" type="curve" smooth="yes"/>
      <point x="326" y="-10"/>
      <point x="410" y="84"/>
      <point x="410" y="221" type="curve" smooth="yes"/>
      <point x="410" y="359"/>
      <point x="333" y="443"/>
      <point x="210" y="443" type="curve" smooth="yes"/>
      <point x="148" y="443"/>
      <point x="98" y="422"/>
      <point x="71" y="382" type="curve"/>
      <point x="85" y="373" type="line"/>
      <point x="85" y="673" type="line"/>
      <point x="70" y="658" type="line"/>
      <point x="384" y="658" type="line"/>
      <point x="384" y="680" type="line"/>
      <point x="63" y="680" type="line"/>
      <point x="63" y="365" type="line"/>
      <point x="81" y="365" type="line"/>
      <point x="102" y="399"/>
      <point x="149" y="423"/>
      <point x="203" y="423" type="curve" smooth="yes"/>
      <point x="316" y="423"/>
      <point x="388" y="345"/>
      <point x="388" y="221" type="curve" smooth="yes"/>
      <point x="388" y="96"/>
      <point x="312" y="10"/>
      <point x="214" y="10" type="curve" smooth="yes"/>
      <point x="133" y="10"/>
      <point x="72" y="53"/>
      <point x="55" y="118" type="curve"/>
    </contour>
  </outline>
</glyph>
<glyph name="six" format="2">
  <advance width="472"/>
  <unicode hex="0036"/>
  <outline>
    <contour>
      <point x="77" y="224" type="curve" smooth="yes"/>
      <point x="77" y="338"/>
      <point x="140" y="411"/>
      <point x="237" y="411" type="curve" smooth="yes"/>
      <point x="341" y="411"/>
      <point x="410" y="328"/>
      <point x="410" y="202" type="curve" smooth="yes"/>
      <point x="410" y="86"/>
      <point x="339" y="10"/>
      <point x="246" y="10" type="curve" smooth="yes"/>
      <point x="139" y="10"/>
      <point x="77" y="95"/>
    </contour>
    <contour>
      <point x="52" y="237" type="curve" smooth="yes"/>
      <point x="52" y="89"/>
      <point x="124" y="-10"/>
      <point x="246" y="-10" type="curve" smooth="yes"/>
      <point x="353" y="-10"/>
      <point x="432" y="74"/>
      <point x="432" y="201" type="curve" smooth="yes"/>
      <point x="432" y="350"/>
      <point x="346" y="431"/>
      <point x="232" y="431" type="curve" smooth="yes"/>
      <point x="165" y="431"/>
      <point x="113" y="399"/>
      <point x="84" y="340" type="curve"/>
      <point x="81" y="340" type="line"/>
      <point x="81" y="558"/>
      <point x="137" y="668"/>
      <point x="249" y="668" type="curve" smooth="yes"/>
      <point x="317" y="668"/>
      <point x="372" y="625"/>
      <point x="388" y="561" type="curve"/>
      <point x="410" y="561" type="line"/>
      <point x="386" y="645"/>
      <point x="332" y="688"/>
      <point x="249" y="688" type="curve" smooth="yes"/>
      <point x="107" y="688"/>
      <point x="52" y="563"/>
    </contour>
  </outline>
</glyph>
<glyph name="seven" format="2">
  <advance width="560"/>
  <unicode hex="0037"/>
  <outline>
    <contour>
      <point x="50" y="680" type="line"/>
      <point x="476" y="680" type="line"/>
      <point x="476" y="700" type="line"/>
      <point x="50" y="700" type="line"/>
    </contour>
    <contour>
      <point x="214" y="0" type="curve"/>
      <point x="236" y="0" type="line"/>
      <point x="236" y="379"/>
      <point x="382" y="565"/>
      <point x="476" y="679" type="curve"/>
      <point x="476" y="690" type="line"/>
      <point x="456" y="690" type="line"/>
      <point x="291" y="494"/>
      <point x="214" y="289"/>
    </contour>
  </outline>
</glyph>
<glyph name="eight" format="2">
  <advance width="500"/>
  <unicode hex="0038"/>
  <outline>
    <contour>
      <point x="50" y="185" type="curve" smooth="yes"/>
      <point x="50" y="70"/>
      <point x="130" y="-10"/>
      <point x="250" y="-10" type="curve" smooth="yes"/>
      <point x="371" y="-10"/>
      <point x="450" y="70"/>
      <point x="450" y="186" type="curve" smooth="yes"/>
      <point x="450" y="271"/>
      <point x="394" y="344"/>
      <point x="298" y="374" type="curve"/>
      <point x="300" y="366" type="line"/>
      <point x="370" y="373"/>
      <point x="427" y="443"/>
      <point x="427" y="520" type="curve" smooth="yes"/>
      <point x="427" y="628"/>
      <point x="362" y="688"/>
      <point x="249" y="688" type="curve" smooth="yes"/>
      <point x="142" y="688"/>
      <point x="70" y="621"/>
      <point x="70" y="521" type="curve" smooth="yes"/>
      <point x="70" y="446"/>
      <point x="117" y="383"/>
      <point x="186" y="363" type="curve"/>
      <point x="187" y="374" type="line"/>
      <point x="101" y="347"/>
      <point x="50" y="273"/>
    </contour>
    <contour>
      <point x="72" y="186" type="curve" smooth="yes"/>
      <point x="72" y="283"/>
      <point x="146" y="356"/>
      <point x="250" y="356" type="curve" smooth="yes"/>
      <point x="350" y="356"/>
      <point x="428" y="279"/>
      <point x="428" y="186" type="curve" smooth="yes"/>
      <point x="428" y="84"/>
      <point x="357" y="10"/>
      <point x="250" y="10" type="curve" smooth="yes"/>
      <point x="143" y="10"/>
      <point x="72" y="83"/>
    </contour>
    <contour>
      <point x="92" y="521" type="curve" smooth="yes"/>
      <point x="92" y="608"/>
      <point x="157" y="668"/>
      <point x="249" y="668" type="curve" smooth="yes"/>
      <point x="348" y="668"/>
      <point x="405" y="616"/>
      <point x="405" y="521" type="curve" smooth="yes"/>
      <point x="405" y="442"/>
      <point x="335" y="376"/>
      <point x="253" y="376" type="curve" smooth="yes"/>
      <point x="156" y="376"/>
      <point x="92" y="434"/>
    </contour>
  </outline>
</glyph>
<glyph name="nine" format="2">
  <advance width="528"/>
  <unicode hex="0039"/>
  <outline>
    <contour>
      <point x="58" y="470" type="curve" smooth="yes"/>
      <point x="58" y="598"/>
      <point x="143" y="690"/>
      <point x="263" y="690" type="curve" smooth="yes"/>
      <point x="407" y="690"/>
      <point x="464" y="581"/>
      <point x="464" y="449" type="curve" smooth="yes"/>
      <point x="464" y="342"/>
      <point x="367" y="267"/>
      <point x="251" y="267" type="curve" smooth="yes"/>
      <point x="146" y="267"/>
      <point x="58" y="359"/>
    </contour>
    <contour>
      <point x="58" y="127" type="curve"/>
      <point x="91" y="35"/>
      <point x="156" y="-10"/>
      <point x="259" y="-10" type="curve" smooth="yes"/>
      <point x="417" y="-10"/>
      <point x="489" y="119"/>
      <point x="489" y="400" type="curve" smooth="yes"/>
      <point x="489" y="615"/>
      <point x="419" y="710"/>
      <point x="259" y="710" type="curve" smooth="yes"/>
      <point x="127" y="710"/>
      <point x="36" y="607"/>
      <point x="36" y="477" type="curve" smooth="yes"/>
      <point x="36" y="339"/>
      <point x="132" y="247"/>
      <point x="250" y="247" type="curve" smooth="yes"/>
      <point x="339" y="247"/>
      <point x="427" y="295"/>
      <point x="459" y="359" type="curve"/>
      <point x="462" y="359" type="line"/>
      <point x="456" y="228"/>
      <point x="439" y="10"/>
      <point x="261" y="10" type="curve" smooth="yes"/>
      <point x="175" y="10"/>
      <point x="108" y="54"/>
      <point x="81" y="128" type="curve"/>
      <point x="74" y="127"/>
      <point x="64" y="127"/>
    </contour>
  </outline>
</glyph>
<glyph name="semicolon" format="2">
  <advance width="160"/>
  <unicode hex="003B"/>
  <outline>
    <contour>
      <point x="60" y="-110" type="line"/>
      <point x="70" y="-110" type="line"/>
      <point x="100" y="24" type="line"/>
      <point x="100" y="100" type="line"/>
      <point x="78" y="100" type="line"/>
      <point x="78" y="20" type="line"/>
      <point x="87" y="20" type="line"/>
    </contour>
    <contour>
      <point x="71" y="370" type="line"/>
      <point x="91" y="370" type="line"/>
      <point x="91" y="450" type="line"/>
      <point x="71" y="450" type="line"/>
    </contour>
  </outline>
</glyph>
<glyph name="less" format="2">
  <advance width="514"/>
  <unicode hex="003C"/>
  <outline>
    <contour>
      <point x="60" y="315" type="line"/>
      <point x="466" y="125" type="line"/>
      <point x="466" y="145" type="line"/>
      <point x="71" y="341" type="line"/>
      <point x="71" y="331" type="line"/>
      <point x="466" y="525" type="line"/>
      <point x="466" y="545" type="line"/>
      <point x="60" y="355" type="line"/>
    </contour>
  </outline>
</glyph>
<glyph name="greater" format="2">
  <advance width="514"/>
  <unicode hex="003E"/>
  <outline>
    <contour>
      <point x="60" y="125" type="line"/>
      <point x="466" y="315" type="line"/>
      <point x="466" y="355" type="line"/>
      <point x="60" y="545" type="line"/>
      <point x="60" y="525" type="line"/>
      <point x="455" y="331" type="line"/>
      <point x="455" y="341" type="line"/>
      <point x="60" y="145" type="line"/>
    </contour>
  </outline>
</glyph>
<glyph name="question" format="2">
  <advance width="422"/>
  <unicode hex="003F"/>
  <outline>
    <contour>
      <point x="40" y="510" type="curve"/>
      <point x="60" y="510" type="line"/>
      <point x="60" y="619.2"/>
      <point x="123.038" y="692"/>
      <point x="217.595" y="692" type="curve" smooth="yes"/>
      <point x="304.238" y="692"/>
      <point x="362" y="627.6"/>
      <point x="362" y="531" type="curve" smooth="yes"/>
      <point x="362" y="353"/>
      <point x="180" y="318"/>
      <point x="180" y="170" type="curve" smooth="yes"/>
      <point x="180" y="130" type="line"/>
      <point x="200" y="130" type="line"/>
      <point x="200" y="170" type="line" smooth="yes"/>
      <point x="200" y="315"/>
      <point x="382" y="336"/>
      <point x="382" y="533" type="curve" smooth="yes"/>
      <point x="382" y="639.2"/>
      <point x="316.193" y="710"/>
      <point x="217.483" y="710" type="curve" smooth="yes"/>
      <point x="110.993" y="710"/>
      <point x="40" y="630"/>
    </contour>
    <contour>
      <point x="180" y="0" type="line"/>
      <point x="200" y="0" type="line"/>
      <point x="200" y="80" type="line"/>
      <point x="180" y="80" type="line"/>
    </contour>
  </outline>
</glyph>
<glyph name="at" format="2">
  <advance width="504"/>
  <unicode hex="0040"/>
  <outline>
    <contour>
      <point x="166.19" y="178.24" type="curve" smooth="yes"/>
      <point x="166.19" y="295.08"/>
      <point x="203.63" y="375"/>
      <point x="256.79" y="375" type="curve" smooth="yes"/>
      <point x="282.14" y="375"/>
      <point x="302.93" y="348.48"/>
      <point x="308.27" y="306.88" type="curve"/>
      <point x="282" y="154.34" type="line" smooth="yes"/>
      <point x="275.02" y="113.93"/>
      <point x="246.08" y="81.84"/>
      <point x="221.48" y="81.84" type="curve" smooth="yes"/>
      <point x="189.03" y="81.84"/>
      <point x="166.19" y="121.61"/>
    </contour>
    <contour>
      <point x="60.4" y="232" type="curve" smooth="yes"/>
      <point x="60.4" y="55.6"/>
      <point x="134.995" y="-62"/>
      <point x="238.895" y="-62" type="curve" smooth="yes"/>
      <point x="271.192" y="-62"/>
      <point x="308.02" y="-50"/>
      <point x="342.6" y="-20" type="curve"/>
      <point x="342.6" y="0" type="line"/>
      <point x="307.8" y="-30"/>
      <point x="273.216" y="-42"/>
      <point x="240.858" y="-42" type="curve" smooth="yes"/>
      <point x="148.8" y="-42"/>
      <point x="80.4" y="68"/>
      <point x="80.4" y="233" type="curve" smooth="yes"/>
      <point x="80.4" y="395.089"/>
      <point x="156.023" y="524"/>
      <point x="259.949" y="524" type="curve" smooth="yes"/>
      <point x="353.28" y="524"/>
      <point x="423.6" y="428.8"/>
      <point x="423.6" y="286" type="curve" smooth="yes"/>
      <point x="423.6" y="162.4"/>
      <point x="386.875" y="82"/>
      <point x="333.53" y="82" type="curve" smooth="yes"/>
      <point x="314.353" y="82"/>
      <point x="300.626" y="100"/>
      <point x="300.626" y="131.013" type="curve" smooth="yes"/>
      <point x="300.626" y="145.013"/>
      <point x="304.495" y="170.972"/>
      <point x="310.4" y="203" type="curve" smooth="yes"/>
      <point x="341.576" y="372.105" type="line"/>
      <point x="327.572" y="372.105" type="line"/>
      <point x="312.683" y="326.604" type="line"/>
      <point x="315.702" y="328" type="line"/>
      <point x="309.434" y="367"/>
      <point x="283.126" y="393"/>
      <point x="249.931" y="393" type="curve" smooth="yes"/>
      <point x="189.777" y="393"/>
      <point x="146.2" y="306.628"/>
      <point x="146.2" y="177.071" type="curve" smooth="yes"/>
      <point x="146.2" y="109.141"/>
      <point x="173.631" y="63.8542"/>
      <point x="214.778" y="63.8542" type="curve" smooth="yes"/>
      <point x="243.764" y="63.8542"/>
      <point x="285.01" y="92.2179"/>
      <point x="294.6" y="148.854" type="curve"/>
      <point x="287.328" y="151.2" type="line"/>
      <point x="284.976" y="142.8"/>
      <point x="283.8" y="134.4"/>
      <point x="283.8" y="126" type="curve" smooth="yes"/>
      <point x="283.8" y="88.8"/>
      <point x="303.507" y="64"/>
      <point x="333.066" y="64" type="curve" smooth="yes"/>
      <point x="399.387" y="64"/>
      <point x="443.6" y="153.2"/>
      <point x="443.6" y="287" type="curve" smooth="yes"/>
      <point x="443.6" y="441.2"/>
      <point x="365.958" y="544"/>
      <point x="263.267" y="544" type="curve" smooth="yes"/>
      <point x="144.217" y="544"/>
      <point x="60.4" y="405.706"/>
    </contour>
  </outline>
</glyph>
<glyph name="A" format="2">
  <advance width="362"/>
  <unicode hex="0041"/>
  <anchor x="181" y="740" name="top"/>
  <anchor x="181" y="663" name="t.ring"/>
  <anchor x="181" y="-40" name="bottom"/>
  <anchor x="346" y="0" name="b.ogonek"/>
  <outline>
    <contour>
      <point x="79" y="250" type="line"/>
      <point x="280" y="250" type="line"/>
      <point x="280" y="270" type="line"/>
      <point x="79" y="270" type="line"/>
    </contour>
    <contour>
      <point x="10" y="0" type="line"/>
      <point x="33" y="0" type="line"/>
      <point x="165" y="547" type="line"/>
      <point x="187" y="648" type="line"/>
      <point x="176" y="648" type="line"/>
      <point x="198" y="547" type="line"/>
      <point x="329" y="0" type="line"/>
      <point x="352" y="0" type="line"/>
      <point x="188" y="680" type="line"/>
      <point x="175" y="680" type="line"/>
    </contour>
  </outline>
  <guideline angle="90" x="181" y="0"/>
  <guideline angle="76.4206" x="8" y="0"/>
  <guideline angle="256.507" x="186" y="672"/>
  <guideline angle="103.493" x="337" y="0"/>
  <guideline angle="283.579" x="189" y="680"/>
</glyph>
<glyph name="B" format="2">
  <advance width="498"/>
  <unicode hex="0042"/>
  <anchor x="240" y="-40" name="bottom"/>
  <anchor x="240" y="740" name="top"/>
  <outline>
    <contour>
      <point x="100" y="0" type="line"/>
      <point x="122" y="0" type="line"/>
      <point x="122" y="680" type="line"/>
      <point x="100" y="680" type="line"/>
    </contour>
    <contour>
      <point x="109" y="0" type="line"/>
      <point x="251" y="0" type="line" smooth="yes"/>
      <point x="370" y="0"/>
      <point x="418" y="54"/>
      <point x="418" y="187" type="curve" smooth="yes"/>
      <point x="418" y="304"/>
      <point x="383" y="362"/>
      <point x="305" y="376" type="curve"/>
      <point x="310" y="363" type="line"/>
      <point x="379" y="380"/>
      <point x="412" y="427"/>
      <point x="412" y="507" type="curve" smooth="yes"/>
      <point x="412" y="622"/>
      <point x="364" y="680"/>
      <point x="271" y="680" type="curve" smooth="yes"/>
      <point x="109" y="680" type="line"/>
      <point x="109" y="660" type="line"/>
      <point x="273" y="660" type="line" smooth="yes"/>
      <point x="351" y="660"/>
      <point x="390" y="609"/>
      <point x="390" y="507" type="curve" smooth="yes"/>
      <point x="390" y="428"/>
      <point x="349" y="380"/>
      <point x="282" y="380" type="curve" smooth="yes"/>
      <point x="109" y="380" type="line"/>
      <point x="109" y="360" type="line"/>
      <point x="265" y="360" type="line" smooth="yes"/>
      <point x="351" y="360"/>
      <point x="396" y="301"/>
      <point x="396" y="187" type="curve" smooth="yes"/>
      <point x="396" y="67"/>
      <point x="355" y="20"/>
      <point x="251" y="20" type="curve" smooth="yes"/>
      <point x="109" y="20" type="line"/>
    </contour>
  </outline>
  <guideline angle="0" x="0" y="20"/>
  <guideline angle="0" x="0" y="660"/>
  <guideline angle="0" x="0" y="380"/>
  <guideline angle="0" x="0" y="360"/>
  <guideline angle="0" x="0" y="127"/>
  <guideline angle="0" x="0" y="536"/>
  <guideline angle="90" x="240" y="0"/>
</glyph>
<glyph name="C" format="2">
  <advance width="562"/>
  <unicode hex="0043"/>
  <anchor x="285" y="740" name="top"/>
  <anchor x="285" y="-60" name="bottom"/>
  <anchor x="276" y="0" name="b.cedilla"/>
  <outline>
    <contour>
      <point x="80" y="340" type="curve" smooth="yes"/>
      <point x="80" y="121"/>
      <point x="151" y="-8"/>
      <point x="285" y="-8" type="curve" smooth="yes"/>
      <point x="396" y="-8"/>
      <point x="451" y="70"/>
      <point x="470" y="184" type="curve"/>
      <point x="450" y="184" type="line"/>
      <point x="431" y="75"/>
      <point x="373" y="12"/>
      <point x="285" y="12" type="curve" smooth="yes"/>
      <point x="162" y="12"/>
      <point x="102" y="131"/>
      <point x="102" y="340" type="curve" smooth="yes"/>
      <point x="102" y="549"/>
      <point x="162" y="668"/>
      <point x="285" y="668" type="curve" smooth="yes"/>
      <point x="379" y="668"/>
      <point x="439" y="587"/>
      <point x="462" y="452" type="curve"/>
      <point x="482" y="452" type="line"/>
      <point x="458" y="604"/>
      <point x="399" y="688"/>
      <point x="285" y="688" type="curve" smooth="yes"/>
      <point x="151" y="688"/>
      <point x="80" y="559"/>
    </contour>
  </outline>
  <guideline angle="90" name="h_1" x="285" y="0"/>
</glyph>
<glyph name="D" format="2">
  <advance width="503"/>
  <unicode hex="0044"/>
  <anchor x="241" y="740" name="top"/>
  <anchor x="241" y="-50" name="bottom"/>
  <anchor x="221" y="0" name="b.cedilla"/>
  <outline>
    <contour>
      <point x="100" y="0" type="line"/>
      <point x="122" y="0" type="line"/>
      <point x="122" y="680" type="line"/>
      <point x="100" y="680" type="line"/>
    </contour>
    <contour>
      <point x="107" y="0" type="line"/>
      <point x="244" y="0" type="line" smooth="yes"/>
      <point x="388" y="0"/>
      <point x="443" y="146"/>
      <point x="443" y="340" type="curve" smooth="yes"/>
      <point x="443" y="534"/>
      <point x="388" y="680"/>
      <point x="244" y="680" type="curve" smooth="yes"/>
      <point x="107" y="680" type="line"/>
      <point x="107" y="660" type="line"/>
      <point x="249" y="660" type="line" smooth="yes"/>
      <point x="370" y="660"/>
      <point x="421" y="523"/>
      <point x="421" y="340" type="curve" smooth="yes"/>
      <point x="421" y="157"/>
      <point x="368" y="20"/>
      <point x="249" y="20" type="curve" smooth="yes"/>
      <point x="107" y="20" type="line"/>
    </contour>
  </outline>
  <guideline angle="90" name="h_1" x="241" y="0"/>
</glyph>
<glyph name="E" format="2">
  <advance width="433"/>
  <unicode hex="0045"/>
  <anchor x="230" y="740" name="top"/>
  <anchor x="230" y="-40" name="bottom"/>
  <anchor x="230" y="0" name="b.cedilla"/>
  <anchor x="353" y="-0" name="b.ogonek"/>
  <outline>
    <contour>
      <point x="100" y="0" type="line"/>
      <point x="122" y="0" type="line"/>
      <point x="122" y="680" type="line"/>
      <point x="100" y="680" type="line"/>
    </contour>
    <contour>
      <point x="113" y="660" type="line"/>
      <point x="353" y="660" type="line"/>
      <point x="353" y="680" type="line"/>
      <point x="113" y="680" type="line"/>
    </contour>
    <contour>
      <point x="113" y="340" type="line"/>
      <point x="323" y="340" type="line"/>
      <point x="323" y="360" type="line"/>
      <point x="113" y="360" type="line"/>
    </contour>
    <contour>
      <point x="113" y="0" type="line"/>
      <point x="353" y="0" type="line"/>
      <point x="353" y="20" type="line"/>
      <point x="113" y="20" type="line"/>
    </contour>
  </outline>
  <guideline angle="90" name="h_1" x="230" y="0"/>
</glyph>
<glyph name="F" format="2">
  <advance width="423"/>
  <unicode hex="0046"/>
  <anchor x="230" y="740" name="top"/>
  <anchor x="230" y="-40" name="bottom"/>
  <outline>
    <contour>
      <point x="100" y="0" type="line"/>
      <point x="122" y="0" type="line"/>
      <point x="122" y="680" type="line"/>
      <point x="100" y="680" type="line"/>
    </contour>
    <contour>
      <point x="109" y="660" type="line"/>
      <point x="353" y="660" type="line"/>
      <point x="353" y="680" type="line"/>
      <point x="109" y="680" type="line"/>
    </contour>
    <contour>
      <point x="109" y="340" type="line"/>
      <point x="323" y="340" type="line"/>
      <point x="323" y="360" type="line"/>
      <point x="109" y="360" type="line"/>
    </contour>
  </outline>
  <guideline angle="90" name="h_1" x="230" y="0"/>
</glyph>
<glyph name="G" format="2">
  <advance width="496"/>
  <unicode hex="0047"/>
  <anchor x="247" y="740" name="top"/>
  <anchor x="247" y="-40" name="bottom"/>
  <outline>
    <contour>
      <point x="60" y="352" type="curve" smooth="yes"/>
      <point x="60" y="128"/>
      <point x="140" y="-8"/>
      <point x="270" y="-8" type="curve" smooth="yes"/>
      <point x="345" y="-8"/>
      <point x="409" y="38"/>
      <point x="442" y="110" type="curve"/>
      <point x="435" y="112" type="line"/>
      <point x="438" y="0" type="line"/>
      <point x="456" y="0" type="line"/>
      <point x="456" y="300" type="line"/>
      <point x="279" y="300" type="line"/>
      <point x="279" y="280" type="line"/>
      <point x="434" y="280" type="line"/>
      <point x="434" y="130" type="line"/>
      <point x="446" y="130" type="line"/>
      <point x="446" y="157" type="line"/>
      <point x="437" y="157" type="line"/>
      <point x="415" y="71"/>
      <point x="348" y="12"/>
      <point x="270" y="12" type="curve" smooth="yes"/>
      <point x="154" y="12"/>
      <point x="82" y="142"/>
      <point x="82" y="350" type="curve" smooth="yes"/>
      <point x="82" y="546"/>
      <point x="146" y="668"/>
      <point x="262" y="668" type="curve" smooth="yes"/>
      <point x="352" y="668"/>
      <point x="409" y="595"/>
      <point x="432" y="460" type="curve"/>
      <point x="452" y="460" type="line"/>
      <point x="429" y="612"/>
      <point x="364" y="688"/>
      <point x="262" y="688" type="curve" smooth="yes"/>
      <point x="133" y="688"/>
      <point x="60" y="565"/>
    </contour>
  </outline>
  <guideline angle="90" name="h_1" x="247" y="0"/>
</glyph>
<glyph name="H" format="2">
  <advance width="560"/>
  <unicode hex="0048"/>
  <anchor x="280" y="740" name="top"/>
  <anchor x="280" y="-40" name="bottom"/>
  <anchor x="443" y="0" name="b.cedilla"/>
  <outline>
    <contour>
      <point x="100" y="0" type="line"/>
      <point x="122" y="0" type="line"/>
      <point x="122" y="680" type="line"/>
      <point x="100" y="680" type="line"/>
    </contour>
    <contour>
      <point x="114" y="352" type="line"/>
      <point x="444" y="352" type="line"/>
      <point x="444" y="372" type="line"/>
      <point x="114" y="372" type="line"/>
    </contour>
    <contour>
      <point x="438" y="0" type="line"/>
      <point x="460" y="0" type="line"/>
      <point x="460" y="680" type="line"/>
      <point x="438" y="680" type="line"/>
    </contour>
  </outline>
  <guideline angle="90" name="h_1" x="280" y="0"/>
  <guideline angle="90" x="72" y="0"/>
  <guideline angle="90" x="488" y="0"/>
  <guideline angle="90" x="100" y="0"/>
  <guideline angle="90" x="460" y="0"/>
</glyph>
<glyph name="I" format="2">
  <advance width="242"/>
  <unicode hex="0049"/>
  <anchor x="121" y="740" name="top"/>
  <anchor x="121" y="-40" name="bottom"/>
  <outline>
    <contour>
      <point x="110" y="0" type="line"/>
      <point x="132" y="0" type="line"/>
      <point x="132" y="680" type="line"/>
      <point x="110" y="680" type="line"/>
    </contour>
  </outline>
  <guideline angle="90" x="121" y="0"/>
</glyph>
<glyph name="J" format="2">
  <advance width="233"/>
  <unicode hex="004A"/>
  <anchor x="127" y="740" name="top"/>
  <outline>
    <contour>
      <point x="38" y="0" type="line"/>
      <point x="65" y="0" type="line" smooth="yes"/>
      <point x="110" y="0"/>
      <point x="133" y="60"/>
      <point x="133" y="164" type="curve" smooth="yes"/>
      <point x="133" y="680" type="line"/>
      <point x="111" y="680" type="line"/>
      <point x="111" y="150" type="line" smooth="yes"/>
      <point x="111" y="86"/>
      <point x="91" y="20"/>
      <point x="66" y="20" type="curve" smooth="yes"/>
      <point x="38" y="20" type="line"/>
    </contour>
  </outline>
</glyph>
<glyph name="K" format="2">
  <advance width="409"/>
  <unicode hex="004B"/>
  <anchor x="248" y="-40" name="bottom"/>
  <anchor x="221" y="740" name="top"/>
  <outline>
    <contour>
      <point x="100" y="0" type="line"/>
      <point x="122" y="0" type="line"/>
      <point x="122" y="680" type="line"/>
      <point x="100" y="680" type="line"/>
    </contour>
    <contour>
      <point x="112" y="246" type="line"/>
      <point x="375" y="680" type="line"/>
      <point x="349" y="680" type="line"/>
      <point x="112" y="288" type="line"/>
    </contour>
    <contour>
      <point x="178" y="380" type="line"/>
      <point x="374" y="0" type="line"/>
      <point x="399" y="0" type="line"/>
      <point x="191" y="403" type="line"/>
    </contour>
  </outline>
  <guideline angle="0" x="0" y="350"/>
  <guideline angle="59.4308" x="140" y="294"/>
  <guideline angle="297.216" x="218" y="350"/>
  <guideline angle="117.315" x="378" y="0"/>
  <guideline angle="90" name="h_1" x="221" y="0"/>
</glyph>
<glyph name="M" format="2">
  <advance width="601"/>
  <unicode hex="004D"/>
  <anchor x="301" y="740" name="top"/>
  <anchor x="301" y="-40" name="bottom"/>
  <outline>
    <contour>
      <point x="100" y="0" type="line"/>
      <point x="122" y="0" type="line"/>
      <point x="122" y="680" type="line"/>
      <point x="100" y="680" type="line"/>
    </contour>
    <contour>
      <point x="103" y="680" type="line"/>
      <point x="284" y="0" type="line"/>
      <point x="303" y="0" type="line"/>
      <point x="303" y="5"/>
      <point x="303" y="9"/>
      <point x="295" y="40" type="curve" smooth="yes"/>
      <point x="123" y="680" type="line"/>
    </contour>
    <contour>
      <point x="298" y="0" type="curve"/>
      <point x="317" y="0" type="line"/>
      <point x="498" y="680" type="line"/>
      <point x="478" y="680" type="line"/>
      <point x="306" y="40" type="line" smooth="yes"/>
      <point x="298" y="9"/>
      <point x="298" y="5"/>
    </contour>
    <contour>
      <point x="479" y="0" type="line"/>
      <point x="501" y="0" type="line"/>
      <point x="501" y="680" type="line"/>
      <point x="479" y="680" type="line"/>
    </contour>
  </outline>
  <guideline angle="90" name="h_1" x="301" y="0"/>
  <guideline angle="0" x="0" y="335"/>
</glyph>
<glyph name="N" format="2">
  <advance width="506"/>
  <unicode hex="004E"/>
  <anchor x="247" y="740" name="top"/>
  <anchor x="247" y="-40" name="bottom"/>
  <outline>
    <contour>
      <point x="100" y="0" type="line"/>
      <point x="122" y="0" type="line"/>
      <point x="122" y="580" type="line" smooth="yes"/>
      <point x="122" y="601"/>
      <point x="122" y="615"/>
      <point x="119" y="647" type="curve"/>
      <point x="115" y="640" type="line"/>
      <point x="384" y="0" type="line"/>
      <point x="406" y="0" type="line"/>
      <point x="406" y="680" type="line"/>
      <point x="384" y="680" type="line"/>
      <point x="384" y="100" type="line" smooth="yes"/>
      <point x="384" y="79"/>
      <point x="386" y="52"/>
      <point x="389" y="20" type="curve"/>
      <point x="397" y="20" type="line"/>
      <point x="122" y="680" type="line"/>
      <point x="100" y="680" type="line"/>
    </contour>
  </outline>
  <guideline angle="90" x="247" y="0"/>
  <guideline angle="293.581" x="114" y="680"/>
  <guideline angle="293.581" x="95" y="680"/>
</glyph>
<glyph name="O" format="2">
  <advance width="536"/>
  <unicode hex="004F"/>
  <anchor x="268" y="740" name="top"/>
  <anchor x="268" y="-40" name="bottom"/>
  <anchor x="318" y="0" name="b.ogonek"/>
  <outline>
    <contour>
      <point x="60" y="340" type="curve" smooth="yes"/>
      <point x="60" y="121"/>
      <point x="126" y="-8"/>
      <point x="268" y="-8" type="curve" smooth="yes"/>
      <point x="410" y="-8"/>
      <point x="476" y="121"/>
      <point x="476" y="340" type="curve" smooth="yes"/>
      <point x="476" y="559"/>
      <point x="410" y="688"/>
      <point x="268" y="688" type="curve" smooth="yes"/>
      <point x="126" y="688"/>
      <point x="60" y="559"/>
    </contour>
    <contour>
      <point x="82" y="340" type="curve" smooth="yes"/>
      <point x="82" y="549"/>
      <point x="145" y="668"/>
      <point x="268" y="668" type="curve" smooth="yes"/>
      <point x="391" y="668"/>
      <point x="454" y="549"/>
      <point x="454" y="340" type="curve" smooth="yes"/>
      <point x="454" y="131"/>
      <point x="391" y="12"/>
      <point x="268" y="12" type="curve" smooth="yes"/>
      <point x="145" y="12"/>
      <point x="82" y="131"/>
    </contour>
  </outline>
  <guideline angle="0" x="0" y="740"/>
  <guideline angle="90" x="268" y="0"/>
  <guideline angle="90" x="60" y="0"/>
  <guideline angle="90" x="476" y="0"/>
  <guideline angle="0" x="0" y="340"/>
</glyph>
<glyph name="P" format="2">
  <advance width="456"/>
  <unicode hex="0050"/>
  <anchor x="210" y="-40" name="bottom"/>
  <anchor x="210" y="740" name="top"/>
  <outline>
    <contour>
      <point x="100" y="0" type="line"/>
      <point x="122" y="0" type="line"/>
      <point x="122" y="680" type="line"/>
      <point x="100" y="680" type="line"/>
    </contour>
    <contour>
      <point x="117" y="280" type="line"/>
      <point x="230" y="280" type="line" smooth="yes"/>
      <point x="337" y="280"/>
      <point x="396" y="353"/>
      <point x="396" y="487" type="curve" smooth="yes"/>
      <point x="396" y="618"/>
      <point x="343" y="680"/>
      <point x="230" y="680" type="curve" smooth="yes"/>
      <point x="117" y="680" type="line"/>
      <point x="117" y="660" type="line"/>
      <point x="238" y="660" type="line" smooth="yes"/>
      <point x="329" y="660"/>
      <point x="374" y="603"/>
      <point x="374" y="487" type="curve" smooth="yes"/>
      <point x="374" y="369"/>
      <point x="324" y="300"/>
      <point x="238" y="300" type="curve" smooth="yes"/>
      <point x="117" y="300" type="line"/>
    </contour>
  </outline>
  <guideline angle="90" name="h_1" x="210" y="0"/>
</glyph>
<glyph name="Q" format="2">
  <advance width="571"/>
  <unicode hex="0051"/>
  <outline>
    <contour>
      <point x="80" y="340" type="curve" smooth="yes"/>
      <point x="80" y="121"/>
      <point x="144" y="-8"/>
      <point x="286" y="-8" type="curve" smooth="yes"/>
      <point x="428" y="-8"/>
      <point x="491" y="121"/>
      <point x="491" y="340" type="curve" smooth="yes"/>
      <point x="491" y="559"/>
      <point x="428" y="688"/>
      <point x="286" y="688" type="curve" smooth="yes"/>
      <point x="144" y="688"/>
      <point x="80" y="559"/>
    </contour>
    <contour>
      <point x="102" y="340" type="curve" smooth="yes"/>
      <point x="102" y="549"/>
      <point x="163" y="668"/>
      <point x="286" y="668" type="curve" smooth="yes"/>
      <point x="409" y="668"/>
      <point x="469" y="549"/>
      <point x="469" y="340" type="curve" smooth="yes"/>
      <point x="469" y="131"/>
      <point x="409" y="12"/>
      <point x="286" y="12" type="curve" smooth="yes"/>
      <point x="163" y="12"/>
      <point x="102" y="131"/>
    </contour>
    <contour>
      <point x="335" y="5" type="line"/>
      <point x="398" y="-79" type="line"/>
      <point x="412" y="-61" type="line"/>
      <point x="353" y="16" type="line"/>
    </contour>
    <contour>
      <point x="293" y="62" type="line"/>
      <point x="333" y="7" type="line"/>
      <point x="351" y="18" type="line"/>
      <point x="306" y="80" type="line"/>
    </contour>
  </outline>
  <guideline angle="126.87" x="416" y="-59"/>
  <guideline angle="306.87" x="334" y="23"/>
  <guideline angle="90" x="273" y="0"/>
</glyph>
<glyph name="R" format="2">
  <advance width="453"/>
  <unicode hex="0052"/>
  <anchor x="210" y="740" name="top"/>
  <anchor x="210" y="-40" name="bottom"/>
  <outline>
    <contour>
      <point x="230" y="292" type="line"/>
      <point x="371" y="0" type="line"/>
      <point x="396" y="0" type="line"/>
      <point x="254" y="292" type="line"/>
    </contour>
    <contour>
      <point x="100" y="0" type="line"/>
      <point x="122" y="0" type="line"/>
      <point x="122" y="680" type="line"/>
      <point x="100" y="680" type="line"/>
    </contour>
    <contour>
      <point x="113" y="280" type="line"/>
      <point x="230" y="280" type="line" smooth="yes"/>
      <point x="339" y="280"/>
      <point x="396" y="351"/>
      <point x="396" y="487" type="curve" smooth="yes"/>
      <point x="396" y="617"/>
      <point x="342" y="680"/>
      <point x="230" y="680" type="curve" smooth="yes"/>
      <point x="113" y="680" type="line"/>
      <point x="113" y="660" type="line"/>
      <point x="238" y="660" type="line" smooth="yes"/>
      <point x="328" y="660"/>
      <point x="374" y="601"/>
      <point x="374" y="487" type="curve" smooth="yes"/>
      <point x="374" y="365"/>
      <point x="326" y="300"/>
      <point x="238" y="300" type="curve" smooth="yes"/>
      <point x="113" y="300" type="line"/>
    </contour>
  </outline>
  <guideline angle="90" name="h_1" x="210" y="0"/>
</glyph>
<glyph name="S" format="2">
  <advance width="472"/>
  <unicode hex="0053"/>
  <anchor x="229" y="740" name="top"/>
  <anchor x="229" y="-40" name="bottom"/>
  <anchor x="241" y="0" name="b.cedilla"/>
  <outline>
    <contour>
      <point x="60" y="190" type="line"/>
      <point x="60" y="68"/>
      <point x="131" y="-8"/>
      <point x="244" y="-8" type="curve" smooth="yes"/>
      <point x="344" y="-8"/>
      <point x="412" y="65"/>
      <point x="412" y="174" type="curve" smooth="yes"/>
      <point x="412" y="248"/>
      <point x="375" y="300"/>
      <point x="298" y="334" type="curve" smooth="yes"/>
      <point x="191" y="382" type="line" smooth="yes"/>
      <point x="142" y="404"/>
      <point x="94" y="458"/>
      <point x="94" y="529" type="curve" smooth="yes"/>
      <point x="94" y="609"/>
      <point x="146" y="668"/>
      <point x="229" y="668" type="curve" smooth="yes"/>
      <point x="328" y="668"/>
      <point x="388" y="612"/>
      <point x="388" y="520" type="curve"/>
      <point x="408" y="520" type="line"/>
      <point x="408" y="628"/>
      <point x="345" y="688"/>
      <point x="229" y="688" type="curve" smooth="yes"/>
      <point x="131" y="688"/>
      <point x="72" y="621"/>
      <point x="72" y="529" type="curve" smooth="yes"/>
      <point x="72" y="455"/>
      <point x="114" y="396"/>
      <point x="175" y="368" type="curve" smooth="yes"/>
      <point x="277" y="321" type="line" smooth="yes"/>
      <point x="353" y="286"/>
      <point x="390" y="239"/>
      <point x="390" y="177" type="curve" smooth="yes"/>
      <point x="390" y="76"/>
      <point x="333" y="12"/>
      <point x="244" y="12" type="curve" smooth="yes"/>
      <point x="145" y="12"/>
      <point x="80" y="83"/>
      <point x="80" y="190" type="curve"/>
    </contour>
  </outline>
  <guideline angle="90" name="h_1" x="229" y="0"/>
</glyph>
<glyph name="T" format="2">
  <advance width="402"/>
  <unicode hex="0054"/>
  <anchor x="200" y="740" name="top"/>
  <anchor x="200" y="-50" name="bottom"/>
  <outline>
    <contour>
      <point x="20" y="660" type="line"/>
      <point x="382" y="660" type="line"/>
      <point x="382" y="680" type="line"/>
      <point x="20" y="680" type="line"/>
    </contour>
    <contour>
      <point x="190" y="0" type="line"/>
      <point x="212" y="0" type="line"/>
      <point x="212" y="680" type="line"/>
      <point x="190" y="680" type="line"/>
    </contour>
  </outline>
  <guideline angle="90" name="h_1" x="200" y="0"/>
  <guideline angle="0" x="0" y="660"/>
</glyph>
<glyph name="U" format="2">
  <advance width="550"/>
  <unicode hex="0055"/>
  <anchor x="274" y="740" name="top"/>
  <anchor x="274" y="-40" name="bottom"/>
  <anchor x="271" y="10" name="b.ogonek"/>
  <anchor x="274" y="740" name="t.ring"/>
  <outline>
    <contour>
      <point x="90" y="210" type="line" smooth="yes"/>
      <point x="90" y="81"/>
      <point x="159" y="-8"/>
      <point x="274" y="-8" type="curve" smooth="yes"/>
      <point x="394" y="-8"/>
      <point x="460" y="77"/>
      <point x="460" y="210" type="curve" smooth="yes"/>
      <point x="460" y="680" type="line"/>
      <point x="438" y="680" type="line"/>
      <point x="438" y="220" type="line" smooth="yes"/>
      <point x="438" y="91"/>
      <point x="384" y="12"/>
      <point x="274" y="12" type="curve" smooth="yes"/>
      <point x="170" y="12"/>
      <point x="112" y="95"/>
      <point x="112" y="220" type="curve" smooth="yes"/>
      <point x="112" y="680" type="line"/>
      <point x="90" y="680" type="line"/>
    </contour>
  </outline>
  <guideline angle="0" x="0" y="240"/>
  <guideline angle="90" name="h_1" x="274" y="0"/>
</glyph>
<glyph name="V" format="2">
  <advance width="436"/>
  <unicode hex="0056"/>
  <anchor x="218" y="-40" name="bottom"/>
  <anchor x="218" y="740" name="top"/>
  <outline>
    <contour>
      <point x="20" y="680" type="line"/>
      <point x="206" y="0" type="line"/>
      <point x="230" y="0" type="line"/>
      <point x="416" y="680" type="line"/>
      <point x="393" y="680" type="line"/>
      <point x="228" y="80" type="line"/>
      <point x="225" y="71"/>
      <point x="219" y="27"/>
      <point x="219" y="20" type="curve"/>
      <point x="233" y="30" type="line"/>
      <point x="203" y="30" type="line"/>
      <point x="217" y="20" type="line"/>
      <point x="217" y="27"/>
      <point x="211" y="71"/>
      <point x="208" y="80" type="curve"/>
      <point x="43" y="680" type="line"/>
    </contour>
  </outline>
  <guideline angle="90" name="h_1" x="218" y="0"/>
  <guideline angle="0" x="0" y="335"/>
  <guideline angle="0" x="0" y="80"/>
  <guideline angle="90" x="43" y="0"/>
  <guideline angle="90" x="393" y="0"/>
  <guideline angle="90" x="228" y="0"/>
  <guideline angle="90" x="208" y="0"/>
</glyph>
<glyph name="W" format="2">
  <advance width="701"/>
  <unicode hex="0057"/>
  <anchor x="351" y="740" name="top"/>
  <anchor x="351" y="-40" name="bottom"/>
  <outline>
    <contour>
      <point x="20" y="680" type="line"/>
      <point x="185" y="0" type="line"/>
      <point x="192" y="0" type="line"/>
      <point x="192" y="9"/>
      <point x="192" y="58"/>
      <point x="187" y="80" type="curve" smooth="yes"/>
      <point x="43" y="680" type="line"/>
    </contour>
    <contour>
      <point x="190" y="0" type="curve"/>
      <point x="197" y="0" type="line"/>
      <point x="362" y="680" type="line"/>
      <point x="339" y="680" type="line"/>
      <point x="195" y="80" type="line" smooth="yes"/>
      <point x="190" y="57"/>
      <point x="190" y="9"/>
    </contour>
    <contour>
      <point x="339" y="680" type="line"/>
      <point x="504" y="0" type="line"/>
      <point x="511" y="0" type="line"/>
      <point x="511" y="9"/>
      <point x="511" y="58"/>
      <point x="506" y="80" type="curve" smooth="yes"/>
      <point x="362" y="680" type="line"/>
    </contour>
    <contour>
      <point x="509" y="0" type="curve"/>
      <point x="516" y="0" type="line"/>
      <point x="681" y="680" type="line"/>
      <point x="658" y="680" type="line"/>
      <point x="514" y="80" type="line" smooth="yes"/>
      <point x="509" y="57"/>
      <point x="509" y="9"/>
    </contour>
  </outline>
  <guideline angle="90" name="h_1" x="351" y="0"/>
</glyph>
<glyph name="X" format="2">
  <advance width="395"/>
  <unicode hex="0058"/>
  <anchor x="199" y="740" name="top"/>
  <anchor x="199" y="-40" name="bottom"/>
  <outline>
    <contour>
      <point x="184" y="353" type="line"/>
      <point x="190" y="343" type="line"/>
      <point x="341" y="0" type="line"/>
      <point x="365" y="0" type="line"/>
      <point x="207" y="362" type="line"/>
      <point x="200" y="372" type="line"/>
      <point x="66" y="680" type="line"/>
      <point x="42" y="680" type="line"/>
    </contour>
    <contour>
      <point x="30" y="0" type="line"/>
      <point x="54" y="0" type="line"/>
      <point x="202" y="335" type="line"/>
      <point x="188" y="362" type="line"/>
    </contour>
    <contour>
      <point x="195" y="368" type="line"/>
      <point x="209" y="344" type="line"/>
      <point x="357" y="680" type="line"/>
      <point x="333" y="680" type="line"/>
    </contour>
  </outline>
  <guideline angle="113.753" x="369" y="0"/>
  <guideline angle="66.2237" x="328" y="680"/>
  <guideline angle="66.2237" x="49" y="0"/>
  <guideline angle="90" name="h_1" x="199" y="0"/>
</glyph>
<glyph name="Y" format="2">
  <advance width="464"/>
  <unicode hex="0059"/>
  <anchor x="232" y="740" name="top"/>
  <anchor x="232" y="-40" name="bottom"/>
  <outline>
    <contour>
      <point x="221" y="0" type="line"/>
      <point x="243" y="0" type="line"/>
      <point x="243" y="310" type="line"/>
      <point x="407" y="680" type="line"/>
      <point x="383" y="680" type="line"/>
      <point x="229" y="328" type="line"/>
      <point x="235" y="328" type="line"/>
      <point x="81" y="680" type="line"/>
      <point x="57" y="680" type="line"/>
      <point x="221" y="310" type="line"/>
    </contour>
  </outline>
  <guideline angle="90" x="232" y="0"/>
  <guideline angle="0" x="0" y="680"/>
</glyph>
<glyph name="Z" format="2">
  <advance width="401"/>
  <unicode hex="005A"/>
  <anchor x="170" y="740" name="top"/>
  <anchor x="170" y="-40" name="bottom"/>
  <outline>
    <contour>
      <point x="7" y="0" type="line"/>
      <point x="348" y="0" type="line"/>
      <point x="348" y="20" type="line"/>
      <point x="23" y="20" type="line"/>
      <point x="26" y="10" type="line"/>
      <point x="344" y="658" type="line"/>
      <point x="344" y="680" type="line"/>
      <point x="15" y="680" type="line"/>
      <point x="15" y="660" type="line"/>
      <point x="329" y="660" type="line"/>
      <point x="327" y="673" type="line"/>
      <point x="7" y="22" type="line"/>
    </contour>
  </outline>
  <guideline angle="65.2351" x="46.5" y="80"/>
  <guideline angle="65.2351" x="64.5" y="80"/>
  <guideline angle="90" name="h_1" x="170" y="0"/>
</glyph>
<glyph name="bracketright" format="2">
  <advance width="360"/>
  <unicode hex="005D"/>
  <outline>
    <contour>
      <point x="70" y="-81" type="line"/>
      <point x="290" y="-81" type="line"/>
      <point x="290" y="780" type="line"/>
      <point x="70" y="780" type="line"/>
      <point x="70" y="762" type="line"/>
      <point x="270" y="762" type="line"/>
      <point x="270" y="-63" type="line"/>
      <point x="70" y="-63" type="line"/>
    </contour>
  </outline>
</glyph>
<glyph name="grave" format="2">
  <advance width="218"/>
  <unicode hex="0060"/>
  <outline>
    <contour>
      <point x="60" y="700" type="line"/>
      <point x="143" y="540" type="line"/>
      <point x="158" y="540" type="line"/>
      <point x="81" y="700" type="line"/>
    </contour>
  </outline>
  <guideline angle="0" x="0" y="700"/>
</glyph>
<glyph name="a" format="2">
  <advance width="423"/>
  <unicode hex="0061"/>
  <anchor x="199" y="530" name="top"/>
  <anchor x="199" y="-40" name="bottom"/>
  <anchor x="199" y="530" name="t.ring"/>
  <outline>
    <contour>
      <point x="74" y="340" type="curve"/>
      <point x="94" y="340" type="line"/>
      <point x="102" y="406"/>
      <point x="150" y="450"/>
      <point x="210" y="450" type="curve" smooth="yes"/>
      <point x="278" y="450"/>
      <point x="313" y="415"/>
      <point x="313" y="348" type="curve" smooth="yes"/>
      <point x="313" y="61" type="line"/>
      <point x="319" y="0" type="line"/>
      <point x="333" y="0" type="line"/>
      <point x="333" y="357" type="line" smooth="yes"/>
      <point x="333" y="423"/>
      <point x="288" y="468"/>
      <point x="214" y="468" type="curve" smooth="yes"/>
      <point x="140" y="468"/>
      <point x="84" y="421"/>
    </contour>
    <contour>
      <point x="60" y="110" type="curve" smooth="yes"/>
      <point x="60" y="36"/>
      <point x="105" y="-8"/>
      <point x="174" y="-8" type="curve" smooth="yes"/>
      <point x="227" y="-8"/>
      <point x="278" y="17"/>
      <point x="325" y="64" type="curve"/>
      <point x="325" y="91" type="line"/>
      <point x="278" y="35"/>
      <point x="216" y="10"/>
      <point x="176" y="10" type="curve" smooth="yes"/>
      <point x="125" y="10"/>
      <point x="80" y="41"/>
      <point x="80" y="108" type="curve" smooth="yes"/>
      <point x="80" y="182"/>
      <point x="155" y="228"/>
      <point x="220" y="246" type="curve" smooth="yes"/>
      <point x="325" y="275" type="line"/>
      <point x="325" y="291" type="line"/>
      <point x="222" y="264" type="line" smooth="yes"/>
      <point x="132" y="240"/>
      <point x="60" y="191"/>
    </contour>
  </outline>
  <guideline angle="90" name="h_1" x="199" y="0"/>
</glyph>
<glyph name="b" format="2">
  <advance width="441"/>
  <unicode hex="0062"/>
  <anchor x="224" y="740" name="top"/>
  <anchor x="224" y="-40" name="bottom"/>
  <outline>
    <contour>
      <point x="90" y="0" type="line"/>
      <point x="100" y="0" type="line"/>
      <point x="107" y="90" type="line"/>
      <point x="107" y="363" type="line"/>
      <point x="109" y="368"/>
      <point x="110" y="373"/>
      <point x="110" y="383" type="curve" smooth="yes"/>
      <point x="110" y="700" type="line"/>
      <point x="90" y="700" type="line"/>
    </contour>
    <contour>
      <point x="98" y="90" type="line"/>
      <point x="109" y="90" type="line"/>
      <point x="130" y="32"/>
      <point x="170" y="-8"/>
      <point x="234" y="-8" type="curve" smooth="yes"/>
      <point x="330" y="-8"/>
      <point x="381" y="89"/>
      <point x="381" y="235" type="curve" smooth="yes"/>
      <point x="381" y="375"/>
      <point x="329" y="468"/>
      <point x="234" y="468" type="curve" smooth="yes"/>
      <point x="181" y="468"/>
      <point x="132" y="426"/>
      <point x="110" y="363" type="curve"/>
      <point x="98" y="363" type="line"/>
    </contour>
    <contour>
      <point x="107" y="215" type="curve" smooth="yes"/>
      <point x="107" y="245" type="line" smooth="yes"/>
      <point x="107" y="367"/>
      <point x="160" y="450"/>
      <point x="234" y="450" type="curve" smooth="yes"/>
      <point x="310" y="450"/>
      <point x="359" y="364"/>
      <point x="359" y="235" type="curve" smooth="yes"/>
      <point x="359" y="99"/>
      <point x="311" y="10"/>
      <point x="234" y="10" type="curve" smooth="yes"/>
      <point x="160" y="10"/>
      <point x="107" y="93"/>
    </contour>
  </outline>
  <guideline angle="90" name="h_1" x="224" y="0"/>
  <guideline angle="0" x="0" y="330"/>
  <guideline angle="90" x="396" y="0"/>
  <guideline angle="0" x="0" y="230"/>
</glyph>
<glyph name="c" format="2">
  <advance width="418"/>
  <unicode hex="0063"/>
  <anchor x="216" y="530" name="top"/>
  <anchor x="216" y="-40" name="bottom"/>
  <anchor x="208" y="0" name="b.cedilla"/>
  <outline>
    <contour>
      <point x="60" y="230" type="curve" smooth="yes"/>
      <point x="60" y="67"/>
      <point x="108" y="-8"/>
      <point x="211" y="-8" type="curve" smooth="yes"/>
      <point x="295" y="-8"/>
      <point x="333" y="33"/>
      <point x="358" y="152" type="curve"/>
      <point x="338" y="152" type="line"/>
      <point x="316" y="48"/>
      <point x="282" y="10"/>
      <point x="211" y="10" type="curve" smooth="yes"/>
      <point x="123" y="10"/>
      <point x="80" y="83"/>
      <point x="80" y="230" type="curve" smooth="yes"/>
      <point x="80" y="373"/>
      <point x="126" y="450"/>
      <point x="211" y="450" type="curve" smooth="yes"/>
      <point x="280" y="450"/>
      <point x="323" y="405"/>
      <point x="338" y="318" type="curve"/>
      <point x="358" y="318" type="line"/>
      <point x="339" y="421"/>
      <point x="293" y="468"/>
      <point x="211" y="468" type="curve" smooth="yes"/>
      <point x="110" y="468"/>
      <point x="60" y="388"/>
    </contour>
  </outline>
  <guideline angle="90" name="h_1" x="216" y="0"/>
</glyph>
<glyph name="d" format="2">
  <advance width="441"/>
  <unicode hex="0064"/>
  <anchor x="195" y="740" name="top"/>
  <anchor x="195" y="-50" name="bottom"/>
  <anchor x="192" y="0" name="b.cedilla"/>
  <anchor x="411" y="700" name="t.quoteright"/>
  <outline>
    <contour>
      <point x="60" y="235" type="curve" smooth="yes"/>
      <point x="60" y="89"/>
      <point x="111" y="-8"/>
      <point x="207" y="-8" type="curve" smooth="yes"/>
      <point x="271" y="-8"/>
      <point x="311" y="32"/>
      <point x="332" y="90" type="curve"/>
      <point x="336" y="90" type="line"/>
      <point x="336" y="363" type="line"/>
      <point x="331" y="363" type="line"/>
      <point x="309" y="426"/>
      <point x="260" y="468"/>
      <point x="207" y="468" type="curve" smooth="yes"/>
      <point x="112" y="468"/>
      <point x="60" y="375"/>
    </contour>
    <contour>
      <point x="82" y="235" type="curve" smooth="yes"/>
      <point x="82" y="364"/>
      <point x="131" y="450"/>
      <point x="207" y="450" type="curve" smooth="yes"/>
      <point x="281" y="450"/>
      <point x="334" y="367"/>
      <point x="334" y="245" type="curve" smooth="yes"/>
      <point x="334" y="215" type="line" smooth="yes"/>
      <point x="334" y="93"/>
      <point x="281" y="10"/>
      <point x="207" y="10" type="curve" smooth="yes"/>
      <point x="130" y="10"/>
      <point x="82" y="99"/>
    </contour>
    <contour>
      <point x="334" y="90" type="line"/>
      <point x="337" y="0" type="line"/>
      <point x="351" y="0" type="line"/>
      <point x="351" y="700" type="line"/>
      <point x="331" y="700" type="line"/>
      <point x="331" y="383" type="line" smooth="yes"/>
      <point x="331" y="373"/>
      <point x="332" y="368"/>
      <point x="334" y="363" type="curve"/>
    </contour>
  </outline>
  <guideline angle="90" name="h_1" x="195" y="0"/>
</glyph>
<glyph name="e" format="2">
  <advance width="428"/>
  <unicode hex="0065"/>
  <anchor x="213" y="530" name="top"/>
  <anchor x="213" y="-40" name="bottom"/>
  <anchor x="232" y="0" name="b.ogonek"/>
  <anchor x="213" y="0" name="b.cedilla"/>
  <outline>
    <contour>
      <point x="60" y="240" type="curve" smooth="yes"/>
      <point x="60" y="66"/>
      <point x="109" y="-8"/>
      <point x="222" y="-8" type="curve" smooth="yes"/>
      <point x="300" y="-8"/>
      <point x="351" y="57"/>
      <point x="360" y="142" type="curve"/>
      <point x="341" y="142" type="line"/>
      <point x="332" y="69"/>
      <point x="287" y="10"/>
      <point x="222" y="10" type="curve" smooth="yes"/>
      <point x="122" y="10"/>
      <point x="80" y="78"/>
      <point x="80" y="242" type="curve" smooth="yes"/>
      <point x="80" y="376"/>
      <point x="128" y="450"/>
      <point x="213" y="450" type="curve" smooth="yes"/>
      <point x="298" y="450"/>
      <point x="348" y="377"/>
      <point x="348" y="252" type="curve"/>
      <point x="66" y="252" type="line"/>
      <point x="66" y="234" type="line"/>
      <point x="368" y="234" type="line"/>
      <point x="368" y="244" type="line" smooth="yes"/>
      <point x="368" y="389"/>
      <point x="313" y="468"/>
      <point x="213" y="468" type="curve" smooth="yes"/>
      <point x="113" y="468"/>
      <point x="60" y="389"/>
    </contour>
  </outline>
  <guideline angle="90" name="h_1" x="213" y="0"/>
</glyph>
<glyph name="f" format="2">
  <advance width="215"/>
  <unicode hex="0066"/>
  <anchor x="240" y="-40" name="bottom"/>
  <anchor x="119" y="740" name="top"/>
  <outline>
    <contour>
      <point x="82" y="0" type="line"/>
      <point x="102" y="0" type="line"/>
      <point x="102" y="564" type="line" smooth="yes"/>
      <point x="102" y="634"/>
      <point x="135" y="682"/>
      <point x="181" y="682" type="curve" smooth="yes"/>
      <point x="189" y="682" type="line"/>
      <point x="189" y="700" type="line"/>
      <point x="179" y="700" type="line" smooth="yes"/>
      <point x="122" y="700"/>
      <point x="82" y="645"/>
      <point x="82" y="570" type="curve" smooth="yes"/>
    </contour>
    <contour>
      <point x="26" y="442" type="line"/>
      <point x="177" y="442" type="line"/>
      <point x="177" y="460" type="line"/>
      <point x="26" y="460" type="line"/>
    </contour>
  </outline>
  <guideline angle="90" name="h_1" x="119" y="0"/>
</glyph>
<glyph name="g" format="2">
  <advance width="453"/>
  <unicode hex="0067"/>
  <anchor x="237" y="540" name="top"/>
  <outline>
    <contour>
      <point x="97" y="-96" type="line"/>
      <point x="104" y="-148"/>
      <point x="147" y="-200"/>
      <point x="230" y="-200" type="curve" smooth="yes"/>
      <point x="318" y="-200"/>
      <point x="363" y="-140"/>
      <point x="363" y="-37" type="curve" smooth="yes"/>
      <point x="363" y="-30" type="line"/>
      <point x="343" y="-30" type="line"/>
      <point x="343" y="-37" type="line" smooth="yes"/>
      <point x="343" y="-126"/>
      <point x="304" y="-182"/>
      <point x="230" y="-182" type="curve" smooth="yes"/>
      <point x="175" y="-182"/>
      <point x="126" y="-154"/>
      <point x="117" y="-96" type="curve"/>
    </contour>
    <contour>
      <point x="60" y="235" type="curve" smooth="yes"/>
      <point x="60" y="81"/>
      <point x="109" y="10"/>
      <point x="217" y="10" type="curve" smooth="yes"/>
      <point x="281" y="10"/>
      <point x="329" y="53"/>
      <point x="349" y="130" type="curve"/>
      <point x="352" y="130" type="line"/>
      <point x="352" y="343" type="line"/>
      <point x="348" y="343" type="line"/>
      <point x="334" y="420"/>
      <point x="279" y="468"/>
      <point x="217" y="468" type="curve" smooth="yes"/>
      <point x="114" y="468"/>
      <point x="60" y="387"/>
    </contour>
    <contour>
      <point x="80" y="235" type="curve" smooth="yes"/>
      <point x="80" y="375"/>
      <point x="133" y="450"/>
      <point x="217" y="450" type="curve" smooth="yes"/>
      <point x="291" y="450"/>
      <point x="344" y="367"/>
      <point x="344" y="245" type="curve" smooth="yes"/>
      <point x="344" y="215" type="line" smooth="yes"/>
      <point x="344" y="93"/>
      <point x="291" y="28"/>
      <point x="217" y="28" type="curve" smooth="yes"/>
      <point x="129" y="28"/>
      <point x="80" y="94"/>
    </contour>
    <contour>
      <point x="343" y="-30" type="line"/>
      <point x="363" y="-30" type="line"/>
      <point x="363" y="460" type="line"/>
      <point x="349" y="460" type="line"/>
      <point x="344" y="334" type="line"/>
      <point x="344" y="109" type="line"/>
      <point x="344" y="101"/>
      <point x="343" y="93"/>
      <point x="343" y="85" type="curve" smooth="yes"/>
    </contour>
  </outline>
  <guideline angle="90" name="h_1" x="237" y="0"/>
</glyph>
<glyph name="h" format="2">
  <advance width="440"/>
  <unicode hex="0068"/>
  <anchor x="224" y="-40" name="bottom"/>
  <anchor x="224" y="740" name="top"/>
  <anchor x="333" y="0" name="b.cedilla"/>
  <outline>
    <contour>
      <point x="90" y="0" type="line"/>
      <point x="110" y="0" type="line"/>
      <point x="110" y="700" type="line"/>
      <point x="90" y="700" type="line"/>
    </contour>
    <contour>
      <point x="94" y="301" type="line"/>
      <point x="110" y="301" type="line"/>
      <point x="110" y="377"/>
      <point x="165" y="450"/>
      <point x="232" y="450" type="curve" smooth="yes"/>
      <point x="299" y="450"/>
      <point x="330" y="413"/>
      <point x="330" y="335" type="curve" smooth="yes"/>
      <point x="330" y="0" type="line"/>
      <point x="350" y="0" type="line"/>
      <point x="350" y="335" type="line" smooth="yes"/>
      <point x="350" y="423"/>
      <point x="311" y="468"/>
      <point x="235" y="468" type="curve" smooth="yes"/>
      <point x="170" y="468"/>
      <point x="113" y="417"/>
      <point x="96" y="338" type="curve"/>
      <point x="114" y="338" type="line"/>
      <point x="114" y="385" type="line"/>
      <point x="94" y="385" type="line"/>
    </contour>
  </outline>
  <guideline angle="90" name="h_1" x="224" y="0"/>
</glyph>
<glyph name="k" format="2">
  <advance width="388"/>
  <unicode hex="006B"/>
  <anchor x="230" y="-50" name="bottom"/>
  <anchor x="212" y="740" name="top"/>
  <outline>
    <contour>
      <point x="90" y="0" type="line"/>
      <point x="110" y="0" type="line"/>
      <point x="110" y="700" type="line"/>
      <point x="90" y="700" type="line"/>
    </contour>
    <contour>
      <point x="100" y="167" type="line"/>
      <point x="343" y="460" type="line"/>
      <point x="317" y="460" type="line"/>
      <point x="100" y="199" type="line"/>
    </contour>
    <contour>
      <point x="161" y="256" type="line"/>
      <point x="334" y="0" type="line"/>
      <point x="358" y="0" type="line"/>
      <point x="174" y="272" type="line"/>
    </contour>
  </outline>
  <guideline angle="230.306" x="330" y="460"/>
  <guideline angle="90" x="100" y="0"/>
  <guideline angle="230.259" x="317" y="460"/>
  <guideline angle="124.023" x="358" y="0"/>
  <guideline angle="90" name="h_1" x="212" y="0"/>
</glyph>
<glyph name="m" format="2">
  <advance width="590"/>
  <unicode hex="006D"/>
  <anchor x="295" y="-40" name="bottom"/>
  <anchor x="295" y="530" name="top"/>
  <outline>
    <contour>
      <point x="291" y="304" type="line"/>
      <point x="305" y="304" type="line"/>
      <point x="305" y="395"/>
      <point x="343" y="450"/>
      <point x="397" y="450" type="curve" smooth="yes"/>
      <point x="451" y="450"/>
      <point x="480" y="412"/>
      <point x="480" y="336" type="curve" smooth="yes"/>
      <point x="480" y="0" type="line"/>
      <point x="500" y="0" type="line"/>
      <point x="500" y="337" type="line" smooth="yes"/>
      <point x="500" y="422"/>
      <point x="463" y="468"/>
      <point x="395" y="468" type="curve" smooth="yes"/>
      <point x="342" y="468"/>
      <point x="302" y="424"/>
      <point x="294" y="359" type="curve"/>
      <point x="306" y="359" type="line"/>
      <point x="306" y="397" type="line"/>
      <point x="291" y="397" type="line"/>
    </contour>
    <contour>
      <point x="97" y="296" type="line"/>
      <point x="110" y="296" type="line"/>
      <point x="110" y="383"/>
      <point x="151" y="450"/>
      <point x="205" y="450" type="curve" smooth="yes"/>
      <point x="257" y="450"/>
      <point x="285" y="412"/>
      <point x="285" y="340" type="curve" smooth="yes"/>
      <point x="285" y="0" type="line"/>
      <point x="305" y="0" type="line"/>
      <point x="305" y="340" type="line" smooth="yes"/>
      <point x="305" y="423"/>
      <point x="269" y="468"/>
      <point x="205" y="468" type="curve" smooth="yes"/>
      <point x="152" y="468"/>
      <point x="112" y="424"/>
      <point x="96" y="349" type="curve"/>
      <point x="106" y="349" type="line"/>
      <point x="106" y="374" type="line"/>
      <point x="97" y="374" type="line"/>
    </contour>
    <contour>
      <point x="90" y="0" type="line"/>
      <point x="110" y="0" type="line"/>
      <point x="110" y="398" type="line"/>
      <point x="107" y="398" type="line"/>
      <point x="107" y="460" type="line"/>
      <point x="90" y="460" type="line"/>
    </contour>
  </outline>
  <guideline angle="90" name="h_1" x="295" y="0"/>
</glyph>
<glyph name="n" format="2">
  <advance width="440"/>
  <unicode hex="006E"/>
  <anchor x="222" y="540" name="top"/>
  <anchor x="222" y="-50" name="bottom"/>
  <outline>
    <contour>
      <point x="90" y="0" type="line"/>
      <point x="110" y="0" type="line"/>
      <point x="110" y="380" type="line"/>
      <point x="107" y="380" type="line"/>
      <point x="104" y="460" type="line"/>
      <point x="90" y="460" type="line"/>
    </contour>
    <contour>
      <point x="94" y="301" type="line"/>
      <point x="110" y="301" type="line"/>
      <point x="110" y="377"/>
      <point x="165" y="450"/>
      <point x="232" y="450" type="curve" smooth="yes"/>
      <point x="299" y="450"/>
      <point x="330" y="413"/>
      <point x="330" y="335" type="curve" smooth="yes"/>
      <point x="330" y="0" type="line"/>
      <point x="350" y="0" type="line"/>
      <point x="350" y="335" type="line" smooth="yes"/>
      <point x="350" y="423"/>
      <point x="311" y="468"/>
      <point x="235" y="468" type="curve" smooth="yes"/>
      <point x="170" y="468"/>
      <point x="113" y="417"/>
      <point x="96" y="338" type="curve"/>
      <point x="105" y="338" type="line"/>
      <point x="105" y="341" type="line"/>
      <point x="94" y="341" type="line"/>
    </contour>
  </outline>
  <guideline angle="90" name="h_1" x="222" y="0"/>
</glyph>
<glyph name="o" format="2">
  <advance width="428"/>
  <unicode hex="006F"/>
  <anchor x="214" y="530" name="top"/>
  <anchor x="205" y="-40" name="bottom"/>
  <anchor x="256" y="0" name="b.ogonek"/>
  <outline>
    <contour>
      <point x="60" y="230" type="curve" smooth="yes"/>
      <point x="60" y="85"/>
      <point x="103" y="-8"/>
      <point x="214" y="-8" type="curve" smooth="yes"/>
      <point x="325" y="-8"/>
      <point x="368" y="84"/>
      <point x="368" y="230" type="curve" smooth="yes"/>
      <point x="368" y="375"/>
      <point x="325" y="468"/>
      <point x="214" y="468" type="curve" smooth="yes"/>
      <point x="103" y="468"/>
      <point x="60" y="376"/>
    </contour>
    <contour>
      <point x="80" y="230" type="curve" smooth="yes"/>
      <point x="80" y="362"/>
      <point x="115" y="450"/>
      <point x="214" y="450" type="curve" smooth="yes"/>
      <point x="314" y="450"/>
      <point x="348" y="363"/>
      <point x="348" y="230" type="curve" smooth="yes"/>
      <point x="348" y="98"/>
      <point x="313" y="10"/>
      <point x="214" y="10" type="curve" smooth="yes"/>
      <point x="114" y="10"/>
      <point x="80" y="97"/>
    </contour>
  </outline>
  <guideline angle="90" x="214" y="0"/>
  <guideline angle="0" x="0" y="230"/>
</glyph>
<glyph name="p" format="2">
  <advance width="459"/>
  <unicode hex="0070"/>
  <anchor x="220" y="-40" name="bottom"/>
  <anchor x="220" y="530" name="top"/>
  <outline>
    <contour>
      <point x="90" y="-200" type="line"/>
      <point x="110" y="-200" type="line"/>
      <point x="110" y="99" type="line" smooth="yes"/>
      <point x="110" y="106"/>
      <point x="109" y="113"/>
      <point x="109" y="120" type="curve" smooth="yes"/>
      <point x="109" y="363" type="line"/>
      <point x="104" y="460" type="line"/>
      <point x="90" y="460" type="line"/>
    </contour>
    <contour>
      <point x="100" y="90" type="line"/>
      <point x="111" y="90" type="line"/>
      <point x="131" y="23"/>
      <point x="183" y="-8"/>
      <point x="242" y="-8" type="curve" smooth="yes"/>
      <point x="341" y="-8"/>
      <point x="399" y="83"/>
      <point x="399" y="235" type="curve" smooth="yes"/>
      <point x="399" y="380"/>
      <point x="341" y="468"/>
      <point x="245" y="468" type="curve" smooth="yes"/>
      <point x="178" y="468"/>
      <point x="129" y="425"/>
      <point x="112" y="363" type="curve"/>
      <point x="100" y="363" type="line"/>
    </contour>
    <contour>
      <point x="109" y="220" type="curve" smooth="yes"/>
      <point x="109" y="240" type="line" smooth="yes"/>
      <point x="109" y="389"/>
      <point x="174" y="450"/>
      <point x="244" y="450" type="curve" smooth="yes"/>
      <point x="325" y="450"/>
      <point x="377" y="365"/>
      <point x="377" y="235" type="curve" smooth="yes"/>
      <point x="377" y="98"/>
      <point x="325" y="10"/>
      <point x="237" y="10" type="curve" smooth="yes"/>
      <point x="174" y="10"/>
      <point x="109" y="68"/>
    </contour>
  </outline>
  <guideline angle="90" name="h_1" x="220" y="0"/>
</glyph>
<glyph name="q" format="2">
  <advance width="441"/>
  <unicode hex="0071"/>
  <outline>
    <contour>
      <point x="341" y="500" type="line"/>
      <point x="334" y="410" type="line"/>
      <point x="334" y="137" type="line"/>
      <point x="332" y="132"/>
      <point x="331" y="127"/>
      <point x="331" y="117" type="curve" smooth="yes"/>
      <point x="331" y="-200" type="line"/>
      <point x="351" y="-200" type="line"/>
      <point x="351" y="500" type="line"/>
    </contour>
    <contour>
      <point x="336" y="90" type="line"/>
      <point x="336" y="363" type="line"/>
      <point x="331" y="363" type="line"/>
      <point x="309" y="426"/>
      <point x="260" y="468"/>
      <point x="207" y="468" type="curve" smooth="yes"/>
      <point x="112" y="468"/>
      <point x="60" y="375"/>
      <point x="60" y="235" type="curve" smooth="yes"/>
      <point x="60" y="89"/>
      <point x="111" y="-8"/>
      <point x="207" y="-8" type="curve" smooth="yes"/>
      <point x="271" y="-8"/>
      <point x="311" y="32"/>
      <point x="332" y="90" type="curve"/>
    </contour>
    <contour>
      <point x="334" y="215" type="line" smooth="yes"/>
      <point x="334" y="93"/>
      <point x="281" y="10"/>
      <point x="207" y="10" type="curve" smooth="yes"/>
      <point x="130" y="10"/>
      <point x="82" y="99"/>
      <point x="82" y="235" type="curve" smooth="yes"/>
      <point x="82" y="364"/>
      <point x="131" y="450"/>
      <point x="207" y="450" type="curve" smooth="yes"/>
      <point x="281" y="450"/>
      <point x="334" y="367"/>
      <point x="334" y="245" type="curve" smooth="yes"/>
    </contour>
  </outline>
  <guideline angle="90" x="244" y="0"/>
  <guideline angle="0" x="0" y="231"/>
</glyph>
<glyph name="r" format="2">
  <advance width="293"/>
  <unicode hex="0072"/>
  <anchor x="171" y="-40" name="bottom"/>
  <anchor x="171" y="530" name="top"/>
  <outline>
    <contour>
      <point x="90" y="0" type="line"/>
      <point x="110" y="0" type="line"/>
      <point x="110" y="312" type="line" smooth="yes"/>
      <point x="110" y="401"/>
      <point x="167" y="452"/>
      <point x="221" y="452" type="curve" smooth="yes"/>
      <point x="233" y="452"/>
      <point x="248" y="449"/>
      <point x="258" y="444" type="curve"/>
      <point x="262" y="444" type="line"/>
      <point x="262" y="464" type="line"/>
      <point x="250" y="467"/>
      <point x="232" y="470"/>
      <point x="220" y="470" type="curve" smooth="yes"/>
      <point x="158" y="470"/>
      <point x="114" y="424"/>
      <point x="94" y="342" type="curve"/>
      <point x="109" y="342" type="line"/>
      <point x="107" y="460" type="line"/>
      <point x="90" y="460" type="line"/>
    </contour>
  </outline>
  <guideline angle="90" name="h_1" x="171" y="0"/>
</glyph>
<glyph name="s" format="2">
  <advance width="355"/>
  <unicode hex="0073"/>
  <anchor x="172" y="530" name="top"/>
  <anchor x="172" y="-40" name="bottom"/>
  <anchor x="188" y="0" name="b.cedilla"/>
  <outline>
    <contour>
      <point x="49" y="136" type="line"/>
      <point x="49" y="51"/>
      <point x="97" y="-8"/>
      <point x="179" y="-8" type="curve" smooth="yes"/>
      <point x="254" y="-8"/>
      <point x="299" y="35"/>
      <point x="299" y="110" type="curve" smooth="yes"/>
      <point x="299" y="285"/>
      <point x="69" y="192"/>
      <point x="69" y="343" type="curve" smooth="yes"/>
      <point x="69" y="410"/>
      <point x="115" y="450"/>
      <point x="172" y="450" type="curve" smooth="yes"/>
      <point x="226" y="450"/>
      <point x="272" y="406"/>
      <point x="272" y="336" type="curve"/>
      <point x="292" y="336" type="line"/>
      <point x="292" y="417"/>
      <point x="245" y="468"/>
      <point x="172" y="468" type="curve" smooth="yes"/>
      <point x="97" y="468"/>
      <point x="49" y="421"/>
      <point x="49" y="345" type="curve" smooth="yes"/>
      <point x="49" y="174"/>
      <point x="279" y="264"/>
      <point x="279" y="113" type="curve" smooth="yes"/>
      <point x="279" y="46"/>
      <point x="234" y="10"/>
      <point x="175" y="10" type="curve" smooth="yes"/>
      <point x="116" y="10"/>
      <point x="69" y="61"/>
      <point x="69" y="136" type="curve"/>
    </contour>
  </outline>
  <guideline angle="90" name="h_1" x="172" y="0"/>
</glyph>
<glyph name="t" format="2">
  <advance width="230"/>
  <unicode hex="0074"/>
  <anchor x="150" y="-40" name="bottom"/>
  <anchor x="91" y="660" name="top"/>
  <anchor x="225" y="700" name="t.quoteright"/>
  <outline>
    <contour>
      <point x="22" y="442" type="line"/>
      <point x="190" y="442" type="line"/>
      <point x="190" y="460" type="line"/>
      <point x="89" y="460" type="line"/>
      <point x="22" y="453" type="line"/>
    </contour>
    <contour>
      <point x="79" y="90" type="line" smooth="yes"/>
      <point x="79" y="23"/>
      <point x="109" y="-10"/>
      <point x="170" y="-10" type="curve" smooth="yes"/>
      <point x="186" y="-10" type="line"/>
      <point x="186" y="8" type="line"/>
      <point x="170" y="8" type="line" smooth="yes"/>
      <point x="123" y="8"/>
      <point x="99" y="36"/>
      <point x="99" y="90" type="curve" smooth="yes"/>
      <point x="99" y="609" type="line"/>
      <point x="88" y="609" type="line"/>
      <point x="82" y="457" type="line"/>
      <point x="79" y="457" type="line"/>
    </contour>
  </outline>
  <guideline angle="90" name="h_1" x="153" y="0"/>
</glyph>
<glyph name="u" format="2">
  <advance width="439"/>
  <unicode hex="0075"/>
  <anchor x="219" y="540" name="top"/>
  <anchor x="219" y="-40" name="bottom"/>
  <anchor x="219" y="540" name="t.ring"/>
  <outline>
    <contour>
      <point x="90" y="145" type="line" smooth="yes"/>
      <point x="90" y="52"/>
      <point x="138" y="-8"/>
      <point x="213" y="-8" type="curve" smooth="yes"/>
      <point x="272" y="-8"/>
      <point x="323" y="27"/>
      <point x="342" y="79" type="curve"/>
      <point x="335" y="79" type="line"/>
      <point x="335" y="73" type="line"/>
      <point x="344" y="73" type="line"/>
      <point x="344" y="112" type="line"/>
      <point x="329" y="112" type="line"/>
      <point x="329" y="53"/>
      <point x="271" y="10"/>
      <point x="213" y="10" type="curve" smooth="yes"/>
      <point x="151" y="10"/>
      <point x="110" y="63"/>
      <point x="110" y="145" type="curve" smooth="yes"/>
      <point x="110" y="460" type="line"/>
      <point x="90" y="460" type="line"/>
    </contour>
    <contour>
      <point x="329" y="72" type="line"/>
      <point x="331" y="72" type="line"/>
      <point x="335" y="0" type="line"/>
      <point x="349" y="0" type="line"/>
      <point x="349" y="460" type="line"/>
      <point x="329" y="460" type="line"/>
    </contour>
  </outline>
  <guideline angle="90" name="h_1" x="219" y="0"/>
</glyph>
<glyph name="v" format="2">
  <advance width="350"/>
  <unicode hex="0076"/>
  <anchor x="175" y="530" name="top"/>
  <anchor x="175" y="-40" name="bottom"/>
  <outline>
    <contour>
      <point x="163" y="0" type="line"/>
      <point x="187" y="0" type="line"/>
      <point x="316" y="460" type="line"/>
      <point x="295" y="460" type="line"/>
      <point x="169" y="12" type="line"/>
      <point x="181" y="12" type="line"/>
      <point x="55" y="460" type="line"/>
      <point x="34" y="460" type="line"/>
    </contour>
  </outline>
  <guideline angle="90" name="h_1" x="175" y="0"/>
</glyph>
<glyph name="w" format="2">
  <advance width="539"/>
  <unicode hex="0077"/>
  <anchor x="267" y="-40" name="bottom"/>
  <anchor x="267" y="530" name="top"/>
  <outline>
    <contour>
      <point x="148" y="0" type="line"/>
      <point x="168" y="0" type="line"/>
      <point x="259" y="390" type="line" smooth="yes"/>
      <point x="263" y="407"/>
      <point x="266" y="424"/>
      <point x="267" y="440" type="curve"/>
      <point x="263" y="434" type="line"/>
      <point x="271" y="434" type="line"/>
      <point x="267" y="440" type="line"/>
      <point x="268" y="424"/>
      <point x="271" y="407"/>
      <point x="275" y="390" type="curve" smooth="yes"/>
      <point x="371" y="0" type="line"/>
      <point x="391" y="0" type="line"/>
      <point x="505" y="460" type="line"/>
      <point x="485" y="460" type="line"/>
      <point x="389" y="70" type="line" smooth="yes"/>
      <point x="385" y="54"/>
      <point x="382" y="37"/>
      <point x="381" y="20" type="curve"/>
      <point x="387" y="25" type="line"/>
      <point x="375" y="25" type="line"/>
      <point x="381" y="20" type="line"/>
      <point x="380" y="37"/>
      <point x="377" y="54"/>
      <point x="373" y="70" type="curve" smooth="yes"/>
      <point x="277" y="460" type="line"/>
      <point x="257" y="460" type="line"/>
      <point x="166" y="70" type="line" smooth="yes"/>
      <point x="162" y="54"/>
      <point x="159" y="37"/>
      <point x="158" y="20" type="curve"/>
      <point x="164" y="25" type="line"/>
      <point x="152" y="25" type="line"/>
      <point x="158" y="20" type="line"/>
      <point x="157" y="37"/>
      <point x="154" y="54"/>
      <point x="150" y="70" type="curve" smooth="yes"/>
      <point x="54" y="460" type="line"/>
      <point x="34" y="460" type="line"/>
    </contour>
  </outline>
  <guideline angle="0" x="0" y="20"/>
  <guideline angle="90" x="158" y="0"/>
  <guideline angle="90" x="381" y="0"/>
  <guideline angle="90" name="h_1" x="267" y="0"/>
  <guideline angle="0" x="0" y="25"/>
  <guideline angle="0" x="0" y="440"/>
  <guideline angle="0" x="0" y="434"/>
  <guideline angle="0" x="0" y="70"/>
  <guideline angle="0" x="0" y="460"/>
  <guideline angle="0" x="0" y="390"/>
</glyph>
<glyph name="x" format="2">
  <advance width="314"/>
  <unicode hex="0078"/>
  <anchor x="157" y="-40" name="bottom"/>
  <anchor x="157" y="530" name="top"/>
  <outline>
    <contour>
      <point x="30" y="0" type="line"/>
      <point x="52" y="0" type="line"/>
      <point x="156" y="228" type="line"/>
      <point x="166" y="236" type="line"/>
      <point x="271" y="460" type="line"/>
      <point x="249" y="460" type="line"/>
      <point x="150" y="248" type="line"/>
      <point x="143" y="242" type="line"/>
    </contour>
    <contour>
      <point x="43" y="460" type="line"/>
      <point x="148" y="234" type="line"/>
      <point x="156" y="228" type="line"/>
      <point x="262" y="0" type="line"/>
      <point x="284" y="0" type="line"/>
      <point x="171" y="242" type="line"/>
      <point x="164" y="248" type="line"/>
      <point x="65" y="460" type="line"/>
    </contour>
  </outline>
  <guideline angle="0" x="0" y="248"/>
  <guideline angle="0" x="0" y="228"/>
  <guideline angle="90" name="h_1" x="157" y="0"/>
</glyph>
<glyph name="y" format="2">
  <advance width="359"/>
  <unicode hex="0079"/>
  <anchor x="179" y="540" name="top"/>
  <anchor x="271" y="-50" name="bottom"/>
  <outline>
    <contour>
      <point x="77" y="-200" type="line"/>
      <point x="98" y="-200" type="line" smooth="yes"/>
      <point x="136" y="-200"/>
      <point x="167" y="-167"/>
      <point x="181" y="-110" type="curve" smooth="yes"/>
      <point x="325" y="460" type="line"/>
      <point x="304" y="460" type="line"/>
      <point x="180" y="-35" type="line"/>
      <point x="177" y="-54" type="line"/>
      <point x="160" y="-117" type="line" smooth="yes"/>
      <point x="149" y="-159"/>
      <point x="125" y="-182"/>
      <point x="96" y="-182" type="curve" smooth="yes"/>
      <point x="77" y="-182" type="line"/>
    </contour>
    <contour>
      <point x="34" y="460" type="line"/>
      <point x="180" y="-82" type="line"/>
      <point x="190" y="-41" type="line"/>
      <point x="55" y="460" type="line"/>
    </contour>
  </outline>
</glyph>
<glyph name="z" format="2">
  <advance width="353"/>
  <unicode hex="007A"/>
  <anchor x="178" y="530" name="top"/>
  <anchor x="178" y="-40" name="bottom"/>
  <outline>
    <contour>
      <point x="45" y="0" type="line"/>
      <point x="309" y="0" type="line"/>
      <point x="309" y="18" type="line"/>
      <point x="55" y="18" type="line"/>
      <point x="64" y="7" type="line"/>
      <point x="309" y="445" type="line"/>
      <point x="309" y="460" type="line"/>
      <point x="45" y="460" type="line"/>
      <point x="45" y="442" type="line"/>
      <point x="301" y="442" type="line"/>
      <point x="290" y="451" type="line"/>
      <point x="45" y="15" type="line"/>
    </contour>
  </outline>
  <guideline angle="241.107" x="295" y="468"/>
  <guideline angle="0" x="0" y="451"/>
  <guideline angle="61.4342" x="64" y="-5"/>
  <guideline angle="0" x="0" y="7"/>
  <guideline angle="90" name="h_1" x="178" y="0"/>
</glyph>
<glyph name="exclamdown" format="2">
  <advance width="190"/>
  <unicode hex="00A1"/>
  <outline>
    <contour>
      <point x="89" y="291" type="line"/>
      <point x="84" y="6" type="line"/>
      <point x="84" y="-240" type="line"/>
      <point x="106" y="-240" type="line"/>
      <point x="106" y="6" type="line"/>
      <point x="101" y="291" type="line"/>
    </contour>
    <contour>
      <point x="86" y="446" type="line"/>
      <point x="86" y="366" type="line"/>
      <point x="106" y="366" type="line"/>
      <point x="106" y="446" type="line"/>
    </contour>
  </outline>
</glyph>
<glyph name="yen" format="2">
  <advance width="418"/>
  <unicode hex="00A5"/>
  <outline>
    <contour>
      <point x="20" y="167" type="line"/>
      <point x="199" y="167" type="line"/>
      <point x="199" y="0" type="line"/>
      <point x="221" y="0" type="line"/>
      <point x="221" y="167" type="line"/>
      <point x="398" y="167" type="line"/>
      <point x="398" y="187" type="line"/>
      <point x="221" y="187" type="line"/>
      <point x="221" y="306" type="line"/>
      <point x="398" y="306" type="line"/>
      <point x="398" y="326" type="line"/>
      <point x="231" y="326" type="line"/>
      <point x="397" y="637" type="line"/>
      <point x="363" y="637" type="line"/>
      <point x="244" y="397" type="line" smooth="yes"/>
      <point x="228" y="366"/>
      <point x="218" y="349"/>
      <point x="209" y="326" type="curve"/>
      <point x="200" y="349"/>
      <point x="188" y="372"/>
      <point x="176" y="393" type="curve"/>
      <point x="50" y="637" type="line"/>
      <point x="21" y="637" type="line"/>
      <point x="187" y="326" type="line"/>
      <point x="20" y="326" type="line"/>
      <point x="20" y="306" type="line"/>
      <point x="199" y="306" type="line"/>
      <point x="199" y="187" type="line"/>
      <point x="20" y="187" type="line"/>
    </contour>
  </outline>
</glyph>
<glyph name="brokenbar" format="2">
  <advance width="222"/>
  <unicode hex="00A6"/>
  <outline>
    <contour>
      <point x="100" y="289" type="line"/>
      <point x="122" y="289" type="line"/>
      <point x="122" y="601" type="line"/>
      <point x="100" y="601" type="line"/>
    </contour>
    <contour>
      <point x="100" y="-156" type="line"/>
      <point x="122" y="-156" type="line"/>
      <point x="122" y="156" type="line"/>
      <point x="100" y="156" type="line"/>
    </contour>
  </outline>
</glyph>
<glyph name="dieresis" format="2">
  <advance width="348"/>
  <unicode hex="00A8"/>
  <outline>
    <contour>
      <point x="80" y="560" type="line"/>
      <point x="110" y="560" type="line"/>
      <point x="110" y="590" type="line"/>
      <point x="80" y="590" type="line"/>
    </contour>
    <contour>
      <point x="238" y="560" type="line"/>
      <point x="268" y="560" type="line"/>
      <point x="268" y="590" type="line"/>
      <point x="238" y="590" type="line"/>
    </contour>
  </outline>
</glyph>
<glyph name="copyright" format="2">
  <advance width="797"/>
  <unicode hex="00A9"/>
  <outline>
    <contour>
      <point x="254.065" y="329.131" type="curve" smooth="yes"/>
      <point x="254.065" y="220.144"/>
      <point x="314.633" y="147.486"/>
      <point x="393.708" y="147.486" type="curve" smooth="yes"/>
      <point x="449.033" y="147.486"/>
      <point x="504.174" y="189.093"/>
      <point x="531.779" y="251.505" type="curve"/>
      <point x="510.258" y="251.505" type="line"/>
      <point x="485.038" y="201.187"/>
      <point x="439.974" y="167.641"/>
      <point x="397.597" y="167.641" type="curve" smooth="yes"/>
      <point x="326.662" y="167.641"/>
      <point x="273.668" y="232.658"/>
      <point x="273.668" y="330.183" type="curve" smooth="yes"/>
      <point x="273.668" y="427.708"/>
      <point x="322.85" y="492.725"/>
      <point x="396.623" y="492.725" type="curve" smooth="yes"/>
      <point x="451.655" y="492.725"/>
      <point x="497.109" y="455.854"/>
      <point x="510.258" y="400.546" type="curve"/>
      <point x="531.581" y="400.546" type="line"/>
      <point x="516.677" y="467.615"/>
      <point x="464.975" y="512.328"/>
      <point x="398.805" y="512.328" type="curve" smooth="yes"/>
      <point x="313.324" y="512.328"/>
      <point x="254.065" y="439.049"/>
    </contour>
    <contour>
      <point x="60" y="341.551" type="curve" smooth="yes"/>
      <point x="60" y="138.171"/>
      <point x="196.622" y="-0.00358582"/>
      <point x="398.449" y="-0.00358582" type="curve" smooth="yes"/>
      <point x="600.277" y="-0.00358582"/>
      <point x="736.899" y="136.618"/>
      <point x="736.899" y="338.446" type="curve" smooth="yes"/>
      <point x="736.899" y="541.826"/>
      <point x="600.277" y="680"/>
      <point x="398.449" y="680" type="curve" smooth="yes"/>
      <point x="196.622" y="680"/>
      <point x="60" y="543.378"/>
    </contour>
    <contour>
      <point x="82.1554" y="341.622" type="curve" smooth="yes"/>
      <point x="82.1554" y="531.581"/>
      <point x="209.641" y="659.845"/>
      <point x="398.449" y="659.845" type="curve" smooth="yes"/>
      <point x="588.871" y="659.845"/>
      <point x="714.743" y="531.581"/>
      <point x="714.743" y="338.375" type="curve" smooth="yes"/>
      <point x="714.743" y="148.415"/>
      <point x="587.257" y="20.1519"/>
      <point x="398.449" y="20.1519" type="curve" smooth="yes"/>
      <point x="209.641" y="20.1519"/>
      <point x="82.1554" y="150.039"/>
    </contour>
  </outline>
</glyph>
<glyph name="ordfeminine" format="2">
  <advance width="342"/>
  <unicode hex="00AA"/>
  <outline>
    <contour>
      <point x="71" y="650" type="curve"/>
      <point x="93" y="650" type="line"/>
      <point x="96.8827" y="696"/>
      <point x="122.508" y="722"/>
      <point x="163.665" y="722" type="curve" smooth="yes"/>
      <point x="209.48" y="722"/>
      <point x="232" y="695"/>
      <point x="232" y="639" type="curve" smooth="yes"/>
      <point x="232" y="475" type="line"/>
      <point x="238" y="424" type="line"/>
      <point x="252" y="424" type="line"/>
      <point x="252" y="635" type="line" smooth="yes"/>
      <point x="252" y="706"/>
      <point x="223.335" y="740"/>
      <point x="164.367" y="740" type="curve" smooth="yes"/>
      <point x="110.312" y="740"/>
      <point x="76.733" y="707"/>
    </contour>
    <contour>
      <point x="60" y="498" type="curve" smooth="yes"/>
      <point x="60" y="448.8"/>
      <point x="89.6" y="416"/>
      <point x="134" y="416" type="curve" smooth="yes"/>
      <point x="175.103" y="416"/>
      <point x="214" y="446"/>
      <point x="245" y="484" type="curve"/>
      <point x="237" y="497" type="line"/>
      <point x="204" y="459"/>
      <point x="169.22" y="434"/>
      <point x="136.976" y="434" type="curve" smooth="yes"/>
      <point x="102.79" y="434"/>
      <point x="80" y="460.8"/>
      <point x="80" y="501" type="curve" smooth="yes"/>
      <point x="80" y="562.2"/>
      <point x="144.4" y="603"/>
      <point x="241" y="603" type="curve"/>
      <point x="241" y="621" type="line"/>
      <point x="132.4" y="621"/>
      <point x="60" y="571.8"/>
    </contour>
  </outline>
</glyph>
<glyph name="logicalnot" format="2">
  <advance width="520"/>
  <unicode hex="00AC"/>
  <outline>
    <contour>
      <point x="49" y="415" type="line"/>
      <point x="451" y="415" type="line"/>
      <point x="451" y="261" type="line"/>
      <point x="471" y="261" type="line"/>
      <point x="471" y="433" type="line"/>
      <point x="49" y="433" type="line"/>
    </contour>
  </outline>
</glyph>
<glyph name="registered" format="2">
  <advance width="489"/>
  <unicode hex="00AE"/>
  <outline>
    <contour>
      <point x="60" y="505.186" type="curve" smooth="yes"/>
      <point x="60" y="400.446"/>
      <point x="133.786" y="330.373"/>
      <point x="244.076" y="330.373" type="curve" smooth="yes"/>
      <point x="354.677" y="330.373"/>
      <point x="428.152" y="400.151"/>
      <point x="428.152" y="505.186" type="curve" smooth="yes"/>
      <point x="428.152" y="609.927"/>
      <point x="354.366" y="680"/>
      <point x="244.076" y="680" type="curve" smooth="yes"/>
      <point x="133.475" y="680"/>
      <point x="60" y="610.222"/>
    </contour>
    <contour>
      <point x="80.277" y="505.186" type="curve" smooth="yes"/>
      <point x="80.277" y="599.251"/>
      <point x="145.647" y="661.723"/>
      <point x="244.076" y="661.723" type="curve" smooth="yes"/>
      <point x="342.206" y="661.723"/>
      <point x="407.875" y="598.965"/>
      <point x="407.875" y="505.186" type="curve" smooth="yes"/>
      <point x="407.875" y="411.122"/>
      <point x="342.505" y="348.65"/>
      <point x="244.076" y="348.65" type="curve" smooth="yes"/>
      <point x="145.946" y="348.65"/>
      <point x="80.277" y="411.408"/>
    </contour>
    <contour>
      <point x="188.911" y="490.484" type="line"/>
      <point x="258.648" y="490.484" type="line" smooth="yes"/>
      <point x="296.689" y="490.484"/>
      <point x="322.05" y="513.955"/>
      <point x="322.05" y="547.878" type="curve" smooth="yes"/>
      <point x="322.05" y="582.11"/>
      <point x="296.381" y="604.076"/>
      <point x="257.878" y="604.076" type="curve" smooth="yes"/>
      <point x="188.911" y="604.076" type="line"/>
      <point x="188.911" y="586.324" type="line"/>
      <point x="256.13" y="586.324" type="line" smooth="yes"/>
      <point x="285.03" y="586.324"/>
      <point x="304.297" y="570.037"/>
      <point x="304.297" y="546.669" type="curve" smooth="yes"/>
      <point x="304.297" y="523.185"/>
      <point x="285.03" y="508.236"/>
      <point x="256.13" y="508.236" type="curve" smooth="yes"/>
      <point x="188.911" y="508.236" type="line"/>
    </contour>
    <contour>
      <point x="176.904" y="403.446" type="line"/>
      <point x="196.656" y="403.446" type="line"/>
      <point x="196.656" y="604.078" type="line"/>
      <point x="176.904" y="604.076" type="line"/>
    </contour>
    <contour>
      <point x="248.256" y="500.605" type="line"/>
      <point x="299.134" y="403.446" type="line"/>
      <point x="322.787" y="403.446" type="line"/>
      <point x="269.539" y="500.605" type="line"/>
    </contour>
  </outline>
</glyph>
<glyph name="degree" format="2">
  <advance width="356"/>
  <unicode hex="00B0"/>
  <outline>
    <contour>
      <point x="70" y="525" type="curve" smooth="yes"/>
      <point x="70" y="466"/>
      <point x="119" y="417"/>
      <point x="178" y="417" type="curve" smooth="yes"/>
      <point x="238" y="417"/>
      <point x="286" y="466"/>
      <point x="286" y="525" type="curve" smooth="yes"/>
      <point x="286" y="585"/>
      <point x="238" y="633"/>
      <point x="178" y="633" type="curve" smooth="yes"/>
      <point x="118" y="633"/>
      <point x="70" y="585"/>
    </contour>
    <contour>
      <point x="90" y="525" type="curve" smooth="yes"/>
      <point x="90" y="577"/>
      <point x="126" y="615"/>
      <point x="178" y="615" type="curve" smooth="yes"/>
      <point x="229" y="615"/>
      <point x="266" y="577"/>
      <point x="266" y="525" type="curve" smooth="yes"/>
      <point x="266" y="474"/>
      <point x="229" y="435"/>
      <point x="178" y="435" type="curve" smooth="yes"/>
      <point x="126" y="435"/>
      <point x="90" y="472"/>
    </contour>
  </outline>
  <guideline angle="90" x="178" y="0"/>
  <guideline angle="0" x="0" y="525"/>
</glyph>
<glyph name="plusminus" format="2">
  <advance width="445"/>
  <unicode hex="00B1"/>
  <outline>
    <contour>
      <point x="50" y="288" type="line"/>
      <point x="213" y="288" type="line"/>
      <point x="213" y="119" type="line"/>
      <point x="233" y="119" type="line"/>
      <point x="233" y="288" type="line"/>
      <point x="395" y="288" type="line"/>
      <point x="395" y="306" type="line"/>
      <point x="233" y="306" type="line"/>
      <point x="233" y="469" type="line"/>
      <point x="213" y="469" type="line"/>
      <point x="213" y="306" type="line"/>
      <point x="50" y="306" type="line"/>
    </contour>
    <contour>
      <point x="50" y="24" type="line"/>
      <point x="395" y="24" type="line"/>
      <point x="395" y="42" type="line"/>
      <point x="50" y="42" type="line"/>
    </contour>
  </outline>
</glyph>
<glyph name="uni00B3" format="2">
  <advance width="375"/>
  <unicode hex="00B3"/>
  <outline>
    <contour>
      <point x="45" y="446" type="line"/>
      <point x="54" y="390"/>
      <point x="97" y="346"/>
      <point x="169" y="346" type="curve" smooth="yes"/>
      <point x="246" y="346"/>
      <point x="293" y="384"/>
      <point x="293" y="447" type="curve" smooth="yes"/>
      <point x="293" y="499"/>
      <point x="260" y="530"/>
      <point x="204" y="535" type="curve"/>
      <point x="199" y="527" type="line"/>
      <point x="244" y="535"/>
      <point x="274" y="566"/>
      <point x="274" y="606" type="curve" smooth="yes"/>
      <point x="274" y="657"/>
      <point x="235" y="688"/>
      <point x="172" y="688" type="curve" smooth="yes"/>
      <point x="114" y="688"/>
      <point x="75" y="658"/>
      <point x="50" y="596" type="curve"/>
      <point x="70" y="596" type="line"/>
      <point x="91" y="646"/>
      <point x="124" y="670"/>
      <point x="172" y="670" type="curve" smooth="yes"/>
      <point x="223" y="670"/>
      <point x="254" y="644"/>
      <point x="254" y="600" type="curve" smooth="yes"/>
      <point x="254" y="559"/>
      <point x="210" y="533"/>
      <point x="129" y="533" type="curve"/>
      <point x="129" y="515" type="line"/>
      <point x="147" y="518"/>
      <point x="163" y="519"/>
      <point x="185" y="519" type="curve" smooth="yes"/>
      <point x="237" y="519"/>
      <point x="273" y="491"/>
      <point x="273" y="451" type="curve" smooth="yes"/>
      <point x="273" y="392"/>
      <point x="240" y="364"/>
      <point x="168" y="364" type="curve" smooth="yes"/>
      <point x="115" y="364"/>
      <point x="80" y="392"/>
      <point x="65" y="446" type="curve"/>
    </contour>
  </outline>
  <guideline angle="0" x="0" y="346"/>
</glyph>
<glyph name="acute" format="2">
  <advance width="298"/>
  <unicode hex="00B4"/>
  <outline>
    <contour>
      <point x="100" y="540" type="line"/>
      <point x="115" y="540" type="line"/>
      <point x="198" y="700" type="line"/>
      <point x="177" y="700" type="line"/>
    </contour>
  </outline>
</glyph>
<glyph name="cedilla" format="2">
  <advance width="452"/>
  <unicode hex="00B8"/>
  <outline>
    <contour>
      <point x="130" y="-178" type="line"/>
      <point x="158" y="-203"/>
      <point x="185" y="-214"/>
      <point x="215" y="-214" type="curve" smooth="yes"/>
      <point x="262" y="-214"/>
      <point x="294" y="-181"/>
      <point x="294" y="-139" type="curve" smooth="yes"/>
      <point x="294" y="-92"/>
      <point x="254" y="-60"/>
      <point x="186" y="-52" type="curve"/>
      <point x="195" y="-62" type="line"/>
      <point x="224" y="0" type="line"/>
      <point x="206" y="0" type="line"/>
      <point x="175" y="-66" type="line"/>
      <point x="180" y="-71" type="line"/>
      <point x="241" y="-79"/>
      <point x="274" y="-105"/>
      <point x="274" y="-144" type="curve" smooth="yes"/>
      <point x="274" y="-172"/>
      <point x="253" y="-196"/>
      <point x="212" y="-196" type="curve" smooth="yes"/>
      <point x="188" y="-196"/>
      <point x="161" y="-183"/>
      <point x="139" y="-161" type="curve"/>
      <point x="137" y="-161" type="line"/>
      <point x="130" y="-176" type="line"/>
    </contour>
  </outline>
  <guideline angle="65.1707" x="175" y="-67"/>
  <guideline angle="244.654" x="213" y="0"/>
  <guideline angle="64.9831" x="124" y="-189"/>
</glyph>
<glyph name="ordmasculine" format="2">
  <advance width="340"/>
  <unicode hex="00BA"/>
  <outline>
    <contour>
      <point x="60" y="574" type="curve" smooth="yes"/>
      <point x="60" y="453.492"/>
      <point x="99.3848" y="416"/>
      <point x="169.083" y="416" type="curve" smooth="yes"/>
      <point x="238.707" y="416"/>
      <point x="280" y="460.483"/>
      <point x="280" y="577" type="curve" smooth="yes"/>
      <point x="280" y="693.517"/>
      <point x="238.162" y="740"/>
      <point x="169.083" y="740" type="curve" smooth="yes"/>
      <point x="99.7508" y="740"/>
      <point x="60" y="694.508"/>
    </contour>
    <contour>
      <point x="80" y="576" type="curve" smooth="yes"/>
      <point x="80" y="678.505"/>
      <point x="115.698" y="722"/>
      <point x="169.1" y="722" type="curve" smooth="yes"/>
      <point x="224.334" y="722"/>
      <point x="260" y="680.891"/>
      <point x="260" y="579" type="curve" smooth="yes"/>
      <point x="260" y="477.109"/>
      <point x="226.11" y="434"/>
      <point x="169.1" y="434" type="curve" smooth="yes"/>
      <point x="114.042" y="434"/>
      <point x="80" y="473.495"/>
    </contour>
  </outline>
</glyph>
<glyph name="AE" format="2">
  <advance width="738"/>
  <unicode hex="00C6"/>
  <outline>
    <contour>
      <point x="20" y="0" type="line"/>
      <point x="44" y="0" type="line"/>
      <point x="332" y="690" type="line"/>
      <point x="316" y="680" type="line"/>
      <point x="346" y="680" type="line"/>
      <point x="346" y="0" type="line"/>
      <point x="658" y="0" type="line"/>
      <point x="658" y="20" type="line"/>
      <point x="368" y="20" type="line"/>
      <point x="368" y="347" type="line"/>
      <point x="618" y="347" type="line"/>
      <point x="618" y="367" type="line"/>
      <point x="368" y="367" type="line"/>
      <point x="368" y="680" type="line"/>
      <point x="658" y="680" type="line"/>
      <point x="658" y="700" type="line"/>
      <point x="311" y="700" type="line"/>
    </contour>
    <contour>
      <point x="146" y="250" type="line"/>
      <point x="357" y="250" type="line"/>
      <point x="357" y="270" type="line"/>
      <point x="152" y="270" type="line"/>
    </contour>
  </outline>
  <guideline angle="73.7256" x="58" y="0"/>
</glyph>
<glyph name="multiply" format="2">
  <advance width="520"/>
  <unicode hex="00D7"/>
  <outline>
    <contour>
      <point x="88" y="469" type="line"/>
      <point x="414" y="143" type="line"/>
      <point x="430" y="160" type="line"/>
      <point x="105" y="486" type="line"/>
    </contour>
    <contour>
      <point x="88" y="161" type="line"/>
      <point x="105" y="144" type="line"/>
      <point x="431" y="470" type="line"/>
      <point x="415" y="487" type="line"/>
    </contour>
  </outline>
  <guideline angle="134.912" x="411" y="179"/>
  <guideline angle="315" x="71" y="486"/>
  <guideline angle="45" x="123" y="162"/>
  <guideline angle="224.912" x="397" y="469"/>
  <guideline angle="46.0809" x="397" y="125"/>
  <guideline angle="315" x="70" y="178"/>
  <guideline angle="134.454" x="449" y="451"/>
  <guideline angle="225.535" x="124" y="505"/>
</glyph>
<glyph name="Oslash" format="2">
  <advance width="568"/>
  <unicode hex="00D8"/>
  <outline>
    <component base="O" xOffset="32"/>
    <contour>
      <point x="100" y="-10" type="line"/>
      <point x="124" y="-10" type="line"/>
      <point x="480" y="690" type="line"/>
      <point x="456" y="690" type="line"/>
    </contour>
  </outline>
</glyph>
<glyph name="Thorn" format="2">
  <advance width="412"/>
  <unicode hex="00DE"/>
  <outline>
    <contour>
      <point x="100" y="20" type="line"/>
      <point x="122" y="20" type="line"/>
      <point x="122" y="680" type="line"/>
      <point x="100" y="680" type="line"/>
    </contour>
    <contour>
      <point x="108" y="169" type="line"/>
      <point x="150" y="169" type="line" smooth="yes"/>
      <point x="265" y="169"/>
      <point x="332" y="242"/>
      <point x="332" y="348" type="curve" smooth="yes"/>
      <point x="332" y="449"/>
      <point x="259" y="528"/>
      <point x="148" y="528" type="curve" smooth="yes"/>
      <point x="108" y="528" type="line"/>
      <point x="108" y="508" type="line"/>
      <point x="149" y="508" type="line" smooth="yes"/>
      <point x="243" y="508"/>
      <point x="310" y="433"/>
      <point x="310" y="347" type="curve" smooth="yes"/>
      <point x="310" y="257"/>
      <point x="248" y="187"/>
      <point x="152" y="187" type="curve" smooth="yes"/>
      <point x="108" y="187" type="line"/>
    </contour>
  </outline>
</glyph>
<glyph name="germandbls" format="2">
  <advance width="462"/>
  <unicode hex="00DF"/>
  <outline>
    <contour>
      <point x="90" y="0" type="line"/>
      <point x="110" y="0" type="line"/>
      <point x="110" y="511" type="line" smooth="yes"/>
      <point x="110" y="605"/>
      <point x="156" y="668"/>
      <point x="234" y="668" type="curve" smooth="yes"/>
      <point x="303" y="668"/>
      <point x="354" y="618"/>
      <point x="354" y="546" type="curve" smooth="yes"/>
      <point x="354" y="465"/>
      <point x="290" y="392"/>
      <point x="209" y="392" type="curve" smooth="yes"/>
      <point x="190" y="392" type="line"/>
      <point x="190" y="372" type="line"/>
      <point x="209" y="372" type="line" smooth="yes"/>
      <point x="322" y="372"/>
      <point x="382" y="306"/>
      <point x="382" y="183" type="curve" smooth="yes"/>
      <point x="382" y="81"/>
      <point x="325" y="12"/>
      <point x="240" y="12" type="curve" smooth="yes"/>
      <point x="209" y="12"/>
      <point x="182" y="21"/>
      <point x="160" y="34" type="curve"/>
      <point x="160" y="13" type="line"/>
      <point x="184" y="0"/>
      <point x="210" y="-6"/>
      <point x="238" y="-6" type="curve" smooth="yes"/>
      <point x="337" y="-6"/>
      <point x="402" y="69"/>
      <point x="402" y="183" type="curve" smooth="yes"/>
      <point x="402" y="308"/>
      <point x="347" y="379"/>
      <point x="239" y="390" type="curve"/>
      <point x="252" y="380" type="line"/>
      <point x="326" y="404"/>
      <point x="374" y="476"/>
      <point x="374" y="549" type="curve" smooth="yes"/>
      <point x="374" y="630"/>
      <point x="315" y="686"/>
      <point x="233" y="686" type="curve" smooth="yes"/>
      <point x="145" y="686"/>
      <point x="90" y="621"/>
      <point x="90" y="523" type="curve" smooth="yes"/>
    </contour>
  </outline>
</glyph>
<glyph name="ae" format="2">
  <advance width="681"/>
  <unicode hex="00E6"/>
  <anchor x="341" y="540" name="top"/>
  <outline>
    <contour>
      <point x="313" y="240" type="curve" smooth="yes"/>
      <point x="313" y="66"/>
      <point x="362" y="-8"/>
      <point x="475" y="-8" type="curve" smooth="yes"/>
      <point x="553" y="-8"/>
      <point x="604" y="57"/>
      <point x="613" y="142" type="curve"/>
      <point x="594" y="142" type="line"/>
      <point x="585" y="69"/>
      <point x="540" y="10"/>
      <point x="475" y="10" type="curve" smooth="yes"/>
      <point x="375" y="10"/>
      <point x="333" y="78"/>
      <point x="333" y="242" type="curve" smooth="yes"/>
      <point x="333" y="376"/>
      <point x="381" y="450"/>
      <point x="466" y="450" type="curve" smooth="yes"/>
      <point x="551" y="450"/>
      <point x="601" y="377"/>
      <point x="601" y="252" type="curve"/>
      <point x="319" y="252" type="line"/>
      <point x="319" y="234" type="line"/>
      <point x="621" y="234" type="line"/>
      <point x="621" y="244" type="line" smooth="yes"/>
      <point x="621" y="389"/>
      <point x="566" y="468"/>
      <point x="466" y="468" type="curve" smooth="yes"/>
      <point x="366" y="468"/>
      <point x="313" y="389"/>
    </contour>
    <contour>
      <point x="74" y="340" type="curve"/>
      <point x="94" y="340" type="line"/>
      <point x="102" y="406"/>
      <point x="150" y="450"/>
      <point x="210" y="450" type="curve" smooth="yes"/>
      <point x="278" y="450"/>
      <point x="313" y="412"/>
      <point x="313" y="356" type="curve" smooth="yes"/>
      <point x="313" y="111" type="line"/>
      <point x="333" y="123" type="line"/>
      <point x="333" y="365" type="line" smooth="yes"/>
      <point x="333" y="421"/>
      <point x="288" y="468"/>
      <point x="214" y="468" type="curve" smooth="yes"/>
      <point x="140" y="468"/>
      <point x="84" y="421"/>
    </contour>
    <contour>
      <point x="60" y="110" type="curve" smooth="yes"/>
      <point x="60" y="36"/>
      <point x="93" y="-8"/>
      <point x="166" y="-8" type="curve" smooth="yes"/>
      <point x="234" y="-8"/>
      <point x="299" y="62"/>
      <point x="339" y="127" type="curve"/>
      <point x="330" y="144" type="line"/>
      <point x="281" y="68"/>
      <point x="221" y="10"/>
      <point x="163" y="10" type="curve" smooth="yes"/>
      <point x="111" y="10"/>
      <point x="80" y="41"/>
      <point x="80" y="108" type="curve" smooth="yes"/>
      <point x="80" y="182"/>
      <point x="155" y="228"/>
      <point x="220" y="246" type="curve" smooth="yes"/>
      <point x="325" y="275" type="line"/>
      <point x="325" y="291" type="line"/>
      <point x="222" y="264" type="line" smooth="yes"/>
      <point x="132" y="240"/>
      <point x="60" y="191"/>
    </contour>
  </outline>
</glyph>
<glyph name="eth" format="2">
  <advance width="433"/>
  <unicode hex="00F0"/>
  <outline>
    <contour>
      <point x="72" y="680" type="line"/>
      <point x="241" y="609"/>
      <point x="348" y="458"/>
      <point x="348" y="228" type="curve"/>
      <point x="368" y="228" type="line"/>
      <point x="368" y="463"/>
      <point x="257" y="622"/>
      <point x="80" y="690" type="curve"/>
    </contour>
    <contour>
      <point x="132" y="548" type="line"/>
      <point x="318" y="624" type="line"/>
      <point x="307" y="638" type="line"/>
      <point x="121" y="562" type="line"/>
    </contour>
    <contour>
      <point x="60" y="230" type="curve" smooth="yes"/>
      <point x="60" y="85"/>
      <point x="103" y="-8"/>
      <point x="214" y="-8" type="curve" smooth="yes"/>
      <point x="325" y="-8"/>
      <point x="368" y="84"/>
      <point x="368" y="230" type="curve" smooth="yes"/>
      <point x="368" y="375"/>
      <point x="325" y="468"/>
      <point x="214" y="468" type="curve" smooth="yes"/>
      <point x="103" y="468"/>
      <point x="60" y="376"/>
    </contour>
    <contour>
      <point x="80" y="230" type="curve" smooth="yes"/>
      <point x="80" y="362"/>
      <point x="115" y="450"/>
      <point x="214" y="450" type="curve" smooth="yes"/>
      <point x="314" y="450"/>
      <point x="348" y="363"/>
      <point x="348" y="230" type="curve" smooth="yes"/>
      <point x="348" y="98"/>
      <point x="313" y="10"/>
      <point x="214" y="10" type="curve" smooth="yes"/>
      <point x="114" y="10"/>
      <point x="80" y="97"/>
    </contour>
  </outline>
</glyph>
<glyph name="oslash" format="2">
  <advance width="500"/>
  <unicode hex="00F8"/>
  <outline>
    <component base="o" xOffset="36"/>
    <contour>
      <point x="60" y="0" type="line"/>
      <point x="82" y="0" type="line"/>
      <point x="440" y="460" type="line"/>
      <point x="418" y="460" type="line"/>
    </contour>
  </outline>
</glyph>
<glyph name="dcroat" format="2">
  <advance width="491"/>
  <unicode hex="0111"/>
  <outline>
    <contour>
      <point x="66" y="231" type="curve" smooth="yes"/>
      <point x="66" y="355"/>
      <point x="143" y="448"/>
      <point x="246" y="448" type="curve" smooth="yes"/>
      <point x="352" y="448"/>
      <point x="415" y="370"/>
      <point x="415" y="240" type="curve" smooth="yes"/>
      <point x="415" y="230" type="line" smooth="yes"/>
      <point x="415" y="90"/>
      <point x="353" y="12"/>
      <point x="245" y="12" type="curve" smooth="yes"/>
      <point x="142" y="12"/>
      <point x="66" y="105"/>
    </contour>
    <contour>
      <point x="46" y="231" type="curve" smooth="yes"/>
      <point x="46" y="94"/>
      <point x="131" y="-8"/>
      <point x="245" y="-8" type="curve" smooth="yes"/>
      <point x="339" y="-8"/>
      <point x="420" y="62"/>
      <point x="420" y="144" type="curve"/>
      <point x="416" y="144" type="line"/>
      <point x="420" y="0" type="line"/>
      <point x="435" y="0" type="line"/>
      <point x="435" y="700" type="line"/>
      <point x="415" y="700" type="line"/>
      <point x="415" y="329" type="line"/>
      <point x="419" y="314" type="line"/>
      <point x="419" y="399"/>
      <point x="341" y="468"/>
      <point x="246" y="468" type="curve" smooth="yes"/>
      <point x="131" y="468"/>
      <point x="46" y="367"/>
    </contour>
    <contour>
      <point x="250" y="561" type="line"/>
      <point x="490" y="561" type="line"/>
      <point x="490" y="579" type="line"/>
      <point x="250" y="579" type="line"/>
    </contour>
  </outline>
</glyph>
<glyph name="Hbar" format="2">
  <advance width="560"/>
  <unicode hex="0126"/>
  <anchor x="280" y="-40" name="bottom"/>
  <anchor x="443" y="0" name="b.cedilla"/>
  <outline>
    <component base="H"/>
    <contour>
      <point x="55" y="560" type="line"/>
      <point x="505" y="560" type="line"/>
      <point x="505" y="578" type="line"/>
      <point x="55" y="578" type="line"/>
    </contour>
  </outline>
</glyph>
<glyph name="hbar" format="2">
  <advance width="440"/>
  <unicode hex="0127"/>
  <outline>
    <component base="h"/>
    <contour>
      <point x="0" y="561" type="line"/>
      <point x="250" y="561" type="line"/>
      <point x="250" y="579" type="line"/>
      <point x="0" y="579" type="line"/>
    </contour>
  </outline>
</glyph>
<glyph name="kgreenlandic" format="2">
  <advance width="388"/>
  <unicode hex="0138"/>
  <outline>
    <contour>
      <point x="90" y="0" type="line"/>
      <point x="110" y="0" type="line"/>
      <point x="110" y="460" type="line"/>
      <point x="90" y="450" type="line"/>
    </contour>
    <contour>
      <point x="100" y="167" type="line"/>
      <point x="343" y="460" type="line"/>
      <point x="317" y="460" type="line"/>
      <point x="100" y="199" type="line"/>
    </contour>
    <contour>
      <point x="161" y="256" type="line"/>
      <point x="334" y="0" type="line"/>
      <point x="358" y="0" type="line"/>
      <point x="174" y="272" type="line"/>
    </contour>
  </outline>
</glyph>
<glyph name="Lslash" format="2">
  <advance width="401"/>
  <unicode hex="0141"/>
  <outline>
    <component base="L"/>
    <contour>
      <point x="21" y="236" type="line"/>
      <point x="270" y="452" type="line"/>
      <point x="270" y="481" type="line"/>
      <point x="21" y="265" type="line"/>
    </contour>
  </outline>
  <guideline angle="90" x="121" y="0"/>
  <guideline angle="90" x="370" y="0"/>
</glyph>
<glyph name="lslash" format="2">
  <advance width="200"/>
  <unicode hex="0142"/>
  <outline>
    <component base="l"/>
    <contour>
      <point x="21" y="236" type="line"/>
      <point x="270" y="452" type="line"/>
      <point x="270" y="481" type="line"/>
      <point x="21" y="265" type="line"/>
    </contour>
  </outline>
</glyph>
<glyph name="Eng" format="2">
  <advance width="532"/>
  <unicode hex="014A"/>
  <anchor x="292" y="740" name="top"/>
  <anchor x="293" y="-60" name="bottom"/>
  <outline>
    <component base="N"/>
    <contour>
      <point x="383" y="-200" type="line"/>
      <point x="400" y="-200" type="line" smooth="yes"/>
      <point x="447" y="-200"/>
      <point x="468" y="-174"/>
      <point x="468" y="-118" type="curve" smooth="yes"/>
      <point x="468" y="20" type="line"/>
      <point x="446" y="20" type="line"/>
      <point x="446" y="-121" type="line" smooth="yes"/>
      <point x="446" y="-159"/>
      <point x="430" y="-180"/>
      <point x="401" y="-180" type="curve" smooth="yes"/>
      <point x="383" y="-180" type="line"/>
    </contour>
  </outline>
  <guideline angle="90" x="292" y="0"/>
</glyph>
<glyph name="eng" format="2">
  <advance width="440"/>
  <unicode hex="014B"/>
  <outline>
    <component base="n"/>
    <contour>
      <point x="200" y="-200" type="line"/>
      <point x="205" y="-200" type="line" smooth="yes"/>
      <point x="292" y="-200"/>
      <point x="350" y="-155"/>
      <point x="350" y="-88" type="curve" smooth="yes"/>
      <point x="350" y="92" type="line"/>
      <point x="330" y="92" type="line"/>
      <point x="330" y="-80" type="line" smooth="yes"/>
      <point x="330" y="-148"/>
      <point x="286" y="-182"/>
      <point x="200" y="-182" type="curve"/>
    </contour>
  </outline>
</glyph>
<glyph name="OE" format="2">
  <advance width="994"/>
  <unicode hex="0152"/>
  <outline>
    <contour>
      <point x="60" y="340" type="curve" smooth="yes"/>
      <point x="60" y="121"/>
      <point x="164" y="-8"/>
      <point x="338" y="-8" type="curve" smooth="yes"/>
      <point x="439" y="-8"/>
      <point x="520" y="62"/>
      <point x="554" y="182" type="curve"/>
      <point x="554" y="0" type="line"/>
      <point x="914" y="0" type="line"/>
      <point x="914" y="20" type="line"/>
      <point x="576" y="20" type="line"/>
      <point x="576" y="340" type="line"/>
      <point x="874" y="340" type="line"/>
      <point x="874" y="360" type="line"/>
      <point x="576" y="360" type="line"/>
      <point x="576" y="660" type="line"/>
      <point x="914" y="660" type="line"/>
      <point x="914" y="680" type="line"/>
      <point x="554" y="680" type="line"/>
      <point x="554" y="498" type="line"/>
      <point x="520" y="618"/>
      <point x="439" y="688"/>
      <point x="338" y="688" type="curve" smooth="yes"/>
      <point x="164" y="688"/>
      <point x="60" y="559"/>
    </contour>
    <contour>
      <point x="82" y="340" type="curve" smooth="yes"/>
      <point x="82" y="549"/>
      <point x="174" y="668"/>
      <point x="338" y="668" type="curve" smooth="yes"/>
      <point x="465" y="668"/>
      <point x="554" y="552"/>
      <point x="554" y="360" type="curve" smooth="yes"/>
      <point x="554" y="320" type="line" smooth="yes"/>
      <point x="554" y="128"/>
      <point x="465" y="12"/>
      <point x="338" y="12" type="curve" smooth="yes"/>
      <point x="174" y="12"/>
      <point x="82" y="131"/>
    </contour>
  </outline>
</glyph>
<glyph name="Tbar" format="2">
  <advance width="402"/>
  <unicode hex="0166"/>
  <outline>
    <component base="T"/>
    <component base="T"/>
    <contour>
      <point x="20" y="340" type="line"/>
      <point x="382" y="340" type="line"/>
      <point x="382" y="360" type="line"/>
      <point x="20" y="360" type="line"/>
    </contour>
  </outline>
  <guideline angle="90" x="20" y="0"/>
  <guideline angle="90" x="382" y="0"/>
</glyph>
<glyph name="tbar" format="2">
  <advance width="302"/>
  <unicode hex="0167"/>
  <outline>
    <contour>
      <point x="22" y="266" type="line"/>
      <point x="242" y="266" type="line"/>
      <point x="242" y="284" type="line"/>
      <point x="22" y="284" type="line"/>
    </contour>
    <contour>
      <point x="22" y="437" type="line"/>
      <point x="241" y="437" type="line"/>
      <point x="241" y="459" type="line"/>
      <point x="100" y="459" type="line"/>
      <point x="22" y="453" type="line"/>
    </contour>
    <contour>
      <point x="97" y="179" type="line" smooth="yes"/>
      <point x="97" y="49"/>
      <point x="129" y="-10"/>
      <point x="239" y="-10" type="curve" smooth="yes"/>
      <point x="262" y="-10" type="line"/>
      <point x="262" y="12" type="line"/>
      <point x="239" y="12" type="line" smooth="yes"/>
      <point x="144" y="12"/>
      <point x="119" y="60"/>
      <point x="119" y="179" type="curve" smooth="yes"/>
      <point x="119" y="609" type="line"/>
      <point x="103" y="609" type="line"/>
      <point x="99" y="458" type="line"/>
      <point x="97" y="458" type="line"/>
    </contour>
  </outline>
</glyph>
<glyph name="longs" format="2">
  <advance width="215"/>
  <unicode hex="017F"/>
  <anchor x="124" y="740" name="top"/>
  <outline>
    <contour>
      <point x="82" y="0" type="line"/>
      <point x="102" y="0" type="line"/>
      <point x="102" y="564" type="line" smooth="yes"/>
      <point x="102" y="634"/>
      <point x="135" y="682"/>
      <point x="181" y="682" type="curve" smooth="yes"/>
      <point x="189" y="682" type="line"/>
      <point x="189" y="700" type="line"/>
      <point x="179" y="700" type="line" smooth="yes"/>
      <point x="122" y="700"/>
      <point x="82" y="645"/>
      <point x="82" y="570" type="curve" smooth="yes"/>
    </contour>
    <contour>
      <point x="26" y="442" type="line"/>
      <point x="93" y="442" type="line"/>
      <point x="93" y="460" type="line"/>
      <point x="26" y="460" type="line"/>
    </contour>
  </outline>
</glyph>
<glyph name="Schwa" format="2">
  <advance width="535"/>
  <unicode hex="018F"/>
  <anchor x="268" y="740" name="top"/>
  <outline>
    <contour>
      <point x="60" y="337" type="line"/>
      <point x="60" y="118"/>
      <point x="126" y="-8"/>
      <point x="268" y="-8" type="curve" smooth="yes"/>
      <point x="410" y="-8"/>
      <point x="475" y="121"/>
      <point x="475" y="340" type="curve" smooth="yes"/>
      <point x="475" y="559"/>
      <point x="410" y="688"/>
      <point x="268" y="688" type="curve" smooth="yes"/>
      <point x="159" y="688"/>
      <point x="95" y="613"/>
      <point x="71" y="480" type="curve"/>
      <point x="94" y="480" type="line"/>
      <point x="118" y="601"/>
      <point x="176" y="668"/>
      <point x="268" y="668" type="curve" smooth="yes"/>
      <point x="391" y="668"/>
      <point x="453" y="549"/>
      <point x="453" y="340" type="curve" smooth="yes"/>
      <point x="453" y="131"/>
      <point x="391" y="12"/>
      <point x="268" y="12" type="curve" smooth="yes"/>
      <point x="145" y="12"/>
      <point x="82" y="128"/>
      <point x="82" y="337" type="curve"/>
    </contour>
    <contour>
      <point x="69" y="317" type="line"/>
      <point x="466" y="317" type="line"/>
      <point x="466" y="337" type="line"/>
      <point x="69" y="337" type="line"/>
    </contour>
  </outline>
</glyph>
<glyph name="florin" format="2">
  <advance width="506"/>
  <unicode hex="0192"/>
  <outline>
    <contour>
      <point x="10" y="-176" type="line"/>
      <point x="42.8562" y="-184.3"/>
      <point x="68" y="-187"/>
      <point x="88.8748" y="-187" type="curve" smooth="yes"/>
      <point x="133.901" y="-187"/>
      <point x="172.245" y="-148.383"/>
      <point x="184.734" y="-90.4582" type="curve" smooth="yes"/>
      <point x="324.551" y="558" type="line" smooth="yes"/>
      <point x="347.456" y="664.233"/>
      <point x="362.551" y="682"/>
      <point x="414.551" y="682" type="curve" smooth="yes"/>
      <point x="432.551" y="682"/>
      <point x="451.66" y="679.397"/>
      <point x="470.551" y="674" type="curve" smooth="yes"/>
      <point x="491.551" y="668" type="line"/>
      <point x="495.551" y="683" type="line"/>
      <point x="487.551" y="686" type="line" smooth="yes"/>
      <point x="463.551" y="695"/>
      <point x="437.551" y="700"/>
      <point x="402.551" y="700" type="curve" smooth="yes"/>
      <point x="346.551" y="700"/>
      <point x="326.378" y="668.258"/>
      <point x="305.551" y="571" type="curve" smooth="yes"/>
      <point x="163.902" y="-90.4582" type="line" smooth="yes"/>
      <point x="153.81" y="-137.583"/>
      <point x="121.698" y="-169"/>
      <point x="83.622" y="-169" type="curve" smooth="yes"/>
      <point x="76" y="-169"/>
      <point x="56.0796" y="-167.616"/>
      <point x="28" y="-162" type="curve" smooth="yes"/>
      <point x="13" y="-159" type="line"/>
    </contour>
    <contour>
      <point x="167" y="413" type="line"/>
      <point x="423" y="413" type="line"/>
      <point x="427" y="433" type="line"/>
      <point x="170" y="433" type="line"/>
    </contour>
  </outline>
</glyph>
<glyph name="Obar" format="2">
  <advance width="575"/>
  <unicode hex="019F"/>
  <anchor x="288" y="740" name="top"/>
  <outline>
    <component base="O"/>
    <contour>
      <point x="89" y="347" type="line"/>
      <point x="486" y="347" type="line"/>
      <point x="486" y="367" type="line"/>
      <point x="89" y="367" type="line"/>
    </contour>
  </outline>
</glyph>
<glyph name="uni0237" format="2">
  <advance width="210"/>
  <unicode hex="0237"/>
  <anchor x="110" y="540" name="top"/>
  <outline>
    <contour>
      <point x="10" y="-200" type="line"/>
      <point x="43" y="-200" type="line" smooth="yes"/>
      <point x="88" y="-200"/>
      <point x="120" y="-166"/>
      <point x="120" y="-117" type="curve" smooth="yes"/>
      <point x="120" y="460" type="line"/>
      <point x="100" y="460" type="line"/>
      <point x="100" y="-115" type="line" smooth="yes"/>
      <point x="100" y="-155"/>
      <point x="76" y="-182"/>
      <point x="41" y="-182" type="curve" smooth="yes"/>
      <point x="10" y="-182" type="line"/>
    </contour>
  </outline>
</glyph>
<glyph name="obarred" format="2">
  <advance width="428"/>
  <unicode hex="0275"/>
  <anchor x="214" y="530" name="top"/>
  <anchor x="205" y="-40" name="bottom"/>
  <outline>
    <component base="o"/>
    <contour>
      <point x="70" y="234" type="line"/>
      <point x="358" y="234" type="line"/>
      <point x="358" y="252" type="line"/>
      <point x="70" y="252" type="line"/>
    </contour>
  </outline>
</glyph>
<glyph name="circumflex" format="2">
  <advance width="310"/>
  <unicode hex="02C6"/>
  <outline>
    <contour>
      <point x="60" y="540" type="line"/>
      <point x="78" y="540" type="line"/>
      <point x="162" y="687" type="line"/>
      <point x="148" y="687" type="line"/>
      <point x="232" y="540" type="line"/>
      <point x="250" y="540" type="line"/>
      <point x="166" y="700" type="line"/>
      <point x="145" y="700" type="line"/>
    </contour>
  </outline>
  <guideline angle="90" x="155" y="0"/>
  <guideline angle="0" x="0" y="540"/>
</glyph>
<glyph name="breve" format="2">
  <advance width="370"/>
  <unicode hex="02D8"/>
  <outline>
    <contour>
      <point x="80" y="642" type="line"/>
      <point x="80" y="584"/>
      <point x="118" y="532"/>
      <point x="185" y="532" type="curve" smooth="yes"/>
      <point x="255" y="532"/>
      <point x="290" y="579"/>
      <point x="290" y="642" type="curve"/>
      <point x="270" y="642" type="line"/>
      <point x="270" y="592"/>
      <point x="242" y="550"/>
      <point x="185" y="550" type="curve" smooth="yes"/>
      <point x="130" y="550"/>
      <point x="100" y="596"/>
      <point x="100" y="642" type="curve"/>
    </contour>
  </outline>
  <guideline angle="0" x="0" y="532"/>
</glyph>
<glyph name="ogonek" format="2">
  <advance width="316"/>
  <unicode hex="02DB"/>
  <outline>
    <contour>
      <point x="100" y="-146" type="curve" smooth="yes"/>
      <point x="100" y="-184"/>
      <point x="124" y="-210"/>
      <point x="160" y="-210" type="curve" smooth="yes"/>
      <point x="178" y="-210"/>
      <point x="197" y="-203"/>
      <point x="216" y="-189" type="curve"/>
      <point x="207" y="-173" type="line"/>
      <point x="195" y="-183"/>
      <point x="180" y="-190"/>
      <point x="165" y="-190" type="curve" smooth="yes"/>
      <point x="138" y="-190"/>
      <point x="120" y="-167"/>
      <point x="120" y="-136" type="curve" smooth="yes"/>
      <point x="120" y="-97"/>
      <point x="151" y="-53"/>
      <point x="216" y="0" type="curve"/>
      <point x="202" y="0" type="line"/>
      <point x="133" y="-55"/>
      <point x="100" y="-103"/>
    </contour>
  </outline>
  <guideline angle="90" x="301" y="0"/>
</glyph>
<glyph name="tilde" format="2">
  <advance width="406"/>
  <unicode hex="02DC"/>
  <anchor x="203" y="530" name="_top"/>
  <outline>
    <contour>
      <point x="65" y="530" type="curve"/>
      <point x="85" y="530" type="line"/>
      <point x="88" y="561"/>
      <point x="110" y="581"/>
      <point x="136" y="581" type="curve" smooth="yes"/>
      <point x="148" y="581"/>
      <point x="159" y="577"/>
      <point x="184" y="564" type="curve" smooth="yes"/>
      <point x="212" y="550" type="line" smooth="yes"/>
      <point x="246" y="533"/>
      <point x="252" y="530"/>
      <point x="271" y="530" type="curve" smooth="yes"/>
      <point x="302" y="530"/>
      <point x="322" y="550"/>
      <point x="341" y="601" type="curve"/>
      <point x="321" y="601" type="line"/>
      <point x="310" y="568"/>
      <point x="293" y="550"/>
      <point x="271" y="550" type="curve" smooth="yes"/>
      <point x="258" y="550"/>
      <point x="249" y="553"/>
      <point x="232" y="562" type="curve" smooth="yes"/>
      <point x="192" y="583" type="line" smooth="yes"/>
      <point x="165" y="597"/>
      <point x="157" y="601"/>
      <point x="136" y="601" type="curve" smooth="yes"/>
      <point x="98" y="601"/>
      <point x="73" y="576"/>
    </contour>
  </outline>
  <guideline angle="0" x="0" y="530"/>
</glyph>
<glyph name="hungarumlaut" format="2">
  <advance width="378"/>
  <unicode hex="02DD"/>
  <anchor x="154" y="530" name="_top"/>
  <outline>
    <contour>
      <point x="100" y="530" type="line"/>
      <point x="115" y="530" type="line"/>
      <point x="198" y="690" type="line"/>
      <point x="177" y="690" type="line"/>
    </contour>
    <contour>
      <point x="180" y="530" type="line"/>
      <point x="195" y="530" type="line"/>
      <point x="278" y="690" type="line"/>
      <point x="257" y="690" type="line"/>
    </contour>
  </outline>
  <guideline angle="0" x="0" y="530"/>
</glyph>
<glyph name="uni0302" format="2">
  <unicode hex="0302"/>
  <anchor x="-220" y="530" name="_top"/>
  <outline>
    <contour>
      <point x="-345" y="530" type="line"/>
      <point x="-330" y="530" type="line"/>
      <point x="-213" y="677" type="line"/>
      <point x="-227" y="677" type="line"/>
      <point x="-110" y="530" type="line"/>
      <point x="-95" y="530" type="line"/>
      <point x="-209" y="690" type="line"/>
      <point x="-230" y="690" type="line"/>
    </contour>
  </outline>
  <guideline angle="0" x="0" y="530"/>
</glyph>
<glyph name="uni0304" format="2">
  <unicode hex="0304"/>
  <anchor x="-265" y="530" name="_top"/>
  <outline>
    <contour>
      <point x="-400" y="530" type="line"/>
      <point x="-130" y="530" type="line"/>
      <point x="-130" y="548" type="line"/>
      <point x="-400" y="548" type="line"/>
    </contour>
  </outline>
  <guideline angle="0" x="0" y="530"/>
  <guideline angle="90" x="-400" y="0"/>
  <guideline angle="0" x="0" y="548"/>
  <guideline angle="90" x="-265" y="0"/>
</glyph>
<glyph name="uni030A" format="2">
  <unicode hex="030A"/>
  <anchor x="-189" y="530" name="_t.ring"/>
  <outline>
    <contour>
      <point x="-267" y="608" type="curve" smooth="yes"/>
      <point x="-267" y="565"/>
      <point x="-232" y="530"/>
      <point x="-189" y="530" type="curve" smooth="yes"/>
      <point x="-146" y="530"/>
      <point x="-111" y="565"/>
      <point x="-111" y="608" type="curve" smooth="yes"/>
      <point x="-111" y="651"/>
      <point x="-146" y="686"/>
      <point x="-189" y="686" type="curve" smooth="yes"/>
      <point x="-232" y="686"/>
      <point x="-267" y="651"/>
    </contour>
    <contour>
      <point x="-247" y="608" type="curve" smooth="yes"/>
      <point x="-247" y="642"/>
      <point x="-222" y="668"/>
      <point x="-189" y="668" type="curve" smooth="yes"/>
      <point x="-155" y="668"/>
      <point x="-130" y="642"/>
      <point x="-130" y="608" type="curve" smooth="yes"/>
      <point x="-130" y="575"/>
      <point x="-155" y="549"/>
      <point x="-189" y="549" type="curve" smooth="yes"/>
      <point x="-222" y="549"/>
      <point x="-247" y="575"/>
    </contour>
  </outline>
</glyph>
<glyph name="uni030F" format="2">
  <unicode hex="030F"/>
  <anchor x="-220" y="530" name="_top"/>
  <outline>
    <contour>
      <point x="-341" y="690" type="line"/>
      <point x="-258" y="530" type="line"/>
      <point x="-243" y="530" type="line"/>
      <point x="-320" y="690" type="line"/>
    </contour>
    <contour>
      <point x="-261" y="690" type="line"/>
      <point x="-178" y="530" type="line"/>
      <point x="-163" y="530" type="line"/>
      <point x="-240" y="690" type="line"/>
    </contour>
  </outline>
</glyph>
<glyph name="uni0312" format="2">
  <unicode hex="0312"/>
  <outline>
    <contour>
      <point x="-170" y="520" type="line"/>
      <point x="-150" y="520" type="line"/>
      <point x="-150" y="600" type="line"/>
      <point x="-156" y="600" type="line"/>
      <point x="-137" y="700" type="line"/>
      <point x="-147" y="700" type="line"/>
      <point x="-170" y="600" type="line"/>
    </contour>
  </outline>
</glyph>
<glyph name="uni0325" format="2">
  <unicode hex="0325"/>
  <anchor x="-208" y="-40" name="_bottom"/>
  <outline>
    <contour>
      <point x="-286" y="-118" type="curve" smooth="yes"/>
      <point x="-286" y="-161"/>
      <point x="-251" y="-196"/>
      <point x="-208" y="-196" type="curve" smooth="yes"/>
      <point x="-165" y="-196"/>
      <point x="-130" y="-161"/>
      <point x="-130" y="-118" type="curve" smooth="yes"/>
      <point x="-130" y="-75"/>
      <point x="-165" y="-40"/>
      <point x="-208" y="-40" type="curve" smooth="yes"/>
      <point x="-251" y="-40"/>
      <point x="-286" y="-75"/>
    </contour>
    <contour>
      <point x="-266" y="-118" type="curve" smooth="yes"/>
      <point x="-266" y="-84"/>
      <point x="-241" y="-58"/>
      <point x="-208" y="-58" type="curve" smooth="yes"/>
      <point x="-175" y="-58"/>
      <point x="-150" y="-83"/>
      <point x="-150" y="-118" type="curve" smooth="yes"/>
      <point x="-150" y="-152"/>
      <point x="-175" y="-178"/>
      <point x="-208" y="-178" type="curve" smooth="yes"/>
      <point x="-240" y="-178"/>
      <point x="-266" y="-152"/>
    </contour>
  </outline>
  <guideline angle="0" x="0" y="530"/>
  <guideline angle="0" x="0" y="-40"/>
  <guideline angle="90" x="-130" y="0"/>
  <guideline angle="90" x="-286" y="0"/>
  <guideline angle="0" x="0" y="-196"/>
  <guideline angle="90" x="-208" y="0"/>
</glyph>
<glyph name="brevebelowcomb" format="2">
  <unicode hex="032E"/>
  <anchor x="-255" y="-40" name="_bottom"/>
  <outline>
    <contour>
      <point x="-380" y="-40" type="line"/>
      <point x="-380" y="-128"/>
      <point x="-334" y="-180"/>
      <point x="-255" y="-180" type="curve" smooth="yes"/>
      <point x="-172" y="-180"/>
      <point x="-130" y="-133"/>
      <point x="-130" y="-40" type="curve"/>
      <point x="-150" y="-40" type="line"/>
      <point x="-150" y="-120"/>
      <point x="-185" y="-162"/>
      <point x="-255" y="-162" type="curve" smooth="yes"/>
      <point x="-322" y="-162"/>
      <point x="-360" y="-116"/>
      <point x="-360" y="-40" type="curve"/>
    </contour>
  </outline>
  <guideline angle="90" x="-380" y="0"/>
  <guideline angle="0" x="0" y="-180"/>
  <guideline angle="90" name="h_1" x="-255" y="0"/>
</glyph>
<glyph name="mu" format="2">
  <advance width="440"/>
  <unicode hex="03BC"/>
  <outline>
    <contour>
      <point x="90" y="-200" type="line"/>
      <point x="110" y="-200" type="line"/>
      <point x="110" y="-50" type="line" smooth="yes"/>
      <point x="110" y="16"/>
      <point x="108" y="92"/>
      <point x="100" y="158" type="curve"/>
      <point x="97" y="156" type="line"/>
      <point x="108" y="58"/>
      <point x="156" y="-8"/>
      <point x="217" y="-8" type="curve" smooth="yes"/>
      <point x="256" y="-8"/>
      <point x="300" y="20"/>
      <point x="327" y="87" type="curve"/>
      <point x="330" y="87" type="line"/>
      <point x="330" y="0" type="line"/>
      <point x="350" y="0" type="line"/>
      <point x="350" y="460" type="line"/>
      <point x="330" y="460" type="line"/>
      <point x="330" y="214" type="line" smooth="yes"/>
      <point x="330" y="92"/>
      <point x="286" y="10"/>
      <point x="219" y="10" type="curve" smooth="yes"/>
      <point x="161" y="10"/>
      <point x="110" y="76"/>
      <point x="110" y="215" type="curve" smooth="yes"/>
      <point x="110" y="460" type="line"/>
      <point x="90" y="460" type="line"/>
    </contour>
  </outline>
</glyph>
<glyph name="uni0402" format="2">
  <advance width="532"/>
  <unicode hex="0402"/>
  <outline>
    <component base="uni040B"/>
    <contour>
      <point x="248" y="-90" type="line"/>
      <point x="248" y="-166"/>
      <point x="293" y="-200"/>
      <point x="347" y="-200" type="curve" smooth="yes"/>
      <point x="418" y="-200"/>
      <point x="442" y="-167"/>
      <point x="442" y="-66" type="curve" smooth="yes"/>
      <point x="442" y="50" type="line"/>
      <point x="422" y="50" type="line"/>
      <point x="422" y="-84" type="line" smooth="yes"/>
      <point x="422" y="-148"/>
      <point x="402" y="-182"/>
      <point x="352" y="-182" type="curve" smooth="yes"/>
      <point x="303" y="-182"/>
      <point x="268" y="-157"/>
      <point x="268" y="-90" type="curve"/>
    </contour>
  </outline>
</glyph>
<glyph name="uni0404" format="2">
  <advance width="590"/>
  <unicode hex="0404"/>
  <outline>
    <contour>
      <point x="358" y="-10" type="line"/>
      <point x="491" y="-10"/>
      <point x="584" y="70"/>
      <point x="610" y="184" type="curve"/>
      <point x="590" y="184" type="line"/>
      <point x="565" y="75"/>
      <point x="475" y="10"/>
      <point x="358" y="10" type="curve"/>
    </contour>
    <contour>
      <point x="80" y="340" type="curve" smooth="yes"/>
      <point x="80" y="121"/>
      <point x="184" y="-8"/>
      <point x="358" y="-8" type="curve"/>
      <point x="358" y="12" type="line"/>
      <point x="194" y="12"/>
      <point x="102" y="131"/>
      <point x="102" y="340" type="curve" smooth="yes"/>
      <point x="102" y="549"/>
      <point x="194" y="668"/>
      <point x="358" y="668" type="curve"/>
      <point x="358" y="688" type="line"/>
      <point x="184" y="688"/>
      <point x="80" y="559"/>
    </contour>
    <contour>
      <point x="90" y="344" type="line"/>
      <point x="315" y="344" type="line"/>
      <point x="315" y="362" type="line"/>
      <point x="90" y="362" type="line"/>
    </contour>
    <contour>
      <point x="358" y="668" type="line"/>
      <point x="484" y="668"/>
      <point x="574" y="587"/>
      <point x="605" y="452" type="curve"/>
      <point x="625" y="452" type="line"/>
      <point x="593" y="604"/>
      <point x="496" y="688"/>
      <point x="358" y="688" type="curve"/>
    </contour>
  </outline>
</glyph>
<glyph name="uni040B" format="2">
  <advance width="568"/>
  <unicode hex="040B"/>
  <outline>
    <component base="T"/>
    <contour>
      <point x="196" y="301" type="line"/>
      <point x="212" y="301" type="line"/>
      <point x="212" y="377"/>
      <point x="273" y="450"/>
      <point x="348" y="450" type="curve" smooth="yes"/>
      <point x="423" y="450"/>
      <point x="458" y="413"/>
      <point x="458" y="335" type="curve" smooth="yes"/>
      <point x="458" y="0" type="line"/>
      <point x="478" y="0" type="line"/>
      <point x="478" y="335" type="line" smooth="yes"/>
      <point x="478" y="423"/>
      <point x="435" y="468"/>
      <point x="351" y="468" type="curve" smooth="yes"/>
      <point x="280" y="468"/>
      <point x="217" y="417"/>
      <point x="198" y="338" type="curve"/>
      <point x="216" y="338" type="line"/>
      <point x="216" y="385" type="line"/>
      <point x="196" y="385" type="line"/>
    </contour>
  </outline>
  <guideline angle="90" x="190" y="0"/>
  <guideline angle="90" x="478" y="0"/>
</glyph>
<glyph name="uni040F" format="2">
  <advance width="528"/>
  <unicode hex="040F"/>
  <outline>
    <contour>
      <point x="100" y="0" type="line"/>
      <point x="428" y="0" type="line"/>
      <point x="428" y="680" type="line"/>
      <point x="406" y="680" type="line"/>
      <point x="406" y="20" type="line"/>
      <point x="122" y="20" type="line"/>
      <point x="122" y="680" type="line"/>
      <point x="100" y="680" type="line"/>
    </contour>
    <contour>
      <point x="253" y="-140" type="line"/>
      <point x="275" y="-140" type="line"/>
      <point x="275" y="10" type="line"/>
      <point x="253" y="10" type="line"/>
    </contour>
  </outline>
  <guideline angle="90" x="122" y="0"/>
  <guideline angle="90" x="406" y="0"/>
  <guideline angle="90" x="264" y="0"/>
</glyph>
<glyph name="uni0411" format="2">
  <advance width="490"/>
  <unicode hex="0411"/>
  <outline>
    <contour>
      <point x="100" y="0" type="line"/>
      <point x="122" y="0" type="line"/>
      <point x="122" y="680" type="line"/>
      <point x="100" y="680" type="line"/>
    </contour>
    <contour>
      <point x="105" y="660" type="line"/>
      <point x="359" y="660" type="line"/>
      <point x="359" y="680" type="line"/>
      <point x="105" y="680" type="line"/>
    </contour>
    <contour>
      <point x="105" y="0" type="line"/>
      <point x="245" y="0" type="line" smooth="yes"/>
      <point x="354" y="0"/>
      <point x="415" y="74"/>
      <point x="415" y="205" type="curve" smooth="yes"/>
      <point x="415" y="305"/>
      <point x="347" y="372"/>
      <point x="245" y="372" type="curve" smooth="yes"/>
      <point x="105" y="372" type="line"/>
      <point x="105" y="352" type="line"/>
      <point x="245" y="352" type="line" smooth="yes"/>
      <point x="332" y="352"/>
      <point x="393" y="292"/>
      <point x="393" y="205" type="curve" smooth="yes"/>
      <point x="393" y="86"/>
      <point x="340" y="20"/>
      <point x="245" y="20" type="curve" smooth="yes"/>
      <point x="105" y="20" type="line"/>
    </contour>
  </outline>
  <guideline angle="90" x="114" y="0"/>
</glyph>
<glyph name="uni0413" format="2">
  <advance width="398"/>
  <unicode hex="0413"/>
  <outline>
    <contour>
      <point x="100" y="0" type="line"/>
      <point x="122" y="0" type="line"/>
      <point x="122" y="680" type="line"/>
      <point x="100" y="680" type="line"/>
    </contour>
    <contour>
      <point x="107" y="660" type="line"/>
      <point x="375" y="660" type="line"/>
      <point x="375" y="680" type="line"/>
      <point x="107" y="680" type="line"/>
    </contour>
  </outline>
</glyph>
<glyph name="uni0414" format="2">
  <advance width="543"/>
  <unicode hex="0414"/>
  <outline>
    <contour>
      <point x="41" y="0" type="line"/>
      <point x="104" y="0"/>
      <point x="138" y="37"/>
      <point x="140" y="107" type="curve" smooth="yes"/>
      <point x="156" y="680" type="line"/>
      <point x="134" y="680" type="line"/>
      <point x="116" y="99" type="line" smooth="yes"/>
      <point x="115" y="53"/>
      <point x="78" y="20"/>
      <point x="41" y="20" type="curve"/>
    </contour>
    <contour>
      <point x="426" y="0" type="line"/>
      <point x="448" y="0" type="line"/>
      <point x="448" y="680" type="line"/>
      <point x="426" y="680" type="line"/>
    </contour>
    <contour>
      <point x="143" y="660" type="line"/>
      <point x="439" y="660" type="line"/>
      <point x="439" y="680" type="line"/>
      <point x="143" y="680" type="line"/>
    </contour>
    <contour>
      <point x="23" y="-150" type="line"/>
      <point x="45" y="-150" type="line"/>
      <point x="45" y="0" type="line"/>
      <point x="499" y="0" type="line"/>
      <point x="499" y="-150" type="line"/>
      <point x="521" y="-150" type="line"/>
      <point x="521" y="20" type="line"/>
      <point x="23" y="20" type="line"/>
    </contour>
  </outline>
</glyph>
<glyph name="uni0416" format="2">
  <advance width="598"/>
  <unicode hex="0416"/>
  <outline>
    <contour>
      <point x="10" y="0" type="line"/>
      <point x="35" y="0" type="line"/>
      <point x="225" y="368" type="line"/>
      <point x="299" y="242" type="line"/>
      <point x="299" y="286" type="line"/>
      <point x="66" y="680" type="line"/>
      <point x="41" y="680" type="line"/>
      <point x="211" y="390" type="line"/>
    </contour>
    <contour>
      <point x="288" y="0" type="line"/>
      <point x="310" y="0" type="line"/>
      <point x="310" y="680" type="line"/>
      <point x="288" y="680" type="line"/>
    </contour>
    <contour>
      <point x="299" y="242" type="line"/>
      <point x="373" y="368" type="line"/>
      <point x="563" y="0" type="line"/>
      <point x="588" y="0" type="line"/>
      <point x="387" y="391" type="line"/>
      <point x="557" y="680" type="line"/>
      <point x="532" y="680" type="line"/>
      <point x="299" y="286" type="line"/>
    </contour>
  </outline>
  <guideline angle="120.594" x="296" y="291"/>
  <guideline angle="239.406" x="532" y="680"/>
  <guideline angle="62.737" x="35" y="0"/>
  <guideline angle="242.734" x="211" y="390"/>
  <guideline angle="300.426" x="230" y="359"/>
  <guideline angle="59.5742" x="294" y="233"/>
  <guideline angle="297.263" x="378" y="359"/>
  <guideline angle="117.266" x="588" y="0"/>
  <guideline angle="90" x="299" y="0"/>
</glyph>
<glyph name="uni0417" format="2">
  <advance width="453"/>
  <unicode hex="0417"/>
  <outline>
    <contour>
      <point x="63" y="185" type="line"/>
      <point x="63" y="78"/>
      <point x="137" y="0"/>
      <point x="238" y="0" type="curve" smooth="yes"/>
      <point x="348" y="0"/>
      <point x="416" y="75"/>
      <point x="416" y="196" type="curve" smooth="yes"/>
      <point x="416" y="298"/>
      <point x="357" y="364"/>
      <point x="260" y="371" type="curve"/>
      <point x="260" y="357" type="line"/>
      <point x="344" y="385"/>
      <point x="389" y="439"/>
      <point x="389" y="512" type="curve" smooth="yes"/>
      <point x="389" y="627"/>
      <point x="329" y="690"/>
      <point x="219" y="690" type="curve" smooth="yes"/>
      <point x="127" y="690"/>
      <point x="63" y="616"/>
      <point x="63" y="510" type="curve"/>
      <point x="85" y="510" type="line"/>
      <point x="85" y="603"/>
      <point x="141" y="670"/>
      <point x="219" y="670" type="curve" smooth="yes"/>
      <point x="315" y="670"/>
      <point x="367" y="615"/>
      <point x="367" y="512" type="curve" smooth="yes"/>
      <point x="367" y="438"/>
      <point x="308" y="377"/>
      <point x="236" y="377" type="curve" smooth="yes"/>
      <point x="158" y="377" type="line"/>
      <point x="158" y="357" type="line"/>
      <point x="236" y="357" type="line" smooth="yes"/>
      <point x="332" y="357"/>
      <point x="394" y="293"/>
      <point x="394" y="192" type="curve" smooth="yes"/>
      <point x="394" y="87"/>
      <point x="334" y="20"/>
      <point x="238" y="20" type="curve" smooth="yes"/>
      <point x="155" y="20"/>
      <point x="85" y="95"/>
      <point x="85" y="185" type="curve"/>
    </contour>
  </outline>
</glyph>
<glyph name="uni0418" format="2">
  <advance width="577"/>
  <unicode hex="0418"/>
  <anchor x="289" y="740" name="top"/>
  <outline>
    <contour>
      <point x="100" y="0" type="line"/>
      <point x="119" y="0" type="line"/>
      <point x="428" y="581" type="line" smooth="yes"/>
      <point x="442" y="607"/>
      <point x="457" y="635"/>
      <point x="463" y="653" type="curve"/>
      <point x="460" y="653" type="line"/>
      <point x="457" y="623"/>
      <point x="455" y="584"/>
      <point x="455" y="557" type="curve" smooth="yes"/>
      <point x="455" y="0" type="line"/>
      <point x="477" y="0" type="line"/>
      <point x="477" y="680" type="line"/>
      <point x="458" y="680" type="line"/>
      <point x="147" y="94" type="line" smooth="yes"/>
      <point x="131" y="63"/>
      <point x="118" y="35"/>
      <point x="115" y="27" type="curve"/>
      <point x="119" y="27" type="line"/>
      <point x="121" y="42"/>
      <point x="122" y="68"/>
      <point x="122" y="118" type="curve" smooth="yes"/>
      <point x="122" y="680" type="line"/>
      <point x="100" y="680" type="line"/>
    </contour>
  </outline>
  <guideline angle="0" x="0" y="545"/>
  <guideline angle="0" x="0" y="143"/>
  <guideline angle="90" x="288.5" y="0"/>
  <guideline angle="0" x="0" y="563"/>
  <guideline angle="61.9941" x="119" y="0"/>
</glyph>
<glyph name="uni041A" format="2">
  <advance width="409"/>
  <unicode hex="041A"/>
  <anchor x="248" y="-40" name="bottom"/>
  <anchor x="221" y="740" name="top"/>
  <outline>
    <contour>
      <point x="100" y="0" type="line"/>
      <point x="122" y="0" type="line"/>
      <point x="122" y="680" type="line"/>
      <point x="100" y="680" type="line"/>
    </contour>
    <contour>
      <point x="112" y="356" type="line"/>
      <point x="179" y="356" type="line"/>
      <point x="375" y="680" type="line"/>
      <point x="349" y="680" type="line"/>
      <point x="157" y="363" type="line"/>
      <point x="180" y="376" type="line"/>
      <point x="112" y="376" type="line"/>
    </contour>
    <contour>
      <point x="166" y="360" type="line"/>
      <point x="374" y="0" type="line"/>
      <point x="399" y="0" type="line"/>
      <point x="179" y="383" type="line"/>
    </contour>
  </outline>
  <guideline angle="0" x="0" y="376"/>
  <guideline angle="0" x="0" y="333"/>
</glyph>
<glyph name="uni041B" format="2">
  <advance width="501"/>
  <unicode hex="041B"/>
  <outline>
    <contour>
      <point x="3" y="-6" type="line"/>
      <point x="14" y="-6" type="line" smooth="yes"/>
      <point x="71" y="-6"/>
      <point x="99" y="40"/>
      <point x="101" y="107" type="curve" smooth="yes"/>
      <point x="119" y="680" type="line"/>
      <point x="96" y="680" type="line"/>
      <point x="79" y="99" type="line" smooth="yes"/>
      <point x="77" y="56"/>
      <point x="46" y="14"/>
      <point x="14" y="14" type="curve" smooth="yes"/>
      <point x="3" y="14" type="line"/>
    </contour>
    <contour>
      <point x="379" y="0" type="line"/>
      <point x="401" y="0" type="line"/>
      <point x="401" y="680" type="line"/>
      <point x="379" y="680" type="line"/>
    </contour>
    <contour>
      <point x="105" y="660" type="line"/>
      <point x="401" y="660" type="line"/>
      <point x="401" y="680" type="line"/>
      <point x="105" y="680" type="line"/>
    </contour>
  </outline>
  <guideline angle="88.2573" x="90" y="187"/>
  <guideline angle="268.298" x="121.5" y="680"/>
</glyph>
<glyph name="uni041F" format="2">
  <advance width="509"/>
  <unicode hex="041F"/>
  <outline>
    <contour>
      <point x="100" y="0" type="line"/>
      <point x="122" y="0" type="line"/>
      <point x="122" y="660" type="line"/>
      <point x="387" y="660" type="line"/>
      <point x="387" y="0" type="line"/>
      <point x="409" y="0" type="line"/>
      <point x="409" y="680" type="line"/>
      <point x="100" y="680" type="line"/>
    </contour>
  </outline>
</glyph>
<glyph name="uni0423" format="2">
  <advance width="382"/>
  <unicode hex="0423"/>
  <outline>
    <contour>
      <point x="10" y="680" type="line"/>
      <point x="195" y="99" type="line"/>
      <point x="207" y="134" type="line"/>
      <point x="33" y="680" type="line"/>
    </contour>
    <contour>
      <point x="74" y="-6" type="line"/>
      <point x="93" y="-6" type="line" smooth="yes"/>
      <point x="148" y="-6"/>
      <point x="190" y="44"/>
      <point x="208" y="104" type="curve" smooth="yes"/>
      <point x="372" y="680" type="line"/>
      <point x="349" y="680" type="line"/>
      <point x="187" y="110" type="line" smooth="yes"/>
      <point x="171" y="55"/>
      <point x="133" y="14"/>
      <point x="92" y="14" type="curve" smooth="yes"/>
      <point x="74" y="14" type="line"/>
    </contour>
  </outline>
  <guideline angle="107.663" x="204" y="143"/>
</glyph>
<glyph name="uni0424" format="2">
  <advance width="641"/>
  <unicode hex="0424"/>
  <outline>
    <contour>
      <point x="100" y="349" type="curve" smooth="yes"/>
      <point x="100" y="213"/>
      <point x="170" y="95"/>
      <point x="283" y="95" type="curve" smooth="yes"/>
      <point x="293" y="95"/>
      <point x="319" y="97"/>
      <point x="329" y="99" type="curve"/>
      <point x="328" y="120" type="line"/>
      <point x="308" y="116"/>
      <point x="293" y="115"/>
      <point x="281" y="115" type="curve" smooth="yes"/>
      <point x="192" y="115"/>
      <point x="122" y="213"/>
      <point x="122" y="350" type="curve" smooth="yes"/>
      <point x="122" y="494"/>
      <point x="191" y="582"/>
      <point x="278" y="582" type="curve" smooth="yes"/>
      <point x="290" y="582"/>
      <point x="307" y="581"/>
      <point x="329" y="577" type="curve"/>
      <point x="329" y="598" type="line"/>
      <point x="318" y="600"/>
      <point x="292" y="602"/>
      <point x="281" y="602" type="curve" smooth="yes"/>
      <point x="170" y="602"/>
      <point x="100" y="496"/>
    </contour>
    <contour>
      <point x="311" y="20" type="line"/>
      <point x="333" y="20" type="line"/>
      <point x="333" y="680" type="line"/>
      <point x="311" y="680" type="line"/>
    </contour>
    <contour>
      <point x="312" y="99" type="line"/>
      <point x="323" y="97"/>
      <point x="349" y="95"/>
      <point x="361" y="95" type="curve" smooth="yes"/>
      <point x="472" y="95"/>
      <point x="543" y="201"/>
      <point x="543" y="348" type="curve" smooth="yes"/>
      <point x="543" y="484"/>
      <point x="471" y="602"/>
      <point x="359" y="602" type="curve" smooth="yes"/>
      <point x="349" y="602"/>
      <point x="322" y="600"/>
      <point x="313" y="598" type="curve"/>
      <point x="314" y="576" type="line"/>
      <point x="333" y="581"/>
      <point x="349" y="582"/>
      <point x="360" y="582" type="curve" smooth="yes"/>
      <point x="449" y="582"/>
      <point x="521" y="484"/>
      <point x="521" y="347" type="curve" smooth="yes"/>
      <point x="521" y="203"/>
      <point x="451" y="115"/>
      <point x="363" y="115" type="curve" smooth="yes"/>
      <point x="351" y="115"/>
      <point x="335" y="116"/>
      <point x="312" y="119" type="curve"/>
    </contour>
  </outline>
</glyph>
<glyph name="uni0426" format="2">
  <advance width="491"/>
  <unicode hex="0426"/>
  <outline>
    <contour>
      <point x="89" y="0" type="line"/>
      <point x="398" y="0" type="line"/>
      <point x="398" y="20" type="line"/>
      <point x="89" y="20" type="line"/>
    </contour>
    <contour>
      <point x="403" y="0" type="line"/>
      <point x="419" y="0" type="line"/>
      <point x="419" y="-140" type="line"/>
      <point x="441" y="-140" type="line"/>
      <point x="441" y="20" type="line"/>
      <point x="403" y="20" type="line"/>
    </contour>
    <contour>
      <point x="89" y="0" type="line"/>
      <point x="111" y="0" type="line"/>
      <point x="111" y="680" type="line"/>
      <point x="89" y="680" type="line"/>
    </contour>
    <contour>
      <point x="394" y="0" type="line"/>
      <point x="416" y="0" type="line"/>
      <point x="416" y="680" type="line"/>
      <point x="394" y="680" type="line"/>
    </contour>
  </outline>
</glyph>
<glyph name="uni0427" format="2">
  <advance width="438"/>
  <unicode hex="0427"/>
  <outline>
    <contour>
      <point x="38" y="500" type="line" smooth="yes"/>
      <point x="38" y="391"/>
      <point x="89" y="317"/>
      <point x="165" y="317" type="curve" smooth="yes"/>
      <point x="329" y="317" type="line"/>
      <point x="329" y="337" type="line"/>
      <point x="171" y="337" type="line" smooth="yes"/>
      <point x="114" y="337"/>
      <point x="60" y="397"/>
      <point x="60" y="500" type="curve" smooth="yes"/>
      <point x="60" y="680" type="line"/>
      <point x="38" y="680" type="line"/>
    </contour>
    <contour>
      <point x="316" y="0" type="line"/>
      <point x="338" y="0" type="line"/>
      <point x="338" y="680" type="line"/>
      <point x="316" y="680" type="line"/>
    </contour>
  </outline>
</glyph>
<glyph name="uni0428" format="2">
  <advance width="722"/>
  <unicode hex="0428"/>
  <outline>
    <contour>
      <point x="107" y="0" type="line"/>
      <point x="613" y="0" type="line"/>
      <point x="613" y="20" type="line"/>
      <point x="107" y="20" type="line"/>
    </contour>
    <contour>
      <point x="100" y="0" type="line"/>
      <point x="122" y="0" type="line"/>
      <point x="122" y="680" type="line"/>
      <point x="100" y="680" type="line"/>
    </contour>
    <contour>
      <point x="350" y="0" type="line"/>
      <point x="372" y="0" type="line"/>
      <point x="372" y="680" type="line"/>
      <point x="350" y="680" type="line"/>
    </contour>
    <contour>
      <point x="600" y="0" type="line"/>
      <point x="622" y="0" type="line"/>
      <point x="622" y="680" type="line"/>
      <point x="600" y="680" type="line"/>
    </contour>
  </outline>
  <guideline angle="0" x="0" y="619"/>
</glyph>
<glyph name="uni0429" format="2">
  <advance width="696"/>
  <unicode hex="0429"/>
  <outline>
    <contour>
      <point x="107" y="0" type="line"/>
      <point x="607" y="0" type="line"/>
      <point x="607" y="20" type="line"/>
      <point x="107" y="20" type="line"/>
    </contour>
    <contour>
      <point x="616" y="0" type="line"/>
      <point x="624" y="0" type="line"/>
      <point x="624" y="-140" type="line"/>
      <point x="646" y="-140" type="line"/>
      <point x="646" y="20" type="line"/>
      <point x="616" y="20" type="line"/>
    </contour>
    <contour>
      <point x="100" y="0" type="line"/>
      <point x="122" y="0" type="line"/>
      <point x="122" y="680" type="line"/>
      <point x="100" y="680" type="line"/>
    </contour>
    <contour>
      <point x="350" y="0" type="line"/>
      <point x="372" y="0" type="line"/>
      <point x="372" y="680" type="line"/>
      <point x="350" y="680" type="line"/>
    </contour>
    <contour>
      <point x="600" y="0" type="line"/>
      <point x="622" y="0" type="line"/>
      <point x="622" y="680" type="line"/>
      <point x="600" y="680" type="line"/>
    </contour>
  </outline>
  <guideline angle="0" x="0" y="631"/>
</glyph>
<glyph name="uni042A" format="2">
  <advance width="544"/>
  <unicode hex="042A"/>
  <anchor x="268" y="740" name="top"/>
  <outline>
    <contour>
      <point x="188" y="0" type="line"/>
      <point x="210" y="0" type="line"/>
      <point x="210" y="680" type="line"/>
      <point x="188" y="680" type="line"/>
    </contour>
    <contour>
      <point x="38" y="660" type="line"/>
      <point x="210" y="660" type="line"/>
      <point x="210" y="680" type="line"/>
      <point x="38" y="680" type="line"/>
    </contour>
    <contour>
      <point x="199" y="0" type="line"/>
      <point x="314" y="0" type="line" smooth="yes"/>
      <point x="416" y="0"/>
      <point x="484" y="75"/>
      <point x="484" y="187" type="curve" smooth="yes"/>
      <point x="484" y="298"/>
      <point x="416" y="372"/>
      <point x="314" y="372" type="curve" smooth="yes"/>
      <point x="199" y="372" type="line"/>
      <point x="199" y="352" type="line"/>
      <point x="310" y="352" type="line" smooth="yes"/>
      <point x="401" y="352"/>
      <point x="462" y="287"/>
      <point x="462" y="189" type="curve" smooth="yes"/>
      <point x="462" y="82"/>
      <point x="406" y="20"/>
      <point x="310" y="20" type="curve" smooth="yes"/>
      <point x="199" y="20" type="line"/>
    </contour>
  </outline>
</glyph>
<glyph name="uni042B" format="2">
  <advance width="642"/>
  <unicode hex="042B"/>
  <anchor x="328" y="740" name="top"/>
  <outline>
    <contour>
      <point x="520" y="0" type="line"/>
      <point x="542" y="0" type="line"/>
      <point x="542" y="680" type="line"/>
      <point x="520" y="680" type="line"/>
    </contour>
    <contour>
      <point x="111" y="0" type="line"/>
      <point x="232" y="0" type="line" smooth="yes"/>
      <point x="335" y="0"/>
      <point x="402" y="73"/>
      <point x="402" y="189" type="curve" smooth="yes"/>
      <point x="402" y="302"/>
      <point x="337" y="372"/>
      <point x="232" y="372" type="curve" smooth="yes"/>
      <point x="111" y="372" type="line"/>
      <point x="111" y="352" type="line"/>
      <point x="232" y="352" type="line" smooth="yes"/>
      <point x="323" y="352"/>
      <point x="380" y="289"/>
      <point x="380" y="189" type="curve" smooth="yes"/>
      <point x="380" y="86"/>
      <point x="321" y="20"/>
      <point x="232" y="20" type="curve" smooth="yes"/>
      <point x="111" y="20" type="line"/>
    </contour>
    <contour>
      <point x="100" y="0" type="line"/>
      <point x="122" y="0" type="line"/>
      <point x="122" y="680" type="line"/>
      <point x="100" y="680" type="line"/>
    </contour>
  </outline>
</glyph>
<glyph name="uni042C" format="2">
  <advance width="482"/>
  <unicode hex="042C"/>
  <outline>
    <contour>
      <point x="111" y="0" type="line"/>
      <point x="232" y="0" type="line" smooth="yes"/>
      <point x="341" y="0"/>
      <point x="402" y="74"/>
      <point x="402" y="205" type="curve" smooth="yes"/>
      <point x="402" y="305"/>
      <point x="334" y="372"/>
      <point x="232" y="372" type="curve" smooth="yes"/>
      <point x="111" y="372" type="line"/>
      <point x="111" y="352" type="line"/>
      <point x="232" y="352" type="line" smooth="yes"/>
      <point x="320" y="352"/>
      <point x="380" y="293"/>
      <point x="380" y="205" type="curve" smooth="yes"/>
      <point x="380" y="87"/>
      <point x="326" y="20"/>
      <point x="232" y="20" type="curve" smooth="yes"/>
      <point x="111" y="20" type="line"/>
    </contour>
    <contour>
      <point x="100" y="0" type="line"/>
      <point x="122" y="0" type="line"/>
      <point x="122" y="680" type="line"/>
      <point x="100" y="680" type="line"/>
    </contour>
  </outline>
</glyph>
<glyph name="uni042D" format="2">
  <advance width="502"/>
  <unicode hex="042D"/>
  <anchor x="248" y="740" name="top"/>
  <outline>
    <contour>
      <point x="40" y="185" type="line"/>
      <point x="71" y="56"/>
      <point x="137" y="-8"/>
      <point x="237" y="-8" type="curve" smooth="yes"/>
      <point x="367" y="-8"/>
      <point x="442" y="121"/>
      <point x="442" y="346" type="curve" smooth="yes"/>
      <point x="442" y="570"/>
      <point x="368" y="688"/>
      <point x="229" y="688" type="curve" smooth="yes"/>
      <point x="129" y="688"/>
      <point x="64" y="626"/>
      <point x="40" y="510" type="curve"/>
      <point x="62" y="510" type="line"/>
      <point x="88" y="615"/>
      <point x="143" y="668"/>
      <point x="229" y="668" type="curve" smooth="yes"/>
      <point x="354" y="668"/>
      <point x="420" y="558"/>
      <point x="420" y="346" type="curve" smooth="yes"/>
      <point x="420" y="137"/>
      <point x="352" y="12"/>
      <point x="237" y="12" type="curve" smooth="yes"/>
      <point x="154" y="12"/>
      <point x="94" y="70"/>
      <point x="62" y="185" type="curve"/>
    </contour>
    <contour>
      <point x="186" y="347" type="line"/>
      <point x="431" y="347" type="line"/>
      <point x="431" y="367" type="line"/>
      <point x="186" y="367" type="line"/>
    </contour>
  </outline>
</glyph>
<glyph name="uni042E" format="2">
  <advance width="656"/>
  <unicode hex="042E"/>
  <anchor x="328" y="740" name="top"/>
  <outline>
    <contour>
      <point x="111" y="340" type="line"/>
      <point x="205" y="340" type="line"/>
      <point x="205" y="360" type="line"/>
      <point x="111" y="360" type="line"/>
    </contour>
    <contour>
      <point x="191" y="342" type="curve" smooth="yes"/>
      <point x="191" y="124"/>
      <point x="272" y="-8"/>
      <point x="394" y="-8" type="curve" smooth="yes"/>
      <point x="525" y="-8"/>
      <point x="596" y="123"/>
      <point x="596" y="340" type="curve" smooth="yes"/>
      <point x="596" y="557"/>
      <point x="525" y="688"/>
      <point x="394" y="688" type="curve" smooth="yes"/>
      <point x="273" y="688"/>
      <point x="191" y="556"/>
    </contour>
    <contour>
      <point x="213" y="340" type="curve" smooth="yes"/>
      <point x="213" y="544"/>
      <point x="286" y="668"/>
      <point x="394" y="668" type="curve" smooth="yes"/>
      <point x="510" y="668"/>
      <point x="574" y="543"/>
      <point x="574" y="340" type="curve" smooth="yes"/>
      <point x="574" y="138"/>
      <point x="510" y="12"/>
      <point x="394" y="12" type="curve" smooth="yes"/>
      <point x="286" y="12"/>
      <point x="213" y="136"/>
    </contour>
    <contour>
      <point x="100" y="2" type="line"/>
      <point x="122" y="2" type="line"/>
      <point x="122" y="682" type="line"/>
      <point x="100" y="682" type="line"/>
    </contour>
  </outline>
</glyph>
<glyph name="uni042F" format="2">
  <advance width="478"/>
  <unicode hex="042F"/>
  <outline>
    <contour>
      <point x="38" y="475" type="curve" smooth="yes"/>
      <point x="38" y="363"/>
      <point x="113" y="280"/>
      <point x="216" y="280" type="curve" smooth="yes"/>
      <point x="370" y="280" type="line"/>
      <point x="370" y="300" type="line"/>
      <point x="215" y="300" type="line" smooth="yes"/>
      <point x="128" y="300"/>
      <point x="60" y="376"/>
      <point x="60" y="473" type="curve" smooth="yes"/>
      <point x="60" y="590"/>
      <point x="119" y="660"/>
      <point x="215" y="660" type="curve" smooth="yes"/>
      <point x="370" y="660" type="line"/>
      <point x="370" y="680" type="line"/>
      <point x="213" y="680" type="line" smooth="yes"/>
      <point x="104" y="680"/>
      <point x="38" y="602"/>
    </contour>
    <contour>
      <point x="45" y="0" type="line"/>
      <point x="74" y="0" type="line"/>
      <point x="223" y="292" type="line"/>
      <point x="200" y="292" type="line"/>
    </contour>
    <contour>
      <point x="356" y="0" type="line"/>
      <point x="378" y="0" type="line"/>
      <point x="378" y="680" type="line"/>
      <point x="356" y="680" type="line"/>
    </contour>
  </outline>
</glyph>
<glyph name="uni0431" format="2">
  <advance width="456"/>
  <unicode hex="0431"/>
  <outline>
    <contour>
      <point x="85" y="219" type="curve" smooth="yes"/>
      <point x="85" y="358"/>
      <point x="147" y="452"/>
      <point x="229" y="452" type="curve" smooth="yes"/>
      <point x="319" y="452"/>
      <point x="376" y="376"/>
      <point x="376" y="239" type="curve" smooth="yes"/>
      <point x="376" y="102"/>
      <point x="312" y="10"/>
      <point x="226" y="10" type="curve" smooth="yes"/>
      <point x="146" y="10"/>
      <point x="85" y="94"/>
    </contour>
    <contour>
      <point x="60" y="258" type="line" smooth="yes"/>
      <point x="60" y="85"/>
      <point x="121" y="-8"/>
      <point x="233" y="-8" type="curve" smooth="yes"/>
      <point x="338" y="-8"/>
      <point x="396" y="110"/>
      <point x="396" y="240" type="curve" smooth="yes"/>
      <point x="396" y="374"/>
      <point x="343" y="470"/>
      <point x="240" y="470" type="curve" smooth="yes"/>
      <point x="145" y="470"/>
      <point x="85" y="403"/>
      <point x="63" y="247" type="curve"/>
      <point x="74" y="247" type="line"/>
      <point x="78" y="281"/>
      <point x="81" y="407"/>
      <point x="81" y="421" type="curve" smooth="yes"/>
      <point x="81" y="532"/>
      <point x="124" y="583"/>
      <point x="253" y="633" type="curve" smooth="yes"/>
      <point x="289" y="647"/>
      <point x="331" y="665"/>
      <point x="358" y="685" type="curve"/>
      <point x="358" y="700" type="line"/>
      <point x="345" y="700" type="line"/>
      <point x="307" y="678"/>
      <point x="274" y="663"/>
      <point x="244" y="651" type="curve" smooth="yes"/>
      <point x="102" y="594"/>
      <point x="60" y="544"/>
      <point x="60" y="399" type="curve" smooth="yes"/>
    </contour>
  </outline>
</glyph>
<glyph name="uni0432" format="2">
  <advance width="416"/>
  <unicode hex="0432"/>
  <outline>
    <contour>
      <point x="90" y="0" type="line"/>
      <point x="110" y="0" type="line"/>
      <point x="110" y="460" type="line"/>
      <point x="90" y="460" type="line"/>
    </contour>
    <contour>
      <point x="98" y="0" type="line"/>
      <point x="238" y="0" type="line" smooth="yes"/>
      <point x="314" y="0"/>
      <point x="356" y="47"/>
      <point x="356" y="130" type="curve" smooth="yes"/>
      <point x="356" y="197"/>
      <point x="320" y="247"/>
      <point x="247" y="247" type="curve" smooth="yes"/>
      <point x="98" y="247" type="line"/>
      <point x="98" y="229" type="line"/>
      <point x="237" y="229" type="line" smooth="yes"/>
      <point x="319" y="229"/>
      <point x="336" y="162"/>
      <point x="336" y="129" type="curve" smooth="yes"/>
      <point x="336" y="59"/>
      <point x="298" y="18"/>
      <point x="230" y="18" type="curve" smooth="yes"/>
      <point x="98" y="18" type="line"/>
    </contour>
    <contour>
      <point x="98" y="442" type="line"/>
      <point x="234" y="442" type="line" smooth="yes"/>
      <point x="294" y="442"/>
      <point x="321" y="411"/>
      <point x="321" y="344" type="curve" smooth="yes"/>
      <point x="321" y="291"/>
      <point x="279" y="247"/>
      <point x="236" y="247" type="curve" smooth="yes"/>
      <point x="225" y="247" type="line"/>
      <point x="225" y="237" type="line"/>
      <point x="260" y="237" type="line"/>
      <point x="314" y="252"/>
      <point x="341" y="299"/>
      <point x="341" y="344" type="curve" smooth="yes"/>
      <point x="341" y="423"/>
      <point x="306" y="460"/>
      <point x="234" y="460" type="curve" smooth="yes"/>
      <point x="98" y="460" type="line"/>
    </contour>
  </outline>
</glyph>
<glyph name="uni0434" format="2">
  <advance width="414"/>
  <unicode hex="0434"/>
  <outline>
    <contour>
      <point x="33" y="-140" type="line"/>
      <point x="46" y="-140" type="line"/>
      <point x="54" y="0" type="line"/>
      <point x="357" y="0" type="line"/>
      <point x="365" y="-140" type="line"/>
      <point x="379" y="-140" type="line"/>
      <point x="379" y="18" type="line"/>
      <point x="33" y="18" type="line"/>
    </contour>
    <contour>
      <point x="48" y="0" type="line"/>
      <point x="58" y="0" type="line" smooth="yes"/>
      <point x="100" y="0"/>
      <point x="122" y="26"/>
      <point x="127" y="229" type="curve" smooth="yes"/>
      <point x="133" y="460" type="line"/>
      <point x="113" y="460" type="line"/>
      <point x="106" y="209" type="line" smooth="yes"/>
      <point x="101" y="43"/>
      <point x="82" y="18"/>
      <point x="48" y="18" type="curve"/>
    </contour>
    <contour>
      <point x="120" y="442" type="line"/>
      <point x="319" y="442" type="line"/>
      <point x="319" y="460" type="line"/>
      <point x="120" y="460" type="line"/>
    </contour>
    <contour>
      <point x="313" y="0" type="line"/>
      <point x="333" y="0" type="line"/>
      <point x="333" y="460" type="line"/>
      <point x="313" y="460" type="line"/>
    </contour>
  </outline>
</glyph>
<glyph name="uni0436" format="2">
  <advance width="564"/>
  <unicode hex="0436"/>
  <outline>
    <contour>
      <point x="45" y="460" type="line"/>
      <point x="288" y="172" type="line"/>
      <point x="288" y="203" type="line"/>
      <point x="71" y="460" type="line"/>
    </contour>
    <contour>
      <point x="30" y="0" type="line"/>
      <point x="54" y="0" type="line"/>
      <point x="229" y="259" type="line"/>
      <point x="216" y="275" type="line"/>
    </contour>
    <contour>
      <point x="272" y="0" type="line"/>
      <point x="292" y="0" type="line"/>
      <point x="292" y="460" type="line"/>
      <point x="272" y="460" type="line"/>
    </contour>
    <contour>
      <point x="276" y="172" type="line"/>
      <point x="519" y="460" type="line"/>
      <point x="493" y="460" type="line"/>
      <point x="276" y="203" type="line"/>
    </contour>
    <contour>
      <point x="335" y="258" type="line"/>
      <point x="510" y="0" type="line"/>
      <point x="534" y="0" type="line"/>
      <point x="348" y="274" type="line"/>
    </contour>
  </outline>
  <guideline angle="0" x="0" y="0"/>
  <guideline angle="0" x="0" y="277"/>
  <guideline angle="235.977" x="217" y="277"/>
  <guideline angle="55.9499" x="54" y="0"/>
  <guideline angle="304.203" x="336" y="256"/>
  <guideline angle="124.165" x="534" y="0"/>
  <guideline angle="229.824" x="505" y="460"/>
  <guideline angle="130.176" x="276" y="203"/>
  <guideline angle="49.844" x="276" y="172"/>
  <guideline angle="229.824" x="493" y="460"/>
  <guideline angle="0" x="0" y="203"/>
</glyph>
<glyph name="uni0437" format="2">
  <advance width="396"/>
  <unicode hex="0437"/>
  <outline>
    <contour>
      <point x="60" y="127" type="line"/>
      <point x="68" y="40"/>
      <point x="121" y="-10"/>
      <point x="203" y="-10" type="curve" smooth="yes"/>
      <point x="294" y="-10"/>
      <point x="336" y="51"/>
      <point x="336" y="127" type="curve" smooth="yes"/>
      <point x="336" y="197"/>
      <point x="312" y="234"/>
      <point x="258" y="252" type="curve"/>
      <point x="258" y="237" type="line"/>
      <point x="314" y="260"/>
      <point x="328" y="303"/>
      <point x="328" y="346" type="curve" smooth="yes"/>
      <point x="328" y="422"/>
      <point x="278" y="470"/>
      <point x="198" y="470" type="curve" smooth="yes"/>
      <point x="123" y="470"/>
      <point x="78" y="427"/>
      <point x="61" y="339" type="curve"/>
      <point x="81" y="339" type="line"/>
      <point x="96" y="412"/>
      <point x="136" y="452"/>
      <point x="198" y="452" type="curve" smooth="yes"/>
      <point x="268" y="452"/>
      <point x="308" y="411"/>
      <point x="308" y="339" type="curve" smooth="yes"/>
      <point x="308" y="299"/>
      <point x="284" y="252"/>
      <point x="231" y="252" type="curve" smooth="yes"/>
      <point x="143" y="252" type="line"/>
      <point x="143" y="234" type="line"/>
      <point x="233" y="234" type="line" smooth="yes"/>
      <point x="286" y="234"/>
      <point x="316" y="195"/>
      <point x="316" y="125" type="curve" smooth="yes"/>
      <point x="316" y="54"/>
      <point x="271" y="8"/>
      <point x="203" y="8" type="curve" smooth="yes"/>
      <point x="134" y="8"/>
      <point x="87" y="53"/>
      <point x="80" y="127" type="curve"/>
    </contour>
  </outline>
</glyph>
<glyph name="uni0438" format="2">
  <advance width="450"/>
  <unicode hex="0438"/>
  <anchor x="224" y="540" name="top"/>
  <outline>
    <contour>
      <point x="90" y="0" type="line"/>
      <point x="108" y="0" type="line"/>
      <point x="319" y="378" type="line" smooth="yes"/>
      <point x="329" y="395"/>
      <point x="334" y="405"/>
      <point x="340" y="418" type="curve"/>
      <point x="335" y="416" type="line"/>
      <point x="345" y="416" type="line"/>
      <point x="341" y="418" type="line"/>
      <point x="340" y="405"/>
      <point x="340" y="391"/>
      <point x="340" y="378" type="curve" smooth="yes"/>
      <point x="340" y="0" type="line"/>
      <point x="360" y="0" type="line"/>
      <point x="360" y="460" type="line"/>
      <point x="342" y="460" type="line"/>
      <point x="130" y="80" type="line" smooth="yes"/>
      <point x="123" y="67"/>
      <point x="116" y="54"/>
      <point x="110" y="41" type="curve"/>
      <point x="115" y="43" type="line"/>
      <point x="105" y="43" type="line"/>
      <point x="109" y="41" type="line"/>
      <point x="110" y="54"/>
      <point x="110" y="67"/>
      <point x="110" y="80" type="curve" smooth="yes"/>
      <point x="110" y="460" type="line"/>
      <point x="90" y="460" type="line"/>
    </contour>
  </outline>
</glyph>
<glyph name="uni043A" format="2">
  <advance width="388"/>
  <unicode hex="043A"/>
  <outline>
    <contour>
      <point x="90" y="0" type="line"/>
      <point x="110" y="0" type="line"/>
      <point x="110" y="460" type="line"/>
      <point x="90" y="460" type="line"/>
    </contour>
    <contour>
      <point x="100" y="175" type="line"/>
      <point x="336" y="460" type="line"/>
      <point x="310" y="460" type="line"/>
      <point x="100" y="207" type="line"/>
    </contour>
    <contour>
      <point x="158" y="261" type="line"/>
      <point x="333" y="0" type="line"/>
      <point x="358" y="0" type="line"/>
      <point x="171" y="277" type="line"/>
    </contour>
  </outline>
  <guideline angle="90" x="100" y="0"/>
  <guideline angle="230.306" x="323" y="460"/>
  <guideline angle="303.896" x="161" y="256"/>
  <guideline angle="124.023" x="358" y="0"/>
</glyph>
<glyph name="uni043B" format="2">
  <advance width="411"/>
  <unicode hex="043B"/>
  <outline>
    <contour>
      <point x="15" y="-10" type="line"/>
      <point x="28" y="-10" type="line" smooth="yes"/>
      <point x="70" y="-10"/>
      <point x="88" y="26"/>
      <point x="93" y="229" type="curve" smooth="yes"/>
      <point x="99" y="460" type="line"/>
      <point x="79" y="460" type="line"/>
      <point x="73" y="209" type="line" smooth="yes"/>
      <point x="68" y="43"/>
      <point x="49" y="8"/>
      <point x="15" y="8" type="curve"/>
    </contour>
    <contour>
      <point x="87" y="442" type="line"/>
      <point x="313" y="442" type="line"/>
      <point x="313" y="460" type="line"/>
      <point x="87" y="460" type="line"/>
    </contour>
    <contour>
      <point x="301" y="0" type="line"/>
      <point x="321" y="0" type="line"/>
      <point x="321" y="460" type="line"/>
      <point x="301" y="460" type="line"/>
    </contour>
  </outline>
  <guideline angle="268.589" x="93" y="229"/>
</glyph>
<glyph name="uni043C" format="2">
  <advance width="516"/>
  <unicode hex="043C"/>
  <outline>
    <contour>
      <point x="90" y="0" type="line"/>
      <point x="110" y="0" type="line"/>
      <point x="110" y="362" type="line" smooth="yes"/>
      <point x="110" y="389"/>
      <point x="109" y="408"/>
      <point x="107" y="428" type="curve"/>
      <point x="101" y="417" type="line"/>
      <point x="119" y="417" type="line"/>
      <point x="108" y="428" type="line"/>
      <point x="112" y="408"/>
      <point x="121" y="383"/>
      <point x="128" y="362" type="curve" smooth="yes"/>
      <point x="248" y="0" type="line"/>
      <point x="268" y="0" type="line"/>
      <point x="390" y="362" type="line" smooth="yes"/>
      <point x="397" y="383"/>
      <point x="405" y="408"/>
      <point x="409" y="428" type="curve"/>
      <point x="398" y="417" type="line"/>
      <point x="418" y="417" type="line"/>
      <point x="410" y="428" type="line"/>
      <point x="409" y="419"/>
      <point x="406" y="381"/>
      <point x="406" y="362" type="curve" smooth="yes"/>
      <point x="406" y="0" type="line"/>
      <point x="426" y="0" type="line"/>
      <point x="426" y="460" type="line"/>
      <point x="400" y="460" type="line"/>
      <point x="277" y="90" type="line" smooth="yes"/>
      <point x="268" y="63"/>
      <point x="259" y="28"/>
      <point x="259" y="23" type="curve"/>
      <point x="265" y="25" type="line"/>
      <point x="251" y="25" type="line"/>
      <point x="257" y="23" type="line"/>
      <point x="257" y="28"/>
      <point x="248" y="63"/>
      <point x="239" y="90" type="curve" smooth="yes"/>
      <point x="116" y="460" type="line"/>
      <point x="90" y="460" type="line"/>
    </contour>
  </outline>
  <guideline angle="0" x="0" y="49"/>
  <guideline angle="0" x="0" y="63"/>
  <guideline angle="0" x="0" y="80"/>
  <guideline angle="0" x="0" y="417"/>
  <guideline angle="90" x="258" y="0"/>
  <guideline angle="0" x="0" y="362"/>
  <guideline angle="0" x="0" y="428"/>
</glyph>
<glyph name="uni043D" format="2">
  <advance width="434"/>
  <unicode hex="043D"/>
  <outline>
    <contour>
      <point x="90" y="0" type="line"/>
      <point x="110" y="0" type="line"/>
      <point x="110" y="460" type="line"/>
      <point x="90" y="460" type="line"/>
    </contour>
    <contour>
      <point x="101" y="231" type="line"/>
      <point x="335" y="231" type="line"/>
      <point x="335" y="249" type="line"/>
      <point x="101" y="249" type="line"/>
    </contour>
    <contour>
      <point x="324" y="0" type="line"/>
      <point x="344" y="0" type="line"/>
      <point x="344" y="460" type="line"/>
      <point x="324" y="460" type="line"/>
    </contour>
  </outline>
</glyph>
<glyph name="uni043F" format="2">
  <advance width="423"/>
  <unicode hex="043F"/>
  <outline>
    <contour>
      <point x="98" y="442" type="line"/>
      <point x="327" y="442" type="line"/>
      <point x="327" y="460" type="line"/>
      <point x="98" y="460" type="line"/>
    </contour>
    <contour>
      <point x="90" y="0" type="line"/>
      <point x="110" y="0" type="line"/>
      <point x="110" y="460" type="line"/>
      <point x="90" y="460" type="line"/>
    </contour>
    <contour>
      <point x="314" y="0" type="line"/>
      <point x="333" y="0" type="line"/>
      <point x="333" y="460" type="line"/>
      <point x="314" y="460" type="line"/>
    </contour>
  </outline>
</glyph>
<glyph name="uni0442" format="2">
  <advance width="341"/>
  <unicode hex="0442"/>
  <outline>
    <contour>
      <point x="161" y="0" type="line"/>
      <point x="181" y="0" type="line"/>
      <point x="181" y="450" type="line"/>
      <point x="161" y="450" type="line"/>
    </contour>
    <contour>
      <point x="22" y="442" type="line"/>
      <point x="319" y="442" type="line"/>
      <point x="319" y="460" type="line"/>
      <point x="22" y="460" type="line"/>
    </contour>
  </outline>
</glyph>
<glyph name="uni0444" format="2">
  <advance width="554"/>
  <unicode hex="0444"/>
  <outline>
    <contour>
      <point x="267" y="-200" type="line"/>
      <point x="287" y="-200" type="line"/>
      <point x="287" y="-4" type="line"/>
      <point x="286" y="4" type="line"/>
      <point x="286" y="456" type="line"/>
      <point x="287" y="464" type="line"/>
      <point x="287" y="700" type="line"/>
      <point x="267" y="700" type="line"/>
      <point x="267" y="464" type="line"/>
      <point x="268" y="456" type="line"/>
      <point x="268" y="4" type="line"/>
      <point x="267" y="-4" type="line"/>
    </contour>
    <contour>
      <point x="282" y="-8" type="line"/>
      <point x="419" y="-3"/>
      <point x="494" y="81"/>
      <point x="494" y="230" type="curve" smooth="yes"/>
      <point x="494" y="379"/>
      <point x="419" y="463"/>
      <point x="282" y="468" type="curve"/>
      <point x="282" y="450" type="line"/>
      <point x="405" y="445"/>
      <point x="474" y="366"/>
      <point x="474" y="230" type="curve" smooth="yes"/>
      <point x="474" y="93"/>
      <point x="406" y="15"/>
      <point x="282" y="10" type="curve"/>
    </contour>
    <contour>
      <point x="60" y="230" type="curve" smooth="yes"/>
      <point x="60" y="82"/>
      <point x="135" y="-3"/>
      <point x="271" y="-8" type="curve"/>
      <point x="271" y="10" type="line"/>
      <point x="147" y="15"/>
      <point x="80" y="92"/>
      <point x="80" y="230" type="curve" smooth="yes"/>
      <point x="80" y="365"/>
      <point x="149" y="445"/>
      <point x="271" y="450" type="curve"/>
      <point x="271" y="468" type="line"/>
      <point x="135" y="463"/>
      <point x="60" y="378"/>
    </contour>
  </outline>
</glyph>
<glyph name="uni0446" format="2">
  <advance width="414"/>
  <unicode hex="0446"/>
  <outline>
    <contour>
      <point x="99" y="0" type="line"/>
      <point x="338" y="0" type="line"/>
      <point x="338" y="18" type="line"/>
      <point x="99" y="18" type="line"/>
    </contour>
    <contour>
      <point x="346" y="0" type="line"/>
      <point x="373" y="0" type="line"/>
      <point x="381" y="-140" type="line"/>
      <point x="394" y="-140" type="line"/>
      <point x="394" y="18" type="line"/>
      <point x="346" y="18" type="line"/>
    </contour>
    <contour>
      <point x="90" y="0" type="line"/>
      <point x="110" y="0" type="line"/>
      <point x="110" y="460" type="line"/>
      <point x="90" y="460" type="line"/>
    </contour>
    <contour>
      <point x="331" y="0" type="line"/>
      <point x="351" y="0" type="line"/>
      <point x="351" y="460" type="line"/>
      <point x="331" y="460" type="line"/>
    </contour>
  </outline>
</glyph>
<glyph name="uni0447" format="2">
  <advance width="428"/>
  <unicode hex="0447"/>
  <outline>
    <contour>
      <point x="90" y="288" type="line" smooth="yes"/>
      <point x="90" y="217"/>
      <point x="137" y="170"/>
      <point x="211" y="170" type="curve" smooth="yes"/>
      <point x="251" y="170"/>
      <point x="301" y="187"/>
      <point x="335" y="212" type="curve"/>
      <point x="328" y="229" type="line"/>
      <point x="297" y="204"/>
      <point x="249" y="188"/>
      <point x="207" y="188" type="curve" smooth="yes"/>
      <point x="149" y="188"/>
      <point x="110" y="230"/>
      <point x="110" y="292" type="curve" smooth="yes"/>
      <point x="110" y="460" type="line"/>
      <point x="90" y="460" type="line"/>
    </contour>
    <contour>
      <point x="318" y="0" type="line"/>
      <point x="338" y="0" type="line"/>
      <point x="338" y="460" type="line"/>
      <point x="318" y="460" type="line"/>
    </contour>
  </outline>
</glyph>
<glyph name="uni0448" format="2">
  <advance width="612"/>
  <unicode hex="0448"/>
  <outline>
    <contour>
      <point x="90" y="0" type="line"/>
      <point x="110" y="0" type="line"/>
      <point x="110" y="460" type="line"/>
      <point x="90" y="460" type="line"/>
    </contour>
    <contour>
      <point x="98" y="0" type="line"/>
      <point x="516" y="0" type="line"/>
      <point x="516" y="18" type="line"/>
      <point x="98" y="18" type="line"/>
    </contour>
    <contour>
      <point x="296" y="0" type="line"/>
      <point x="316" y="0" type="line"/>
      <point x="316" y="460" type="line"/>
      <point x="296" y="460" type="line"/>
    </contour>
    <contour>
      <point x="502" y="0" type="line"/>
      <point x="522" y="0" type="line"/>
      <point x="522" y="460" type="line"/>
      <point x="502" y="460" type="line"/>
    </contour>
  </outline>
</glyph>
<glyph name="uni0449" format="2">
  <advance width="657"/>
  <unicode hex="0449"/>
  <outline>
    <contour>
      <point x="98" y="0" type="line"/>
      <point x="510" y="0" type="line"/>
      <point x="510" y="18" type="line"/>
      <point x="98" y="18" type="line"/>
    </contour>
    <contour>
      <point x="515" y="0" type="line"/>
      <point x="546" y="0" type="line"/>
      <point x="553" y="-140" type="line"/>
      <point x="567" y="-140" type="line"/>
      <point x="567" y="18" type="line"/>
      <point x="515" y="18" type="line"/>
    </contour>
    <contour>
      <point x="90" y="0" type="line"/>
      <point x="110" y="0" type="line"/>
      <point x="110" y="460" type="line"/>
      <point x="90" y="460" type="line"/>
    </contour>
    <contour>
      <point x="296" y="0" type="line"/>
      <point x="316" y="0" type="line"/>
      <point x="316" y="460" type="line"/>
      <point x="296" y="460" type="line"/>
    </contour>
    <contour>
      <point x="502" y="0" type="line"/>
      <point x="522" y="0" type="line"/>
      <point x="522" y="460" type="line"/>
      <point x="502" y="460" type="line"/>
    </contour>
  </outline>
</glyph>
<glyph name="uni044A" format="2">
  <advance width="450"/>
  <unicode hex="044A"/>
  <outline>
    <contour>
      <point x="2" y="442" type="line"/>
      <point x="146" y="442" type="line"/>
      <point x="146" y="460" type="line"/>
      <point x="2" y="460" type="line"/>
    </contour>
    <contour>
      <point x="135" y="0" type="line"/>
      <point x="155" y="0" type="line"/>
      <point x="155" y="460" type="line"/>
      <point x="135" y="460" type="line"/>
    </contour>
    <contour>
      <point x="142" y="0" type="line"/>
      <point x="251" y="0" type="line" smooth="yes"/>
      <point x="342" y="0"/>
      <point x="390" y="49"/>
      <point x="390" y="140" type="curve" smooth="yes"/>
      <point x="390" y="215"/>
      <point x="362" y="290"/>
      <point x="251" y="290" type="curve" smooth="yes"/>
      <point x="142" y="290" type="line"/>
      <point x="142" y="272" type="line"/>
      <point x="251" y="272" type="line" smooth="yes"/>
      <point x="329" y="272"/>
      <point x="370" y="226"/>
      <point x="370" y="140" type="curve" smooth="yes"/>
      <point x="370" y="60"/>
      <point x="329" y="18"/>
      <point x="251" y="18" type="curve" smooth="yes"/>
      <point x="142" y="18" type="line"/>
    </contour>
  </outline>
</glyph>
<glyph name="uni044B" format="2">
  <advance width="529"/>
  <unicode hex="044B"/>
  <anchor x="255" y="540" name="top"/>
  <outline>
    <contour>
      <point x="90" y="0" type="line"/>
      <point x="110" y="0" type="line"/>
      <point x="110" y="460" type="line"/>
      <point x="90" y="460" type="line"/>
    </contour>
    <contour>
      <point x="98" y="0" type="line"/>
      <point x="207" y="0" type="line" smooth="yes"/>
      <point x="299" y="0"/>
      <point x="345" y="46"/>
      <point x="345" y="140" type="curve" smooth="yes"/>
      <point x="345" y="215"/>
      <point x="318" y="290"/>
      <point x="207" y="290" type="curve" smooth="yes"/>
      <point x="98" y="290" type="line"/>
      <point x="98" y="272" type="line"/>
      <point x="207" y="272" type="line" smooth="yes"/>
      <point x="285" y="272"/>
      <point x="325" y="228"/>
      <point x="325" y="140" type="curve" smooth="yes"/>
      <point x="325" y="56"/>
      <point x="288" y="18"/>
      <point x="207" y="18" type="curve" smooth="yes"/>
      <point x="98" y="18" type="line"/>
    </contour>
    <contour>
      <point x="419" y="0" type="line"/>
      <point x="439" y="0" type="line"/>
      <point x="439" y="460" type="line"/>
      <point x="419" y="460" type="line"/>
    </contour>
  </outline>
</glyph>
<glyph name="uni044C" format="2">
  <advance width="404"/>
  <unicode hex="044C"/>
  <outline>
    <contour>
      <point x="90" y="0" type="line"/>
      <point x="110" y="0" type="line"/>
      <point x="110" y="460" type="line"/>
      <point x="90" y="460" type="line"/>
    </contour>
    <contour>
      <point x="97" y="0" type="line"/>
      <point x="205" y="0" type="line" smooth="yes"/>
      <point x="296" y="0"/>
      <point x="344" y="49"/>
      <point x="344" y="140" type="curve" smooth="yes"/>
      <point x="344" y="237"/>
      <point x="295" y="290"/>
      <point x="205" y="290" type="curve" smooth="yes"/>
      <point x="97" y="290" type="line"/>
      <point x="97" y="272" type="line"/>
      <point x="205" y="272" type="line" smooth="yes"/>
      <point x="283" y="272"/>
      <point x="324" y="226"/>
      <point x="324" y="140" type="curve" smooth="yes"/>
      <point x="324" y="60"/>
      <point x="283" y="18"/>
      <point x="205" y="18" type="curve" smooth="yes"/>
      <point x="97" y="18" type="line"/>
    </contour>
  </outline>
</glyph>
<glyph name="uni044D" format="2">
  <advance width="409"/>
  <unicode hex="044D"/>
  <anchor x="214" y="540" name="top"/>
  <outline>
    <contour>
      <point x="60" y="130" type="line"/>
      <point x="75" y="47"/>
      <point x="132" y="-8"/>
      <point x="204" y="-8" type="curve" smooth="yes"/>
      <point x="291" y="-8"/>
      <point x="349" y="88"/>
      <point x="349" y="233" type="curve" smooth="yes"/>
      <point x="349" y="374"/>
      <point x="290" y="468"/>
      <point x="202" y="468" type="curve" smooth="yes"/>
      <point x="133" y="468"/>
      <point x="77" y="409"/>
      <point x="60" y="320" type="curve"/>
      <point x="80" y="320" type="line"/>
      <point x="97" y="398"/>
      <point x="142" y="450"/>
      <point x="204" y="450" type="curve" smooth="yes"/>
      <point x="279" y="450"/>
      <point x="329" y="363"/>
      <point x="329" y="233" type="curve" smooth="yes"/>
      <point x="329" y="99"/>
      <point x="279" y="10"/>
      <point x="204" y="10" type="curve" smooth="yes"/>
      <point x="147" y="10"/>
      <point x="94" y="57"/>
      <point x="80" y="130" type="curve"/>
    </contour>
    <contour>
      <point x="180" y="234" type="line"/>
      <point x="342" y="234" type="line"/>
      <point x="342" y="252" type="line"/>
      <point x="180" y="252" type="line"/>
    </contour>
  </outline>
</glyph>
<glyph name="uni044E" format="2">
  <advance width="547"/>
  <unicode hex="044E"/>
  <outline>
    <contour>
      <point x="90" y="0" type="line"/>
      <point x="110" y="0" type="line"/>
      <point x="110" y="221" type="line"/>
      <point x="175" y="221" type="line"/>
      <point x="175" y="239" type="line"/>
      <point x="110" y="239" type="line"/>
      <point x="110" y="460" type="line"/>
      <point x="90" y="460" type="line"/>
    </contour>
    <contour>
      <point x="163" y="231" type="curve" smooth="yes"/>
      <point x="163" y="108"/>
      <point x="213" y="-8"/>
      <point x="321" y="-8" type="curve" smooth="yes"/>
      <point x="429" y="-8"/>
      <point x="487" y="116"/>
      <point x="487" y="230" type="curve" smooth="yes"/>
      <point x="487" y="350"/>
      <point x="434" y="468"/>
      <point x="321" y="468" type="curve" smooth="yes"/>
      <point x="216" y="468"/>
      <point x="163" y="353"/>
    </contour>
    <contour>
      <point x="183" y="230" type="curve" smooth="yes"/>
      <point x="183" y="359"/>
      <point x="240" y="450"/>
      <point x="321" y="450" type="curve" smooth="yes"/>
      <point x="406" y="450"/>
      <point x="467" y="358"/>
      <point x="467" y="230" type="curve" smooth="yes"/>
      <point x="467" y="108"/>
      <point x="402" y="10"/>
      <point x="321" y="10" type="curve" smooth="yes"/>
      <point x="240" y="10"/>
      <point x="183" y="101"/>
    </contour>
  </outline>
</glyph>
<glyph name="uni044F" format="2">
  <advance width="388"/>
  <unicode hex="044F"/>
  <anchor x="203" y="540" name="top"/>
  <outline>
    <contour>
      <point x="52" y="332" type="curve" smooth="yes"/>
      <point x="52" y="258"/>
      <point x="101" y="208"/>
      <point x="175" y="208" type="curve" smooth="yes"/>
      <point x="291" y="208" type="line"/>
      <point x="291" y="226" type="line"/>
      <point x="178" y="226" type="line" smooth="yes"/>
      <point x="114" y="226"/>
      <point x="72" y="268"/>
      <point x="72" y="332" type="curve" smooth="yes"/>
      <point x="72" y="398"/>
      <point x="105" y="442"/>
      <point x="165" y="442" type="curve" smooth="yes"/>
      <point x="291" y="442" type="line"/>
      <point x="291" y="460" type="line"/>
      <point x="163" y="460" type="line" smooth="yes"/>
      <point x="96" y="460"/>
      <point x="52" y="409"/>
    </contour>
    <contour>
      <point x="53" y="0" type="line"/>
      <point x="74" y="0" type="line"/>
      <point x="158" y="216" type="line"/>
      <point x="139" y="221" type="line"/>
    </contour>
    <contour>
      <point x="278" y="0" type="line"/>
      <point x="298" y="0" type="line"/>
      <point x="298" y="460" type="line"/>
      <point x="278" y="460" type="line"/>
    </contour>
  </outline>
</glyph>
<glyph name="uni0452" format="2">
  <advance width="440"/>
  <unicode hex="0452"/>
  <anchor x="311" y="540" name="top"/>
  <outline>
    <component base="uni045B"/>
    <contour>
      <point x="156" y="-90" type="line"/>
      <point x="156" y="-166"/>
      <point x="201" y="-200"/>
      <point x="255" y="-200" type="curve" smooth="yes"/>
      <point x="326" y="-200"/>
      <point x="350" y="-167"/>
      <point x="350" y="-66" type="curve" smooth="yes"/>
      <point x="350" y="50" type="line"/>
      <point x="330" y="50" type="line"/>
      <point x="330" y="-84" type="line" smooth="yes"/>
      <point x="330" y="-148"/>
      <point x="310" y="-182"/>
      <point x="260" y="-182" type="curve" smooth="yes"/>
      <point x="211" y="-182"/>
      <point x="176" y="-157"/>
      <point x="176" y="-90" type="curve"/>
    </contour>
  </outline>
</glyph>
